AnnotationMono_Thin[slnt=-15].ufo
<glyph name="exclam" format="2">
  <advance width="500.0"/>
  <unicode hex="0021"/>
  <outline>
    <contour>
      <point x="362.9131089981226" y="608" type="curve" smooth="yes"/>
      <point x="399.9131089981226" y="608"/>
      <point x="355.013071988495" y="530"/>
      <point x="347.314342177717" y="505" type="curve" smooth="yes"/>
      <point x="328.5053398242807" y="446"/>
      <point x="321.0027624362093" y="418"/>
      <point x="311.3565915086889" y="382" type="curve" smooth="yes"/>
      <point x="292.13604642337253" y="314"/>
      <point x="266.7526699121404" y="223"/>
      <point x="256.10649898462" y="187" type="curve" smooth="yes"/>
      <point x="249.675718366273" y="163"/>
      <point x="248.2641756343929" y="154"/>
      <point x="241.2641756343929" y="154" type="curve" smooth="yes"/>
      <point x="233.2641756343929" y="154"/>
      <point x="234.6039215965485" y="159"/>
      <point x="242.37444817705108" y="188" type="curve" smooth="yes"/>
      <point x="249.8770255651225" y="216"/>
      <point x="279.8347762341506" y="339"/>
      <point x="291.3565915086889" y="382" type="curve" smooth="yes"/>
      <point x="296.7155753573113" y="402"/>
      <point x="309.96944143941846" y="444"/>
      <point x="321.314342177717" y="505" type="curve" smooth="yes"/>
      <point x="325.7451227960639" y="529"/>
      <point x="324.9131089981226" y="608"/>
    </contour>
    <component base="period"/>
  </outline>
</glyph>
<glyph name="numbersign" format="2">
  <advance width="500.0"/>
  <unicode hex="0023"/>
  <outline>
    <contour>
      <point x="356.1092614208292" y="605" type="curve" smooth="yes"/>
      <point x="372.1092614208292" y="605"/>
      <point x="350.8746332251889" y="578"/>
      <point x="337.97975099170424" y="556" type="curve" smooth="yes"/>
      <point x="326.88871633551287" y="537"/>
      <point x="245.16043908598223" y="385"/>
      <point x="186.95397711098985" y="276" type="curve" smooth="yes"/>
      <point x="158.48472071970923" y="222"/>
      <point x="97.4744111674235" y="110"/>
      <point x="78.36413862476533" y="76" type="curve" smooth="yes"/>
      <point x="46.8948822334847" y="22"/>
      <point x="40.12435565298214" y="-7"/>
      <point x="27.12435565298214" y="-7" type="curve" smooth="yes"/>
      <point x="0.12435565298213902" y="-7"/>
      <point x="25.770526580502562" y="29"/>
      <point x="51.75644347017859" y="70" type="curve" smooth="yes"/>
      <point x="76.74236035985462" y="111"/>
      <point x="137.3603650667271" y="229"/>
      <point x="199.71042058116845" y="346" type="curve" smooth="yes"/>
      <point x="295.6733260263394" y="525"/>
      <point x="299.5489703733573" y="532"/>
      <point x="317.8553953387221" y="563" type="curve" smooth="yes"/>
      <point x="336.9656678813802" y="597"/>
      <point x="340.1092614208292" y="605"/>
    </contour>
    <contour>
      <point x="525.1092614208292" y="605" type="curve" smooth="yes"/>
      <point x="549.1092614208292" y="605"/>
      <point x="537.5541251495001" y="588"/>
      <point x="526.855395338722" y="563" type="curve" smooth="yes"/>
      <point x="513.5489703733573" y="532"/>
      <point x="506.6733260263394" y="525"/>
      <point x="410.7104205811685" y="346" type="curve" smooth="yes"/>
      <point x="348.3603650667271" y="229"/>
      <point x="286.4744111674235" y="110"/>
      <point x="264.75644347017857" y="70" type="curve" smooth="yes"/>
      <point x="240.69872981077808" y="25"/>
      <point x="235.12435565298213" y="-7"/>
      <point x="209.12435565298213" y="-7" type="curve" smooth="yes"/>
      <point x="187.12435565298213" y="-7"/>
      <point x="215.50257738807144" y="28"/>
      <point x="242.82824023990307" y="74" type="curve" smooth="yes"/>
      <point x="291.06802321168624" y="157"/>
      <point x="321.48472071970923" y="222"/>
      <point x="349.95397711098985" y="276" type="curve" smooth="yes"/>
      <point x="407.42838827841337" y="386"/>
      <point x="491.156665527944" y="538"/>
      <point x="498.7118017992731" y="555" type="curve" smooth="yes"/>
      <point x="509.6066840327578" y="577"/>
      <point x="517.1092614208292" y="605"/>
    </contour>
    <contour>
      <point x="109.98352454974244" y="403" type="curve" smooth="yes"/>
      <point x="114.27071162864041" y="419"/>
      <point x="125.9309656664848" y="414"/>
      <point x="154.93096566648478" y="414" type="curve" smooth="yes"/>
      <point x="206.93096566648478" y="414"/>
      <point x="284.3950672816226" y="412"/>
      <point x="296.3950672816226" y="412" type="curve" smooth="yes"/>
      <point x="329.3950672816226" y="412"/>
      <point x="470.19891485891594" y="415"/>
      <point x="501.6630164740537" y="413" type="curve" smooth="yes"/>
      <point x="524.3950672816226" y="412"/>
      <point x="539.5386608210715" y="420"/>
      <point x="535.4476261648801" y="401" type="curve" smooth="yes"/>
      <point x="532.9642866632756" y="388"/>
      <point x="516.0360834330002" y="392"/>
      <point x="480.768134240569" y="391" type="curve" smooth="yes"/>
      <point x="433.50018504813784" y="390"/>
      <point x="400.50018504813784" y="390"/>
      <point x="322.50018504813784" y="390" type="curve" smooth="yes"/>
      <point x="291.50018504813784" y="390"/>
      <point x="163.0360834330001" y="392"/>
      <point x="144.76813424056897" y="391" type="curve" smooth="yes"/>
      <point x="115.50018504813785" y="390"/>
      <point x="107.0360834330001" y="392"/>
    </contour>
    <contour>
      <point x="36.66163525594903" y="204" type="curve" smooth="yes"/>
      <point x="40.948822334846994" y="220"/>
      <point x="52.34112718026026" y="214"/>
      <point x="81.34112718026026" y="214" type="curve" smooth="yes"/>
      <point x="133.34112718026026" y="214"/>
      <point x="250.80522879539802" y="212"/>
      <point x="262.805228795398" y="212" type="curve" smooth="yes"/>
      <point x="295.805228795398" y="212"/>
      <point x="386.6090763726914" y="215"/>
      <point x="418.0731779878291" y="213" type="curve" smooth="yes"/>
      <point x="440.805228795398" y="212"/>
      <point x="456.948822334847" y="220"/>
      <point x="451.58983848622455" y="200" type="curve" smooth="yes"/>
      <point x="448.6423973694822" y="189"/>
      <point x="432.44624494677555" y="192"/>
      <point x="397.17829575434445" y="191" type="curve" smooth="yes"/>
      <point x="349.91034656191334" y="190"/>
      <point x="286.17829575434445" y="191"/>
      <point x="248.91034656191331" y="190" type="curve" smooth="yes"/>
      <point x="217.91034656191331" y="190"/>
      <point x="89.44624494677555" y="192"/>
      <point x="71.44624494677555" y="192" type="curve" smooth="yes"/>
      <point x="42.44624494677556" y="192"/>
      <point x="32.910346561913315" y="190"/>
    </contour>
  </outline>
</glyph>
<glyph name="dollar" format="2">
  <advance width="500.0"/>
  <unicode hex="0024"/>
  <outline>
    <contour>
      <point x="376.78875334514044" y="615.0" type="curve" smooth="yes"/>
      <point x="452.78875334514044" y="615.0"/>
      <point x="490.6451598056915" y="607"/>
      <point x="518.4823283797757" y="584.0" type="curve" smooth="yes"/>
      <point x="531.5348872630333" y="573"/>
      <point x="531.3912937235843" y="565"/>
      <point x="520.7835985689976" y="559" type="curve" smooth="yes"/>
      <point x="513.7118017992731" y="555"/>
      <point x="504.65924291601544" y="566"/>
      <point x="490.07078564789555" y="575" type="curve" smooth="yes"/>
      <point x="475.0182267646379" y="586"/>
      <point x="451.429769496518" y="595"/>
      <point x="370.429769496518" y="595" type="curve" smooth="yes"/>
      <point x="288.429769496518" y="595"/>
      <point x="203.20922441120166" y="527"/>
      <point x="179.36174628483172" y="438" type="curve" smooth="yes"/>
      <point x="147.47579238552814" y="319"/>
      <point x="215.18860530663017" y="303"/>
      <point x="296.18860530663017" y="303" type="curve" smooth="yes"/>
      <point x="353.18860530663017" y="303"/>
      <point x="396.74374157795927" y="320"/>
      <point x="431.4373166125945" y="289" type="curve" smooth="yes"/>
      <point x="452.3462819564031" y="270"/>
      <point x="473.77190779860723" y="238"/>
      <point x="459.8385497921888" y="186" type="curve" smooth="yes"/>
      <point x="443.76159824632146" y="126"/>
      <point x="417.5077321642143" y="84.0"/>
      <point x="378.66540881398726" y="51.0" type="curve" smooth="yes"/>
      <point x="334.4833395016046" y="13.0"/>
      <point x="269.5884572681199" y="-9.0"/>
      <point x="192.5884572681199" y="-9.0" type="curve" smooth="yes"/>
      <point x="125.5884572681199" y="-9.0"/>
      <point x="70.23462819564031" y="27.0"/>
      <point x="46.14874831559185" y="64.0" type="curve" smooth="yes"/>
      <point x="32.77568135664543" y="85.0"/>
      <point x="30.330817627974515" y="102"/>
      <point x="48.93851278256125" y="108" type="curve" smooth="yes"/>
      <point x="60.01030955228574" y="112"/>
      <point x="71.7564434701786" y="70"/>
      <point x="83.54105316100512" y="58" type="curve" smooth="yes"/>
      <point x="116.82308546376021" y="18"/>
      <point x="177.4115427318801" y="9"/>
      <point x="205.4115427318801" y="9" type="curve" smooth="yes"/>
      <point x="263.4115427318801" y="9"/>
      <point x="341.7179676972449" y="40"/>
      <point x="368.14874831559183" y="64" type="curve" smooth="yes"/>
      <point x="406.25902085825004" y="98"/>
      <point x="430.58468371008166" y="144"/>
      <point x="438.62315948301534" y="174" type="curve" smooth="yes"/>
      <point x="451.48472071970923" y="222"/>
      <point x="441.64755214562507" y="245"/>
      <point x="423.8103835715409" y="268" type="curve" smooth="yes"/>
      <point x="396.92065611419906" y="302"/>
      <point x="347.9014182277322" y="287.0"/>
      <point x="300.9014182277322" y="287.0" type="curve" smooth="yes"/>
      <point x="174.6334690353011" y="286.0"/>
      <point x="131.6193859249771" y="327.0"/>
      <point x="161.62969547726286" y="439.0" type="curve" smooth="yes"/>
      <point x="191.90795422197974" y="552.0"/>
      <point x="299.78875334514044" y="615.0"/>
    </contour>
    <contour>
      <point x="409.7413492380257" y="682" type="curve" smooth="yes"/>
      <point x="411.7413492380257" y="682"/>
      <point x="413.5977556985767" y="674"/>
      <point x="404.75543234834964" y="641" type="curve" smooth="yes"/>
      <point x="373.1374276414772" y="523"/>
      <point x="370.9220373323037" y="511"/>
      <point x="313.65270692176796" y="301" type="curve" smooth="yes"/>
      <point x="257.7231224733878" y="96"/>
      <point x="263.8141571295791" y="115"/>
      <point x="220.94228634059948" y="-45" type="curve" smooth="yes"/>
      <point x="210.7602170282168" y="-83"/>
      <point x="209.06148721743875" y="-108"/>
      <point x="195.06148721743875" y="-108" type="curve" smooth="yes"/>
      <point x="180.06148721743875" y="-108"/>
      <point x="191.63586137523467" y="-76"/>
      <point x="201.21023553303058" y="-44" type="curve" smooth="yes"/>
      <point x="202.81793068761732" y="-38"/>
      <point x="230.7564434701786" y="70"/>
      <point x="288.2937230731455" y="281" type="curve" smooth="yes"/>
      <point x="358.0848687582195" y="534"/>
      <point x="363.3194969538598" y="561"/>
      <point x="383.415686386194" y="636" type="curve" smooth="yes"/>
      <point x="389.0426194272476" y="657"/>
      <point x="395.0092984304568" y="683"/>
    </contour>
  </outline>
</glyph>
<glyph name="percent" format="2">
  <advance width="500.0"/>
  <unicode hex="0025"/>
  <outline>
    <contour>
      <point x="519.6451598056915" y="607" type="curve" smooth="yes"/>
      <point x="528.5015662662424" y="599"/>
      <point x="517.0182267646379" y="586"/>
      <point x="499.39129372358434" y="565" type="curve" smooth="yes"/>
      <point x="450.24254540799245" y="501"/>
      <point x="469.6733260263394" y="525"/>
      <point x="283.4373166125945" y="289" type="curve" smooth="yes"/>
      <point x="154.49364905389035" y="125"/>
      <point x="197.4270070603087" y="177"/>
      <point x="82.45001850481378" y="39" type="curve" smooth="yes"/>
      <point x="53.07179676972449" y="4"/>
      <point x="44.78460969082653" y="-12"/>
      <point x="32.732050807568875" y="-1" type="curve" smooth="yes"/>
      <point x="21.67949192431123" y="10"/>
      <point x="44.626933041053576" y="21"/>
      <point x="68.93335800641839" y="52" type="curve" smooth="yes"/>
      <point x="88.0961894323342" y="75"/>
      <point x="133.0295474387526" y="127"/>
      <point x="273.72450369149243" y="305" type="curve" smooth="yes"/>
      <point x="466.10410664468634" y="549"/>
      <point x="429.24254540799245" y="501"/>
      <point x="486.33873484032665" y="576" type="curve" smooth="yes"/>
      <point x="505.03746465110476" y="601"/>
      <point x="510.78875334514044" y="615"/>
    </contour>
    <contour>
      <point x="319.7592059063879" y="488" type="curve" smooth="yes"/>
      <point x="310.11303497886746" y="452"/>
      <point x="302.3425083983649" y="423"/>
      <point x="274.64377858758684" y="398" type="curve" smooth="yes"/>
      <point x="254.08864231625773" y="381"/>
      <point x="237.480947161671" y="375"/>
      <point x="209.01684554653326" y="377" type="curve" smooth="yes"/>
      <point x="181.5527439313955" y="379"/>
      <point x="174.16043908598223" y="385"/>
      <point x="167.17967697244907" y="400" type="curve" smooth="yes"/>
      <point x="157.2707116286404" y="419"/>
      <point x="164.5771365940052" y="450"/>
      <point x="174.49125671395674" y="487" type="curve" smooth="yes"/>
      <point x="184.13742764147716" y="523"/>
      <point x="189.42461472037513" y="539"/>
      <point x="211.31949695385984" y="561" type="curve" smooth="yes"/>
      <point x="232.21437918734452" y="583"/>
      <point x="254.1618203040869" y="594"/>
      <point x="281.62592191922465" y="592" type="curve" smooth="yes"/>
      <point x="309.0900235343624" y="590"/>
      <point x="316.75027757220676" y="585"/>
      <point x="324.65924291601544" y="566" type="curve" smooth="yes"/>
      <point x="331.3720558371175" y="550"/>
      <point x="332.8169195657884" y="533"/>
    </contour>
    <contour>
      <point x="301.7592059063879" y="488" type="curve" smooth="yes"/>
      <point x="307.11818975501035" y="508"/>
      <point x="315.013071988495" y="530"/>
      <point x="308.7118017992731" y="555" type="curve" smooth="yes"/>
      <point x="305.1233445311532" y="564"/>
      <point x="292.07078564789555" y="575"/>
      <point x="272.07078564789555" y="575" type="curve" smooth="yes"/>
      <point x="257.33873484032665" y="576"/>
      <point x="240.19514130087768" y="568"/>
      <point x="222.90795422197974" y="552" type="curve" smooth="yes"/>
      <point x="211.69256391280626" y="540"/>
      <point x="201.79768167932156" y="518"/>
      <point x="193.83100267611238" y="492" type="curve" smooth="yes"/>
      <point x="182.84508578643636" y="451"/>
      <point x="180.14635597565825" y="426"/>
      <point x="184.66301647405368" y="413" type="curve" smooth="yes"/>
      <point x="190.4476261648802" y="401"/>
      <point x="200.10788020272457" y="396"/>
      <point x="219.83993101029347" y="395" type="curve" smooth="yes"/>
      <point x="244.57198181786234" y="394"/>
      <point x="255.98352454974244" y="403"/>
      <point x="268.46686405134705" y="416" type="curve" smooth="yes"/>
      <point x="287.28994951510725" y="434"/>
      <point x="293.18483174859193" y="456"/>
    </contour>
    <contour>
      <point x="390.61800470687245" y="118" type="curve" smooth="yes"/>
      <point x="380.97183377935204" y="82"/>
      <point x="373.2013071988495" y="53"/>
      <point x="345.5025773880714" y="28" type="curve" smooth="yes"/>
      <point x="324.94744111674237" y="11"/>
      <point x="308.33974596215563" y="5"/>
      <point x="279.87564434701784" y="7" type="curve" smooth="yes"/>
      <point x="252.4115427318801" y="9"/>
      <point x="245.01923788646684" y="15"/>
      <point x="238.03847577293368" y="30" type="curve" smooth="yes"/>
      <point x="228.12951042912502" y="49"/>
      <point x="235.43593539448983" y="80"/>
      <point x="245.35005551444135" y="117" type="curve" smooth="yes"/>
      <point x="254.99622644196177" y="153"/>
      <point x="260.28341352085977" y="169"/>
      <point x="282.17829575434445" y="191" type="curve" smooth="yes"/>
      <point x="303.0731779878291" y="213"/>
      <point x="325.0206191045715" y="224"/>
      <point x="352.48472071970923" y="222" type="curve" smooth="yes"/>
      <point x="379.948822334847" y="220"/>
      <point x="387.6090763726914" y="215"/>
      <point x="395.5180417165001" y="196" type="curve" smooth="yes"/>
      <point x="402.2308546376021" y="180"/>
      <point x="403.67571836627303" y="163"/>
    </contour>
    <contour>
      <point x="372.61800470687245" y="118" type="curve" smooth="yes"/>
      <point x="377.9769885554949" y="138"/>
      <point x="385.87187078897966" y="160"/>
      <point x="379.5706005997577" y="185" type="curve" smooth="yes"/>
      <point x="375.9821433316378" y="194"/>
      <point x="362.9295844483802" y="205"/>
      <point x="342.9295844483802" y="205" type="curve" smooth="yes"/>
      <point x="328.1975336408113" y="206"/>
      <point x="311.0539401013623" y="198"/>
      <point x="293.76675302246434" y="182" type="curve" smooth="yes"/>
      <point x="282.55136271329087" y="170"/>
      <point x="272.65648047980613" y="148"/>
      <point x="264.689801476597" y="122" type="curve" smooth="yes"/>
      <point x="253.70388458692094" y="81"/>
      <point x="251.0051547761429" y="56"/>
      <point x="255.52181527453828" y="43" type="curve" smooth="yes"/>
      <point x="261.3064249653648" y="31"/>
      <point x="270.9666790032092" y="26"/>
      <point x="290.69872981077805" y="25" type="curve" smooth="yes"/>
      <point x="315.43078061834694" y="24"/>
      <point x="326.84232335022705" y="33"/>
      <point x="339.3256628518316" y="46" type="curve" smooth="yes"/>
      <point x="358.14874831559183" y="64"/>
      <point x="364.04363054907657" y="86"/>
    </contour>
  </outline>
</glyph>
<glyph name="ampersand" format="2">
  <advance width="500.0"/>
  <unicode hex="0026"/>
  <outline>
    <contour>
      <point x="198.96051310523737" y="541.0" type="curve" smooth="yes"/>
      <point x="198.14258241762005" y="579"/>
      <point x="237.9849057678471" y="612.0"/>
      <point x="291.98490576784707" y="612.0" type="curve" smooth="yes"/>
      <point x="394.98490576784707" y="612.0"/>
      <point x="442.65924291601544" y="566.0"/>
      <point x="423.9027994458369" y="496.0" type="curve" smooth="yes"/>
      <point x="405.14635597565825" y="426.0"/>
      <point x="301.8014552373598" y="365"/>
      <point x="233.74374157795927" y="320" type="curve" smooth="yes"/>
      <point x="144.47063760938528" y="263"/>
      <point x="105.16421264402047" y="232"/>
      <point x="61.7808361327883" y="141" type="curve" smooth="yes"/>
      <point x="8.770526580502562" y="29"/>
      <point x="52.287187078897965" y="16"/>
      <point x="93.60769515458674" y="6" type="curve" smooth="yes"/>
      <point x="150.12435565298213" y="-7"/>
      <point x="327.97183377935204" y="82"/>
      <point x="388.1590578678776" y="176" type="curve" smooth="yes"/>
      <point x="422.3603650667271" y="229"/>
      <point x="407.59499326236744" y="256"/>
      <point x="416.6142311488343" y="271" type="curve" smooth="yes"/>
      <point x="428.9732149974567" y="291"/>
      <point x="435.77706257475006" y="294"/>
      <point x="443.9014182277322" y="287" type="curve" smooth="yes"/>
      <point x="452.0257738807144" y="280"/>
      <point x="453.1501295336965" y="273.0"/>
      <point x="439.96806022131386" y="235.0" type="curve" smooth="yes"/>
      <point x="421.4270070603087" y="177.0"/>
      <point x="370.8859538993036" y="119.0"/>
      <point x="293.14874831559183" y="64.0" type="curve" smooth="yes"/>
      <point x="230.35898384862247" y="20.0"/>
      <point x="147.98076211353316" y="-15.0"/>
      <point x="99.24871130596429" y="-14.0" type="curve" smooth="yes"/>
      <point x="65.78460969082653" y="-12.0"/>
      <point x="0.0" y="0"/>
      <point x="24.383376511232164" y="91.0" type="curve" smooth="yes"/>
      <point x="38.58468371008167" y="144"/>
      <point x="60.5706005997577" y="185"/>
      <point x="111.91550133805619" y="246" type="curve" smooth="yes"/>
      <point x="176.2796399628215" y="322"/>
      <point x="382.1271180891914" y="411"/>
      <point x="405.24254540799245" y="501" type="curve" smooth="yes"/>
      <point x="422.9989888781711" y="571"/>
      <point x="355.89387111165576" y="593"/>
      <point x="279.89387111165576" y="593" type="curve" smooth="yes"/>
      <point x="193.89387111165576" y="593"/>
      <point x="219.51049460042358" y="502"/>
      <point x="226.43354305455622" y="442" type="curve" smooth="yes"/>
      <point x="232.16043908598223" y="385"/>
      <point x="266.7578246882832" y="279"/>
      <point x="302.26933041053576" y="210" type="curve" smooth="yes"/>
      <point x="319.62315948301534" y="174"/>
      <point x="375.75644347017857" y="70"/>
      <point x="401.1820693123827" y="38" type="curve" smooth="yes"/>
      <point x="417.5551362713291" y="17"/>
      <point x="440.8230854637602" y="18"/>
      <point x="434.33974596215563" y="5" type="curve" smooth="yes"/>
      <point x="428.12435565298216" y="-7"/>
      <point x="420.12435565298216" y="-7"/>
      <point x="399.60769515458674" y="6.0" type="curve" smooth="yes"/>
      <point x="373.16283142591584" y="23"/>
      <point x="292.5706005997577" y="185.0"/>
      <point x="283.85778767865565" y="201.0" type="curve" smooth="yes"/>
      <point x="252.934739224523" y="261.0"/>
      <point x="220.480947161671" y="375.0"/>
      <point x="214.98352454974244" y="403.0" type="curve" smooth="yes"/>
      <point x="205.38098417129856" y="453.0"/>
      <point x="199.97459621556135" y="500"/>
    </contour>
  </outline>
</glyph>
<glyph name="quotesingle" format="2">
  <advance width="500.0"/>
  <unicode hex="0027"/>
  <outline>
    <contour>
      <point x="303.98352454974247" y="403" type="curve" smooth="yes"/>
      <point x="296.5194229346047" y="405"/>
      <point x="294.9309656664848" y="414"/>
      <point x="303.96944143941846" y="444" type="curve" smooth="yes"/>
      <point x="315.07971398207667" y="478"/>
      <point x="320.11818975501035" y="508"/>
      <point x="337.5348872630333" y="573" type="curve" smooth="yes"/>
      <point x="341.286175957069" y="587"/>
      <point x="351.1092614208292" y="605"/>
      <point x="363.1092614208292" y="605" type="curve" smooth="yes"/>
      <point x="369.1092614208292" y="605"/>
      <point x="376.2336170738114" y="598"/>
      <point x="369.5348872630333" y="573" type="curve" smooth="yes"/>
      <point x="354.2617832944593" y="516"/>
      <point x="341.73996801992104" y="473"/>
      <point x="329.1655938621251" y="441" type="curve" smooth="yes"/>
      <point x="319.73481324377815" y="417"/>
      <point x="309.4476261648802" y="401"/>
    </contour>
  </outline>
</glyph>
<glyph name="parenleft" format="2">
  <advance width="500.0"/>
  <unicode hex="0028"/>
  <outline>
    <contour>
      <point x="153.9732149974567" y="291.0" type="curve" smooth="yes"/>
      <point x="233.28617595706902" y="587.0"/>
      <point x="489.8657048910078" y="675"/>
      <point x="533.5977556985767" y="674" type="curve" smooth="yes"/>
      <point x="550.5977556985767" y="674"/>
      <point x="571.40160327587" y="677"/>
      <point x="566.846467004541" y="660" type="curve" smooth="yes"/>
      <point x="564.1669750802298" y="650"/>
      <point x="551.702873465092" y="652"/>
      <point x="530.4349242726609" y="651" type="curve" smooth="yes"/>
      <point x="482.89902588779864" y="649"/>
      <point x="252.92719210844658" y="567"/>
      <point x="179.77706257475006" y="294" type="curve" smooth="yes"/>
      <point x="106.35898384862246" y="20"/>
      <point x="253.09996299037243" y="-78"/>
      <point x="333.09996299037243" y="-78" type="curve" smooth="yes"/>
      <point x="355.09996299037243" y="-78"/>
      <point x="366.29611541307906" y="-81"/>
      <point x="356.54482671904333" y="-95.0" type="curve" smooth="yes"/>
      <point x="351.6691823720255" y="-102"/>
      <point x="331.4012331795943" y="-103"/>
      <point x="301.47302994931886" y="-99" type="curve" smooth="yes"/>
      <point x="249.61662348876783" y="-91"/>
      <point x="76.39230484541326" y="-6.0"/>
    </contour>
  </outline>
</glyph>
<glyph name="asterisk" format="2">
  <advance width="500.0"/>
  <unicode hex="002A"/>
  <outline>
    <contour>
      <point x="328.07971398207667" y="478" type="curve" smooth="yes"/>
      <point x="341.07971398207667" y="478"/>
      <point x="332.91688255616083" y="455"/>
      <point x="325.14635597565825" y="426" type="curve" smooth="yes"/>
      <point x="321.9309656664848" y="414"/>
      <point x="305.92581089034195" y="358"/>
      <point x="288.7963004612169" y="309" type="curve"/>
      <point x="351.7104205811685" y="346"/>
      <point x="406.74889635410216" y="376"/>
      <point x="418.62454070112" y="383" type="curve" smooth="yes"/>
      <point x="450.98352454974247" y="403"/>
      <point x="465.05532131946694" y="407"/>
      <point x="469.3040326254312" y="393" type="curve" smooth="yes"/>
      <point x="473.5527439313955" y="379"/>
      <point x="454.9450487768088" y="373"/>
      <point x="426.6578616979108" y="357" type="curve" smooth="yes"/>
      <point x="403.1745221963062" y="344"/>
      <point x="355.88733511740827" y="328"/>
      <point x="293.3847577293368" y="300" type="curve"/>
      <point x="341.1501295336965" y="273"/>
      <point x="370.934739224523" y="261"/>
      <point x="388.45139972291844" y="248" type="curve" smooth="yes"/>
      <point x="413.89626345158933" y="231"/>
      <point x="431.7526699121404" y="223"/>
      <point x="418.1975336408113" y="206" type="curve" smooth="yes"/>
      <point x="404.91034656191334" y="190"/>
      <point x="391.3936860635179" y="203"/>
      <point x="374.14497475755365" y="217" type="curve" smooth="yes"/>
      <point x="362.82446668186486" y="227"/>
      <point x="331.79114568507407" y="253"/>
      <point x="284.24116418988785" y="292" type="curve"/>
      <point x="278.45139972291844" y="248"/>
      <point x="260.5706005997577" y="185"/>
      <point x="254.94366755870413" y="164" type="curve" smooth="yes"/>
      <point x="248.5128869403572" y="140"/>
      <point x="244.68980147659698" y="122"/>
      <point x="232.68980147659698" y="122" type="curve" smooth="yes"/>
      <point x="220.68980147659698" y="122"/>
      <point x="227.04878532521943" y="142"/>
      <point x="233.7475151359975" y="167" type="curve" smooth="yes"/>
      <point x="239.10649898461995" y="187"/>
      <point x="254.91550133805617" y="246"/>
      <point x="272.24116418988785" y="292" type="curve"/>
      <point x="214.86294245479854" y="257"/>
      <point x="159.82446668186486" y="227"/>
      <point x="142.14497475755363" y="217" type="curve" smooth="yes"/>
      <point x="118.66163525594902" y="204"/>
      <point x="96.91034656191331" y="190"/>
      <point x="92.19753364081127" y="206" type="curve" smooth="yes"/>
      <point x="87.75266991214036" y="223"/>
      <point x="110.7001110288827" y="234"/>
      <point x="144.45139972291844" y="248" type="curve" smooth="yes"/>
      <point x="169.13089164722965" y="258"/>
      <point x="206.88218034126538" y="272"/>
      <point x="267.3847577293368" y="300" type="curve"/>
      <point x="223.6193859249771" y="327"/>
      <point x="183.1745221963062" y="344"/>
      <point x="164.6578616979108" y="357" type="curve" smooth="yes"/>
      <point x="143.40915039194653" y="371"/>
      <point x="129.5527439313955" y="379"/>
      <point x="141.3040326254312" y="393" type="curve" smooth="yes"/>
      <point x="153.05532131946694" y="407"/>
      <point x="164.7155753573113" y="402"/>
      <point x="187.62454070112" y="383" type="curve" smooth="yes"/>
      <point x="195.74889635410213" y="376"/>
      <point x="239.1745221963062" y="344"/>
      <point x="276.7963004612169" y="309" type="curve"/>
      <point x="284.19376008277305" y="359"/>
      <point x="301.0027624362093" y="418"/>
      <point x="304.2181527453828" y="430" type="curve" smooth="yes"/>
      <point x="311.7207301334542" y="458"/>
      <point x="313.07971398207667" y="478"/>
    </contour>
  </outline>
</glyph>
<glyph name="plus" format="2">
  <advance width="500.0"/>
  <unicode hex="002B"/>
  <outline>
    <contour>
      <point x="82.65270692176793" y="301" type="curve" smooth="yes"/>
      <point x="85.33219884607915" y="311"/>
      <point x="98.60014803851028" y="312"/>
      <point x="127.60014803851028" y="312" type="curve" smooth="yes"/>
      <point x="179.60014803851027" y="312"/>
      <point x="282.33219884607917" y="311"/>
      <point x="294.33219884607917" y="311" type="curve" smooth="yes"/>
      <point x="327.33219884607917" y="311"/>
      <point x="412.86809723094143" y="313"/>
      <point x="444.33219884607917" y="311" type="curve" smooth="yes"/>
      <point x="467.33219884607917" y="311"/>
      <point x="481.60014803851027" y="312"/>
      <point x="478.3847577293368" y="300" type="curve" smooth="yes"/>
      <point x="474.9014182277322" y="287"/>
      <point x="458.4373166125945" y="289"/>
      <point x="423.4373166125945" y="289" type="curve" smooth="yes"/>
      <point x="376.1693674201633" y="288"/>
      <point x="317.4373166125945" y="289"/>
      <point x="280.1693674201633" y="288" type="curve" smooth="yes"/>
      <point x="249.16936742016333" y="288"/>
      <point x="134.90141822773222" y="287"/>
      <point x="117.43731661259446" y="289" type="curve" smooth="yes"/>
      <point x="90.24116418988783" y="292"/>
      <point x="79.97321499745671" y="291"/>
    </contour>
    <contour>
      <point x="334.4386978306991" y="498" type="curve" smooth="yes"/>
      <point x="343.4386978306991" y="498"/>
      <point x="339.9553583290945" y="485"/>
      <point x="333.18483174859193" y="456" type="curve" smooth="yes"/>
      <point x="323.1271180891914" y="411"/>
      <point x="294.6719448082348" y="316"/>
      <point x="292.4565544990613" y="304" type="curve" smooth="yes"/>
      <point x="289.7052658050256" y="290"/>
      <point x="257.819311905722" y="171"/>
      <point x="247.24493774792606" y="139" type="curve" smooth="yes"/>
      <point x="241.08210632201025" y="116"/>
      <point x="239.3308176279745" y="102"/>
      <point x="227.3308176279745" y="102" type="curve" smooth="yes"/>
      <point x="215.3308176279745" y="102"/>
      <point x="221.88595389930362" y="119"/>
      <point x="230.2641756343929" y="154" type="curve" smooth="yes"/>
      <point x="241.85778767865565" y="201"/>
      <point x="262.68602791855875" y="275"/>
      <point x="271.60014803851027" y="312" type="curve" smooth="yes"/>
      <point x="279.9065730038751" y="343"/>
      <point x="306.43354305455625" y="442"/>
      <point x="313.25662851831646" y="460" type="curve" smooth="yes"/>
      <point x="322.7592059063879" y="488"/>
      <point x="325.4386978306991" y="498"/>
    </contour>
  </outline>
</glyph>
<glyph name="comma" format="2">
  <advance width="500.0"/>
  <unicode hex="002C"/>
  <anchor x="209.3782217350893" y="35.0" name="center"/>
  <outline>
    <contour>
      <point x="240.91412011995155" y="37" type="curve" smooth="yes"/>
      <point x="240.4833395016046" y="13"/>
      <point x="221.0333209967908" y="-26"/>
      <point x="193.6550992617015" y="-61" type="curve" smooth="yes"/>
      <point x="160.40123317959436" y="-103"/>
      <point x="110.89865579152293" y="-131"/>
      <point x="66.89865579152293" y="-131" type="curve" smooth="yes"/>
      <point x="43.89865579152293" y="-131"/>
      <point x="27.1140461006964" y="-119"/>
      <point x="35.79353802500762" y="-109" type="curve" smooth="yes"/>
      <point x="50.34867429633671" y="-92"/>
      <point x="69.06148721743875" y="-108"/>
      <point x="92.9371315644566" y="-101" type="curve" smooth="yes"/>
      <point x="115.81277591147446" y="-94"/>
      <point x="173.77945491468364" y="-68"/>
      <point x="194.60769515458674" y="6" type="curve"/>
      <point x="181.60769515458674" y="6"/>
      <point x="173.8230854637602" y="18"/>
      <point x="178.11027254265818" y="34" type="curve" smooth="yes"/>
      <point x="183.46925639128062" y="54"/>
      <point x="200.416697508023" y="65"/>
      <point x="214.416697508023" y="65" type="curve" smooth="yes"/>
      <point x="230.416697508023" y="65"/>
      <point x="241.3449007382985" y="61"/>
    </contour>
  </outline>
</glyph>
<glyph name="hyphen" format="2">
  <advance width="500.0"/>
  <unicode hex="002D"/>
  <outline>
    <contour>
      <point x="82.38475772933681" y="300" type="curve" smooth="yes"/>
      <point x="85.06424965364803" y="310"/>
      <point x="99.13604642337252" y="314"/>
      <point x="128.13604642337253" y="314" type="curve" smooth="yes"/>
      <point x="183.13604642337253" y="314"/>
      <point x="267.60014803851027" y="312"/>
      <point x="279.60014803851027" y="312" type="curve" smooth="yes"/>
      <point x="320.60014803851027" y="312"/>
      <point x="409.86809723094143" y="313"/>
      <point x="444.86809723094143" y="313" type="curve" smooth="yes"/>
      <point x="467.86809723094143" y="313"/>
      <point x="481.86809723094143" y="313"/>
      <point x="478.3847577293368" y="300" type="curve" smooth="yes"/>
      <point x="474.6334690353011" y="286"/>
      <point x="458.7052658050256" y="290"/>
      <point x="423.4373166125945" y="289" type="curve" smooth="yes"/>
      <point x="375.9014182277322" y="287"/>
      <point x="302.1693674201633" y="288"/>
      <point x="265.1693674201633" y="288" type="curve" smooth="yes"/>
      <point x="232.16936742016333" y="288"/>
      <point x="142.43731661259446" y="289"/>
      <point x="117.43731661259446" y="289" type="curve" smooth="yes"/>
      <point x="89.43731661259446" y="289"/>
      <point x="79.70526580502558" y="290"/>
    </contour>
  </outline>
</glyph>
<glyph name="period" format="2">
  <advance width="500.0"/>
  <unicode hex="002E"/>
  <anchor x="209.3782217350893" y="35.0" name="center"/>
  <outline>
    <contour>
      <point x="239.3782217350893" y="35" type="curve" smooth="yes"/>
      <point x="233.21539030917347" y="12"/>
      <point x="219.3397459621556" y="5"/>
      <point x="201.3397459621556" y="5" type="curve" smooth="yes"/>
      <point x="180.3397459621556" y="5"/>
      <point x="174.8230854637602" y="18"/>
      <point x="179.3782217350893" y="35" type="curve" smooth="yes"/>
      <point x="183.39745962155615" y="50"/>
      <point x="196.416697508023" y="65"/>
      <point x="217.416697508023" y="65" type="curve" smooth="yes"/>
      <point x="236.416697508023" y="65"/>
      <point x="243.66540881398726" y="51"/>
    </contour>
  </outline>
</glyph>
<glyph name="slash" format="2">
  <advance width="500.0"/>
  <unicode hex="002F"/>
  <outline>
    <contour>
      <point x="557.702873465092" y="652" type="curve" smooth="yes"/>
      <point x="569.0233815407807" y="642"/>
      <point x="558.6836355786252" y="637"/>
      <point x="528.7695154586736" y="600" type="curve" smooth="yes"/>
      <point x="443.9027994458369" y="496"/>
      <point x="438.6874091366634" y="484"/>
      <point x="289.1168085369057" y="299" type="curve" smooth="yes"/>
      <point x="142.88595389930362" y="119"/>
      <point x="153.0295474387526" y="127"/>
      <point x="46.12435565298214" y="-7" type="curve" smooth="yes"/>
      <point x="19.014083110323966" y="-41"/>
      <point x="13.262794416288244" y="-55"/>
      <point x="3.1384387633061124" y="-48" type="curve" smooth="yes"/>
      <point x="-13.91412011995154" y="-37"/>
      <point x="21.196152422706632" y="-3"/>
      <point x="44.69872981077807" y="25" type="curve" smooth="yes"/>
      <point x="49.03847577293368" y="30"/>
      <point x="123.76159824632146" y="126"/>
      <point x="274.60014803851027" y="312" type="curve" smooth="yes"/>
      <point x="455.0848687582195" y="534"/>
      <point x="470.3194969538598" y="561"/>
      <point x="524.7361944618829" y="626" type="curve" smooth="yes"/>
      <point x="531.8797880013318" y="634"/>
      <point x="550.5785178121098" y="659"/>
    </contour>
  </outline>
</glyph>
<glyph name="zero" format="2">
  <advance width="500.0"/>
  <unicode hex="0030"/>
  <anchor x="200.0" y="0.0" name="bottom"/>
  <anchor x="360.7695154586736" y="600.0" name="top"/>
  <outline>
    <contour>
      <point x="363.98490576784707" y="612" type="curve" smooth="yes"/>
      <point x="453.98490576784707" y="612"/>
      <point x="475.21437918734455" y="583.0"/>
      <point x="487.9220373323037" y="511.0" type="curve" smooth="yes"/>
      <point x="497.32842528804093" y="464.0"/>
      <point x="496.1796769724491" y="400.0"/>
      <point x="469.65270692176796" y="301.0" type="curve" smooth="yes"/>
      <point x="444.4654828332424" y="207.0"/>
      <point x="418.9769885554949" y="138.0"/>
      <point x="383.11542731880104" y="90.0" type="curve" smooth="yes"/>
      <point x="326.75128869403574" y="14.0"/>
      <point x="260.5166604983954" y="-13"/>
      <point x="197.5166604983954" y="-13" type="curve" smooth="yes"/>
      <point x="120.5166604983954" y="-13"/>
      <point x="97.60769515458674" y="6"/>
      <point x="75.54105316100512" y="58" type="curve" smooth="yes"/>
      <point x="54.4744111674235" y="110"/>
      <point x="61.910346561913315" y="190.0"/>
      <point x="91.65270692176793" y="301.0" type="curve" smooth="yes"/>
      <point x="123.00276243620928" y="418.0"/>
      <point x="163.63485025340574" y="495.0"/>
      <point x="217.76436068253074" y="544.0" type="curve" smooth="yes"/>
      <point x="266.8220743419313" y="589.0"/>
      <point x="310.98490576784707" y="612"/>
    </contour>
    <contour>
      <point x="359.16182030408686" y="594" type="curve" smooth="yes"/>
      <point x="307.16182030408686" y="594"/>
      <point x="278.5348872630333" y="573"/>
      <point x="234.35281795065063" y="535" type="curve" smooth="yes"/>
      <point x="185.09895186854348" y="493"/>
      <point x="143.46686405134705" y="416"/>
      <point x="112.38475772933681" y="300" type="curve" smooth="yes"/>
      <point x="83.44624494677555" y="192"/>
      <point x="73.95775066902809" y="123"/>
      <point x="98.07695154586736" y="60" type="curve" smooth="yes"/>
      <point x="112.62693304105358" y="21"/>
      <point x="137.14359353944897" y="8"/>
      <point x="203.14359353944897" y="8" type="curve" smooth="yes"/>
      <point x="257.143593539449" y="8"/>
      <point x="323.98591688967605" y="41"/>
      <point x="361.9910716658189" y="97" type="curve" smooth="yes"/>
      <point x="399.99622644196177" y="153"/>
      <point x="422.661635255949" y="204"/>
      <point x="448.3847577293368" y="300" type="curve" smooth="yes"/>
      <point x="478.3950672816226" y="412"/>
      <point x="474.7592059063879" y="488"/>
      <point x="459.0848687582195" y="534.0" type="curve" smooth="yes"/>
      <point x="442.6784808024823" y="581"/>
      <point x="423.16182030408686" y="594"/>
    </contour>
    <contour>
      <point x="87.41669750802298" y="65" type="line"/>
      <point x="469.0848687582195" y="534" type="line"/>
      <point x="471.11818975501035" y="508" type="line"/>
      <point x="95.7897644669694" y="44" type="line"/>
    </contour>
  </outline>
</glyph>
<glyph name="one" format="2">
  <advance width="500.0"/>
  <unicode hex="0031"/>
  <anchor x="204.0" y="0" name="bottom"/>
  <anchor x="363.7695154586736" y="600" name="top"/>
  <outline>
    <contour>
      <point x="350.14258241762" y="579" type="curve"/>
      <point x="329.1233445311532" y="564"/>
      <point x="280.7451227960639" y="529"/>
      <point x="255.18998652473482" y="512" type="curve" smooth="yes"/>
      <point x="224.56305348368124" y="491"/>
      <point x="194.93612044262767" y="470"/>
      <point x="180.52457771074756" y="461" type="curve" smooth="yes"/>
      <point x="149.43354305455622" y="442"/>
      <point x="145.897644669694" y="440"/>
      <point x="142.96944143941846" y="444" type="curve" smooth="yes"/>
      <point x="137.64893336372972" y="454"/>
      <point x="150.4527809410231" y="457"/>
      <point x="163.4002220577654" y="468" type="curve" smooth="yes"/>
      <point x="212.24254540799248" y="501"/>
      <point x="216.04639298528585" y="504"/>
      <point x="227.18998652473482" y="512" type="curve" smooth="yes"/>
      <point x="258.0848687582195" y="534"/>
      <point x="319.8746332251889" y="578"/>
      <point x="346.2336170738114" y="598" type="curve" smooth="yes"/>
      <point x="361.44900738298486" y="610"/>
      <point x="375.8413122283981" y="604"/>
      <point x="372.62592191922465" y="592" type="curve" smooth="yes"/>
      <point x="368.6066840327578" y="577"/>
      <point x="364.8553953387221" y="563"/>
      <point x="358.156665527944" y="538" type="curve" smooth="yes"/>
      <point x="339.66817125019656" y="469"/>
      <point x="346.9027994458369" y="496"/>
      <point x="301.0834875401149" y="325" type="curve" smooth="yes"/>
      <point x="279.64755214562507" y="245"/>
      <point x="247.83339501604596" y="130"/>
      <point x="216.7512886940357" y="14" type="curve"/>
      <point x="197.01923788646684" y="15" type="line"/>
      <point x="209.273103968574" y="57"/>
      <point x="265" y="265"/>
      <point x="276.4565544990613" y="304" type="curve" smooth="yes"/>
      <point x="303" y="395"/>
      <point x="325.58057311143375" y="487.3333333333333"/>
    </contour>
    <contour>
      <point x="12.607695154586736" y="6" type="curve" smooth="yes"/>
      <point x="15.555136271329083" y="17"/>
      <point x="23.287187078897965" y="16"/>
      <point x="41.82308546376021" y="18" type="curve" smooth="yes"/>
      <point x="74.62693304105358" y="21"/>
      <point x="173.62693304105358" y="21"/>
      <point x="213.62693304105358" y="21" type="curve" smooth="yes"/>
      <point x="250.62693304105358" y="21"/>
      <point x="317.3589838486225" y="20"/>
      <point x="375.0910346561913" y="19" type="curve" smooth="yes"/>
      <point x="396.8230854637602" y="18"/>
      <point x="403.5551362713291" y="17"/>
      <point x="401.6794919243112" y="10" type="curve" smooth="yes"/>
      <point x="398.46410161513774" y="-2"/>
      <point x="397.0" y="0"/>
      <point x="380.0" y="0" type="curve" smooth="yes"/>
      <point x="315.0" y="0"/>
      <point x="244.0" y="0"/>
      <point x="190.0" y="0" type="curve" smooth="yes"/>
      <point x="167.0" y="0"/>
      <point x="93.0" y="0"/>
      <point x="31.0" y="0" type="curve" smooth="yes"/>
      <point x="9.0" y="0"/>
      <point x="11.267949192431125" y="1"/>
    </contour>
  </outline>
</glyph>
<glyph name="two" format="2">
  <advance width="500.0"/>
  <unicode hex="0032"/>
  <anchor x="200.0" y="0.0" name="bottom"/>
  <anchor x="360.7695154586736" y="600.0" name="top"/>
  <outline>
    <contour>
      <point x="-7.392304845413264" y="6" type="curve" smooth="yes"/>
      <point x="7" y="60"/>
      <point x="250.26933041053576" y="210"/>
      <point x="313.2552473002118" y="251" type="curve" smooth="yes"/>
      <point x="429.88733511740827" y="328"/>
      <point x="453.5527439313955" y="379"/>
      <point x="475.52457771074756" y="461" type="curve" smooth="yes"/>
      <point x="489.4579357171659" y="513"/>
      <point x="456.62592191922465" y="592"/>
      <point x="345.62592191922465" y="592" type="curve" smooth="yes"/>
      <point x="283.62592191922465" y="592"/>
      <point x="229.24770018413534" y="557"/>
      <point x="198.4771736036328" y="528" type="curve" smooth="yes"/>
      <point x="171.04639298528585" y="504"/>
      <point x="174.17074863826798" y="497"/>
      <point x="162.17074863826798" y="497" type="curve" smooth="yes"/>
      <point x="150.4386978306991" y="498"/>
      <point x="159.72588490959706" y="514"/>
      <point x="163.52973248689042" y="517" type="curve" smooth="yes"/>
      <point x="198.17590341441084" y="553"/>
      <point x="256.30541384353586" y="602"/>
      <point x="335.71695657541596" y="611" type="curve" smooth="yes"/>
      <point x="429.93234688458944" y="623"/>
      <point x="519.7118017992731" y="555"/>
      <point x="493.7207301334542" y="458" type="curve" smooth="yes"/>
      <point x="473.8924898935511" y="384"/>
      <point x="440.60014803851027" y="312"/>
      <point x="353.86294245479854" y="257" type="curve" smooth="yes"/>
      <point x="197.06802321168627" y="157"/>
      <point x="47.27310396857399" y="57"/>
      <point x="17.823085463760208" y="18" type="curve"/>
      <point x="83.74131726545022" y="22.225180314043445"/>
      <point x="148.73743231509678" y="21"/>
      <point x="213.62693304105358" y="21" type="curve" smooth="yes"/>
      <point x="250.62693304105358" y="21"/>
      <point x="317.3589838486225" y="20"/>
      <point x="375.0910346561913" y="19" type="curve" smooth="yes"/>
      <point x="396.8230854637602" y="18"/>
      <point x="403.5551362713291" y="17"/>
      <point x="401.6794919243112" y="10" type="curve" smooth="yes"/>
      <point x="398.46410161513774" y="-2"/>
      <point x="397.0" y="0"/>
      <point x="380.0" y="0" type="curve" smooth="yes"/>
      <point x="315.0" y="0"/>
      <point x="244.0" y="0"/>
      <point x="190.0" y="0" type="curve" smooth="yes"/>
      <point x="167.0" y="0"/>
      <point x="73.0" y="0"/>
      <point x="11.0" y="0" type="curve" smooth="yes"/>
      <point x="4.893679390788982" y="0"/>
      <point x="-10" y="-3"/>
    </contour>
  </outline>
</glyph>
<glyph name="three" format="2">
  <advance width="500.0"/>
  <unicode hex="0033"/>
  <anchor x="200.0" y="0.0" name="bottom"/>
  <anchor x="360.7695154586736" y="600.0" name="top"/>
  <outline>
    <contour>
      <point x="387.13604642337253" y="314" type="curve"/>
      <point x="403.351436732546" y="326" type="line"/>
      <point x="440.6334690353011" y="286"/>
      <point x="448.1642126440205" y="232"/>
      <point x="414.9244296722373" y="149" type="curve" smooth="yes"/>
      <point x="357.87564434701784" y="7"/>
      <point x="258.1769145362398" y="-18"/>
      <point x="159.85640646055103" y="-8" type="curve" smooth="yes"/>
      <point x="89.73205080756887" y="-1"/>
      <point x="59.4833395016046" y="13"/>
      <point x="21.880799123160728" y="63" type="curve" smooth="yes"/>
      <point x="5.043630549076553" y="86"/>
      <point x="5.723122473387779" y="96"/>
      <point x="18.86671601283676" y="104" type="curve" smooth="yes"/>
      <point x="30.74236035985462" y="111"/>
      <point x="37.684646700454095" y="66"/>
      <point x="76.71796769724492" y="40" type="curve" smooth="yes"/>
      <point x="118.21539030917347" y="12"/>
      <point x="155.21539030917347" y="12"/>
      <point x="184.67949192431124" y="10" type="curve" smooth="yes"/>
      <point x="301.80384757729337" y="3"/>
      <point x="371.0961894323342" y="75"/>
      <point x="406.1590578678776" y="176" type="curve" smooth="yes"/>
      <point x="424.03985699103833" y="239"/>
      <point x="412.4373166125945" y="289"/>
    </contour>
    <contour>
      <point x="279.8821803412654" y="272" type="curve" smooth="yes"/>
      <point x="257.27448518667865" y="266"/>
      <point x="244.6667900320919" y="260"/>
      <point x="244.34628195640312" y="270" type="curve" smooth="yes"/>
      <point x="243.5616722655766" y="282"/>
      <point x="262.36551984286996" y="285"/>
      <point x="276.9014182277322" y="287" type="curve" smooth="yes"/>
      <point x="437.81553834768374" y="324"/>
      <point x="461.98352454974247" y="403"/>
      <point x="473.11303497886746" y="452" type="curve" smooth="yes"/>
      <point x="483.170748638268" y="497"/>
      <point x="494.8220743419313" y="589"/>
      <point x="355.16182030408686" y="594" type="curve" smooth="yes"/>
      <point x="315.429769496518" y="595"/>
      <point x="238.4630904933088" y="569"/>
      <point x="197.69256391280626" y="540" type="curve" smooth="yes"/>
      <point x="166.79768167932156" y="518"/>
      <point x="160.18998652473482" y="512"/>
      <point x="154.0656308717527" y="519" type="curve" smooth="yes"/>
      <point x="149.67332602633942" y="525"/>
      <point x="150.94127521877053" y="526"/>
      <point x="164.8887163355129" y="537" type="curve" smooth="yes"/>
      <point x="204.19514130087768" y="568"/>
      <point x="278.71695657541596" y="611"/>
      <point x="356.71695657541596" y="611" type="curve" smooth="yes"/>
      <point x="445.71695657541596" y="611"/>
      <point x="517.2669380706022" y="572"/>
      <point x="493.79252690317867" y="462" type="curve" smooth="yes"/>
      <point x="474.6578616979108" y="357"/>
      <point x="416.4565544990613" y="304"/>
    </contour>
  </outline>
</glyph>
<glyph name="four" format="2">
  <advance width="500.0"/>
  <unicode hex="0034"/>
  <anchor x="221.0" y="0.0" name="bottom"/>
  <anchor x="381.7695154586736" y="600.0" name="top"/>
  <outline>
    <contour>
      <point x="478.44900738298486" y="610" type="line"/>
      <point x="484.44900738298486" y="610"/>
      <point x="499.98490576784707" y="612"/>
      <point x="488.4630904933088" y="569" type="curve" smooth="yes"/>
      <point x="461.66817125019656" y="469"/>
      <point x="468.9027994458369" y="496"/>
      <point x="423.0834875401149" y="325" type="curve" smooth="yes"/>
      <point x="401.64755214562507" y="245"/>
      <point x="364.546207937148" y="114"/>
      <point x="343.11027254265815" y="34" type="curve" smooth="yes"/>
      <point x="332.9282032302755" y="-4"/>
      <point x="329.856406460551" y="-8"/>
      <point x="320.856406460551" y="-8" type="curve" smooth="yes"/>
      <point x="311.856406460551" y="-8"/>
      <point x="314.80384757729337" y="3"/>
      <point x="324.3782217350893" y="35" type="curve" smooth="yes"/>
      <point x="325.98591688967605" y="41"/>
      <point x="377.96806022131386" y="235"/>
      <point x="388.41807872612765" y="274" type="curve" smooth="yes"/>
      <point x="399.13604642337253" y="314"/>
      <point x="477.07078564789555" y="575"/>
      <point x="476.6977186889491" y="596" type="curve"/>
    </contour>
    <contour>
      <point x="56.470637609385264" y="263" type="curve" smooth="yes"/>
      <point x="59.1501295336965" y="273"/>
      <point x="70.13089164722966" y="258"/>
      <point x="92.13089164722966" y="258" type="curve" smooth="yes"/>
      <point x="120.13089164722966" y="258"/>
      <point x="197.6667900320919" y="260"/>
      <point x="237.6667900320919" y="260" type="curve" smooth="yes"/>
      <point x="274.6667900320919" y="260"/>
      <point x="387.2026884169542" y="262"/>
      <point x="435.2026884169542" y="262" type="curve" smooth="yes"/>
      <point x="477.2026884169542" y="262"/>
      <point x="484.4706376093853" y="263"/>
      <point x="480.9872981077807" y="250" type="curve" smooth="yes"/>
      <point x="478.5757553759006" y="241"/>
      <point x="467.37960295319397" y="244"/>
      <point x="440.1116537607628" y="243" type="curve" smooth="yes"/>
      <point x="385.5757553759006" y="241"/>
      <point x="283.8437045683317" y="242"/>
      <point x="229.57575537590057" y="241" type="curve" smooth="yes"/>
      <point x="206.57575537590057" y="241"/>
      <point x="144.57575537590057" y="241"/>
      <point x="90.30780618346945" y="240" type="curve" smooth="yes"/>
      <point x="58.30780618346945" y="240"/>
      <point x="51.37960295319394" y="244"/>
    </contour>
    <contour>
      <point x="73.6667900320919" y="260" type="curve"/>
      <point x="56.470637609385264" y="263" type="line"/>
      <point x="71.47579238552814" y="319"/>
      <point x="131.38991250547969" y="356"/>
      <point x="252.64893336372972" y="454" type="curve" smooth="yes"/>
      <point x="344.47717360363276" y="528"/>
      <point x="430.44900738298486" y="610"/>
      <point x="478.44900738298486" y="610" type="curve"/>
      <point x="476.6977186889491" y="596" type="line"/>
      <point x="435.3579727267935" y="591"/>
      <point x="322.027155098819" y="489"/>
      <point x="258.0937970924006" y="437" type="curve" smooth="yes"/>
      <point x="189.08864231625773" y="381"/>
      <point x="91.40399561580365" y="315"/>
    </contour>
  </outline>
</glyph>
<glyph name="five" format="2">
  <advance width="500.0"/>
  <unicode hex="0035"/>
  <anchor x="200.0" y="0.0" name="bottom"/>
  <anchor x="360.7695154586736" y="600.0" name="top"/>
  <outline>
    <contour>
      <point x="190.0182267646379" y="586" type="curve" smooth="yes"/>
      <point x="192.69771868894912" y="596"/>
      <point x="191.76951545867362" y="600"/>
      <point x="209.76951545867362" y="600" type="curve" smooth="yes"/>
      <point x="240.76951545867362" y="600"/>
      <point x="329.7695154586736" y="600"/>
      <point x="352.7695154586736" y="600" type="curve" smooth="yes"/>
      <point x="406.7695154586736" y="600"/>
      <point x="454.7695154586736" y="600"/>
      <point x="517.7695154586736" y="600" type="curve" smooth="yes"/>
      <point x="535.7695154586736" y="600"/>
      <point x="537.7695154586736" y="600"/>
      <point x="535.6259219192247" y="592" type="curve" smooth="yes"/>
      <point x="532.4105316100512" y="580"/>
      <point x="526.2143791873445" y="583"/>
      <point x="502.9464299949134" y="582" type="curve" smooth="yes"/>
      <point x="445.6784808024823" y="581"/>
      <point x="387.9464299949134" y="582"/>
      <point x="350.9464299949134" y="582" type="curve" smooth="yes"/>
      <point x="310.9464299949134" y="582"/>
      <point x="211.67848080248228" y="581"/>
      <point x="199.94642999491342" y="582" type="curve" smooth="yes"/>
      <point x="195.94642999491342" y="582"/>
      <point x="187.60668403275778" y="577"/>
    </contour>
    <contour>
      <point x="439.44624494677555" y="192" type="curve" smooth="yes"/>
      <point x="471.86809723094143" y="313"/>
      <point x="405.0694044297909" y="366"/>
      <point x="295.0694044297909" y="366" type="curve" smooth="yes"/>
      <point x="251.0694044297909" y="366"/>
      <point x="163.97836977359958" y="347"/>
      <point x="138.1745221963062" y="344" type="curve"/>
      <point x="145.0694044297909" y="366" type="line"/>
      <point x="169.8014552373598" y="365"/>
      <point x="260.16043908598226" y="385"/>
      <point x="299.16043908598226" y="385" type="curve" smooth="yes"/>
      <point x="430.56158005584314" y="385"/>
      <point x="492.8499330406882" y="320.3963119342345"/>
      <point x="456.3026514073266" y="184" type="curve" smooth="yes"/>
      <point x="417.1820693123827" y="38"/>
      <point x="279.856406460551" y="-8"/>
      <point x="169.85640646055103" y="-8" type="curve" smooth="yes"/>
      <point x="97.85640646055103" y="-8"/>
      <point x="45.306424965364805" y="31"/>
      <point x="23.096189432334203" y="75" type="curve" smooth="yes"/>
      <point x="5.742360359854619" y="111"/>
      <point x="14.278258744716865" y="113"/>
      <point x="21.082106322010233" y="116" type="curve" smooth="yes"/>
      <point x="33.68980147659697" y="122"/>
      <point x="33.259020858250025" y="98"/>
      <point x="46.43593539448982" y="80" type="curve" smooth="yes"/>
      <point x="92.35898384862246" y="20"/>
      <point x="141.21539030917347" y="12"/>
      <point x="188.21539030917347" y="12" type="curve" smooth="yes"/>
      <point x="294.2153903091735" y="12"/>
      <point x="405.6846467004541" y="66"/>
    </contour>
    <contour>
      <point x="190.0182267646379" y="586" type="curve"/>
      <point x="210.28617595706902" y="587" type="line"/>
      <point x="209.14258241762005" y="579"/>
      <point x="200.9797509917042" y="556"/>
      <point x="192.67332602633942" y="525" type="curve" smooth="yes"/>
      <point x="181.41945994423227" y="483"/>
      <point x="161.66301647405368" y="413"/>
      <point x="151.0694044297909" y="366" type="curve" smooth="yes"/>
      <point x="148.58606492818632" y="353"/>
      <point x="147.44247138873732" y="345"/>
      <point x="138.1745221963062" y="344" type="curve" smooth="yes"/>
      <point x="127.90657300387508" y="343"/>
      <point x="128.6578616979108" y="357"/>
      <point x="135.08864231625773" y="381" type="curve" smooth="yes"/>
      <point x="145.80661001350265" y="421"/>
      <point x="156.18483174859193" y="456"/>
      <point x="164.2951042912501" y="490" type="curve" smooth="yes"/>
      <point x="171.79768167932156" y="518"/>
      <point x="183.78359856899758" y="559"/>
    </contour>
  </outline>
</glyph>
<glyph name="six" format="2">
  <advance width="500.0"/>
  <unicode hex="0036"/>
  <anchor x="200.0" y="0.0" name="bottom"/>
  <anchor x="380.7695154586736" y="600.0" name="top"/>
  <outline>
    <contour>
      <point x="85.50395860617607" y="237" type="curve" smooth="yes"/>
      <point x="120.41430516808938" y="427"/>
      <point x="233.44385260684197" y="554"/>
      <point x="371.6784808024823" y="581" type="curve" smooth="yes"/>
      <point x="420.0900235343624" y="590"/>
      <point x="477.9656678813802" y="597"/>
      <point x="507.10410664468634" y="549" type="curve" smooth="yes"/>
      <point x="519.9412752187706" y="526"/>
      <point x="520.9220373323037" y="511"/>
      <point x="531.7258849095971" y="514" type="curve" smooth="yes"/>
      <point x="541.5297324868905" y="517"/>
      <point x="545.2092244112016" y="527"/>
      <point x="525.0515477614288" y="560" type="curve" smooth="yes"/>
      <point x="489.52080415270933" y="614"/>
      <point x="436.98490576784707" y="612"/>
      <point x="362.2336170738114" y="598" type="curve" smooth="yes"/>
      <point x="243.26693807060218" y="572"/>
      <point x="112.86432367290318" y="466"/>
      <point x="67.64755214562506" y="245" type="curve" smooth="yes"/>
      <point x="49.53212482682402" y="155"/>
      <point x="63.84747812636992" y="89"/>
      <point x="85.52181527453828" y="43" type="curve" smooth="yes"/>
      <point x="109.12435565298213" y="-7"/>
      <point x="164.5166604983954" y="-13.0"/>
      <point x="197.5166604983954" y="-13.0" type="curve" smooth="yes"/>
      <point x="284.5166604983954" y="-13.0"/>
      <point x="414.5987668204056" y="103"/>
      <point x="441.661635255949" y="204.0" type="curve" smooth="yes"/>
      <point x="463.6334690353011" y="286"/>
      <point x="432.01684554653326" y="377.0"/>
      <point x="292.01684554653326" y="377.0" type="curve" smooth="yes"/>
      <point x="269.01684554653326" y="377.0"/>
      <point x="163.33735362222203" y="367"/>
      <point x="85.1501295336965" y="273" type="curve"/>
      <point x="76.64755214562506" y="245" type="line"/>
      <point x="171.58606492818632" y="353"/>
      <point x="256.92581089034195" y="358"/>
      <point x="298.6578616979108" y="357" type="curve" smooth="yes"/>
      <point x="423.1219633130486" y="355"/>
      <point x="441.2026884169542" y="262"/>
      <point x="425.1975336408113" y="206" type="curve" smooth="yes"/>
      <point x="402.02954743875256" y="127"/>
      <point x="287.60769515458674" y="6"/>
      <point x="201.60769515458674" y="6" type="curve" smooth="yes"/>
      <point x="67.60769515458674" y="6"/>
      <point x="72.13981998141075" y="161"/>
    </contour>
  </outline>
</glyph>
<glyph name="seven" format="2">
  <advance width="500.0"/>
  <unicode hex="0037"/>
  <anchor x="193.0" y="0.0" name="bottom"/>
  <anchor x="353.7695154586736" y="600.0" name="top"/>
  <outline>
    <contour>
      <point x="538.286175957069" y="587" type="curve"/>
      <point x="555.6784808024822" y="581" type="line"/>
      <point x="526.3861389474414" y="509"/>
      <point x="406.62454070112" y="383"/>
      <point x="318.1693674201633" y="288" type="curve" smooth="yes"/>
      <point x="239.66163525594902" y="204"/>
      <point x="193.4744111674235" y="110"/>
      <point x="163.2346281956403" y="27" type="curve" smooth="yes"/>
      <point x="152.53589838486224" y="2"/>
      <point x="155.32050807568876" y="-10"/>
      <point x="141.32050807568876" y="-10" type="curve" smooth="yes"/>
      <point x="124.32050807568876" y="-10"/>
      <point x="133.14359353944897" y="8"/>
      <point x="139.43078061834694" y="24" type="curve" smooth="yes"/>
      <point x="193.28341352085974" y="169"/>
      <point x="257.2552473002118" y="251"/>
      <point x="357.3899125054797" y="356" type="curve" smooth="yes"/>
      <point x="429.754051130245" y="432"/>
      <point x="497.4579357171659" y="513"/>
    </contour>
    <contour>
      <point x="555.6784808024822" y="581" type="curve" smooth="yes"/>
      <point x="550.4630904933088" y="569"/>
      <point x="552.9989888781711" y="571"/>
      <point x="529.3387348403267" y="576" type="curve" smooth="yes"/>
      <point x="497.21437918734455" y="583"/>
      <point x="432.8746332251889" y="578"/>
      <point x="392.6066840327578" y="577" type="curve" smooth="yes"/>
      <point x="355.07078564789555" y="575"/>
      <point x="224.87463322518892" y="578"/>
      <point x="176.41053161005115" y="580" type="curve" smooth="yes"/>
      <point x="159.67848080248228" y="581"/>
      <point x="155.5348872630333" y="573"/>
      <point x="157.94642999491342" y="582" type="curve" smooth="yes"/>
      <point x="160.62592191922462" y="592"/>
      <point x="175.03746465110473" y="601"/>
      <point x="201.5015662662425" y="599" type="curve" smooth="yes"/>
      <point x="252.69771868894912" y="596"/>
      <point x="326.429769496518" y="595"/>
      <point x="380.6977186889491" y="596" type="curve" smooth="yes"/>
      <point x="431.2336170738114" y="598"/>
      <point x="471.03746465110476" y="601"/>
      <point x="522.2336170738114" y="598" type="curve" smooth="yes"/>
      <point x="556.6977186889492" y="596"/>
      <point x="559.3579727267935" y="591"/>
    </contour>
    <contour>
      <point x="112.59121970432918" y="409" type="curve" smooth="yes"/>
      <point x="107.59121970432918" y="409"/>
      <point x="108.53866082107153" y="420"/>
      <point x="120.57713659400521" y="450" type="curve" smooth="yes"/>
      <point x="132.68740913666338" y="484"/>
      <point x="143.20922441120166" y="527"/>
      <point x="157.94642999491342" y="582" type="curve"/>
      <point x="180.0900235343624" y="590" type="line"/>
      <point x="170.85539533872208" y="563"/>
      <point x="158.70664702313022" y="499"/>
      <point x="138.50533982428072" y="446" type="curve" smooth="yes"/>
      <point x="129.07455920593378" y="422"/>
      <point x="128.05532131946694" y="407"/>
    </contour>
  </outline>
</glyph>
<glyph name="eight" format="2">
  <advance width="500.0"/>
  <unicode hex="0038"/>
  <anchor x="200.0" y="0.0" name="bottom"/>
  <anchor x="360.7695154586736" y="600.0" name="top"/>
  <outline>
    <contour>
      <point x="369.3246517300027" y="617" type="curve" smooth="yes"/>
      <point x="402.3246517300027" y="617"/>
      <point x="456.1810581905537" y="609"/>
      <point x="488.33873484032665" y="576.0" type="curve" smooth="yes"/>
      <point x="507.7118017992731" y="555"/>
      <point x="521.0130719884951" y="530"/>
      <point x="507.88356155937004" y="481" type="curve" smooth="yes"/>
      <point x="493.14635597565825" y="426"/>
      <point x="461.33735362222205" y="367"/>
      <point x="360.7629794644261" y="335" type="curve"/>
      <point x="304.78221735089295" y="350" type="line"/>
      <point x="380.78221735089295" y="350"/>
      <point x="459.4091503919465" y="371"/>
      <point x="489.41945994423224" y="483" type="curve" smooth="yes"/>
      <point x="513.5348872630333" y="573"/>
      <point x="426.2336170738114" y="598"/>
      <point x="367.2336170738114" y="598" type="curve" smooth="yes"/>
      <point x="295.2336170738114" y="598"/>
      <point x="199.83615745225524" y="548"/>
      <point x="175.4527809410231" y="457" type="curve" smooth="yes"/>
      <point x="149.99760766006642" y="362"/>
      <point x="224.78221735089295" y="350"/>
      <point x="304.78221735089295" y="350" type="curve" smooth="yes"/>
      <point x="380.78221735089295" y="350"/>
      <point x="412.9783697735996" y="347"/>
      <point x="443.74374157795927" y="320" type="curve" smooth="yes"/>
      <point x="473.77706257475006" y="294"/>
      <point x="474.5757553759006" y="241.0"/>
      <point x="460.6423973694822" y="189.0" type="curve" smooth="yes"/>
      <point x="444.5654458236148" y="129.0"/>
      <point x="416.43593539448983" y="80"/>
      <point x="377.5936120442628" y="47" type="curve" smooth="yes"/>
      <point x="333.4115427318801" y="9"/>
      <point x="267.71281292110206" y="-16"/>
      <point x="190.71281292110203" y="-16" type="curve" smooth="yes"/>
      <point x="107.71281292110203" y="-16"/>
      <point x="7.59361204426277" y="47.0"/>
      <point x="41.62315948301535" y="174.0" type="curve" smooth="yes"/>
      <point x="59.30780618346945" y="240.0"/>
      <point x="134.7629794644261" y="335.0"/>
      <point x="234.37067461901285" y="341.0" type="curve"/>
      <point x="315.22708107956385" y="333" type="line"/>
      <point x="158.97836977359958" y="347"/>
      <point x="80.30780618346945" y="240"/>
      <point x="62.08726109815311" y="172" type="curve" smooth="yes"/>
      <point x="44.13466520526788" y="105"/>
      <point x="66.07695154586736" y="60"/>
      <point x="94.91412011995155" y="37" type="curve" smooth="yes"/>
      <point x="137.0717967697245" y="4"/>
      <point x="196.80384757729337" y="3"/>
      <point x="196.80384757729337" y="3" type="curve" smooth="yes"/>
      <point x="261.80384757729337" y="3"/>
      <point x="322.28718707889794" y="16"/>
      <point x="378.0243926626097" y="71" type="curve" smooth="yes"/>
      <point x="416.20646197499235" y="109"/>
      <point x="430.99622644196177" y="153"/>
      <point x="440.10649898462" y="187" type="curve" smooth="yes"/>
      <point x="471.72450369149243" y="305"/>
      <point x="422.22708107956385" y="333"/>
      <point x="315.22708107956385" y="333" type="curve" smooth="yes"/>
      <point x="156.22708107956385" y="333"/>
      <point x="133.1412011995154" y="370"/>
      <point x="155.64893336372972" y="454.0" type="curve" smooth="yes"/>
      <point x="184.85539533872208" y="563"/>
      <point x="282.3246517300027" y="617"/>
    </contour>
  </outline>
</glyph>
<glyph name="nine" format="2">
  <advance width="500.0"/>
  <unicode hex="0039"/>
  <anchor x="200.0" y="0.0" name="bottom"/>
  <anchor x="372.7695154586736" y="600.0" name="top"/>
  <outline>
    <contour>
      <point x="465.2988778492884" y="337" type="curve" smooth="yes"/>
      <point x="445.54243437910975" y="267"/>
      <point x="387.8911086754465" y="175"/>
      <point x="196.77052658050258" y="29" type="curve" smooth="yes"/>
      <point x="169.14359353944897" y="8"/>
      <point x="156.0" y="0"/>
      <point x="161.85640646055103" y="-8" type="curve" smooth="yes"/>
      <point x="166.98076211353316" y="-15"/>
      <point x="173.05255888325766" y="-11.0"/>
      <point x="212.35898384862247" y="20.0" type="curve" smooth="yes"/>
      <point x="339.9577506690281" y="123.0"/>
      <point x="449.68087314241586" y="219.0"/>
      <point x="479.1552843098394" y="329.0" type="curve" smooth="yes"/>
      <point x="506.754051130245" y="432.0"/>
      <point x="491.170748638268" y="497"/>
      <point x="476.9605131052374" y="541" type="curve" smooth="yes"/>
      <point x="464.6066840327578" y="577"/>
      <point x="437.6451598056915" y="607"/>
      <point x="403.1810581905537" y="609.0" type="curve" smooth="yes"/>
      <point x="262.0567025375716" y="616"/>
      <point x="154.07971398207664" y="478"/>
      <point x="136.14635597565825" y="426.0" type="curve" smooth="yes"/>
      <point x="110.58606492818632" y="353"/>
      <point x="74.21677152727811" y="221"/>
      <point x="213.6090763726914" y="215.0" type="curve" smooth="yes"/>
      <point x="252.07317798782913" y="213"/>
      <point x="418.50395860617607" y="237"/>
      <point x="481.1412011995154" y="370" type="curve"/>
      <point x="483.78737212703584" y="406" type="line"/>
      <point x="429.2026884169542" y="262"/>
      <point x="263.7001110288827" y="234"/>
      <point x="224.7001110288827" y="234" type="curve" smooth="yes"/>
      <point x="100.96806022131383" y="235"/>
      <point x="130.6578616979108" y="357"/>
      <point x="149.1271180891914" y="411" type="curve" smooth="yes"/>
      <point x="187.13742764147716" y="523"/>
      <point x="325.9131089981226" y="608"/>
      <point x="405.3579727267935" y="591" type="curve" smooth="yes"/>
      <point x="480.07078564789555" y="575"/>
      <point x="486.8591688967603" y="410"/>
    </contour>
  </outline>
</glyph>
<glyph name="less" format="2">
  <advance width="500.0"/>
  <unicode hex="003C"/>
  <outline>
    <contour>
      <point x="86.38475772933681" y="300" type="curve"/>
      <point x="94.38475772933681" y="300"/>
      <point x="118.5616722655766" y="282"/>
      <point x="130.34628195640312" y="270" type="curve" smooth="yes"/>
      <point x="161.37960295319394" y="244"/>
      <point x="218.98214333163781" y="194"/>
      <point x="229.30265140732658" y="184" type="curve" smooth="yes"/>
      <point x="250.40776917384187" y="162"/>
      <point x="333.84747812636994" y="89"/>
      <point x="364.07695154586736" y="60" type="curve" smooth="yes"/>
      <point x="384.4500185048138" y="39"/>
      <point x="409.2346281956403" y="27"/>
      <point x="390.4115427318801" y="9" type="curve" smooth="yes"/>
      <point x="376.9282032302755" y="-4"/>
      <point x="370.4833395016046" y="13"/>
      <point x="355.9666790032092" y="26" type="curve" smooth="yes"/>
      <point x="334.52181527453826" y="43"/>
      <point x="237.90519178577046" y="134"/>
      <point x="217.53212482682403" y="155" type="curve" smooth="yes"/>
      <point x="211.13981998141077" y="161"/>
      <point x="121.57575537590057" y="241"/>
      <point x="88.61423114883425" y="271" type="curve" smooth="yes"/>
      <point x="75.36551984286997" y="285"/>
      <point x="61.16936742016334" y="288"/>
      <point x="64.38475772933681" y="300" type="curve" smooth="yes"/>
      <point x="67.60014803851028" y="312"/>
      <point x="83.40399561580365" y="315"/>
      <point x="104.15528430983937" y="329" type="curve" smooth="yes"/>
      <point x="153.19376008277305" y="359"/>
      <point x="285.6296954772629" y="439"/>
      <point x="295.2373906318496" y="445" type="curve" smooth="yes"/>
      <point x="326.8643236729032" y="466"/>
      <point x="472.24770018413534" y="557"/>
      <point x="502.80283645546444" y="574" type="curve" smooth="yes"/>
      <point x="524.286175957069" y="587"/>
      <point x="539.8413122283981" y="604"/>
      <point x="546.3579727267935" y="591" type="curve" smooth="yes"/>
      <point x="555.5348872630333" y="573"/>
      <point x="524.3194969538598" y="561"/>
      <point x="492.69256391280624" y="540" type="curve" smooth="yes"/>
      <point x="446.9220373323037" y="511"/>
      <point x="324.6296954772629" y="439"/>
      <point x="291.73481324377815" y="417" type="curve" smooth="yes"/>
      <point x="276.05532131946694" y="407"/>
      <point x="191.92581089034192" y="358"/>
      <point x="147.6911826947016" y="331" type="curve" smooth="yes"/>
      <point x="128.74374157795927" y="320"/>
      <point x="94.38475772933681" y="300"/>
    </contour>
  </outline>
</glyph>
<glyph name="equal" format="2">
  <advance width="500.0"/>
  <unicode hex="003D"/>
  <outline>
    <contour>
      <point x="89.17967697244907" y="400" type="curve" smooth="yes"/>
      <point x="91.85916889676031" y="410"/>
      <point x="105.39506728162254" y="412"/>
      <point x="134.39506728162254" y="412" type="curve" smooth="yes"/>
      <point x="186.39506728162254" y="412"/>
      <point x="294.1271180891914" y="411"/>
      <point x="306.1271180891914" y="411" type="curve" smooth="yes"/>
      <point x="339.1271180891914" y="411"/>
      <point x="459.6630164740537" y="413"/>
      <point x="491.1271180891914" y="411" type="curve" smooth="yes"/>
      <point x="514.1271180891914" y="411"/>
      <point x="528.3950672816226" y="412"/>
      <point x="525.1796769724491" y="400" type="curve" smooth="yes"/>
      <point x="521.4283882784134" y="386"/>
      <point x="504.96428666327563" y="388"/>
      <point x="469.96428666327563" y="388" type="curve" smooth="yes"/>
      <point x="422.69633747084447" y="387"/>
      <point x="328.96428666327563" y="388"/>
      <point x="291.69633747084447" y="387" type="curve" smooth="yes"/>
      <point x="260.69633747084447" y="387"/>
      <point x="141.42838827841337" y="386"/>
      <point x="123.9642866632756" y="388" type="curve" smooth="yes"/>
      <point x="96.76813424056897" y="391"/>
      <point x="86.50018504813785" y="390"/>
    </contour>
    <contour>
      <point x="35.58983848622454" y="200" type="curve" smooth="yes"/>
      <point x="38.269330410535765" y="210"/>
      <point x="52.07317798782913" y="213"/>
      <point x="81.07317798782913" y="213" type="curve" smooth="yes"/>
      <point x="133.07317798782913" y="213"/>
      <point x="240.80522879539802" y="212"/>
      <point x="252.80522879539802" y="212" type="curve" smooth="yes"/>
      <point x="285.805228795398" y="212"/>
      <point x="406.3411271802603" y="214"/>
      <point x="437.805228795398" y="212" type="curve" smooth="yes"/>
      <point x="460.805228795398" y="212"/>
      <point x="474.805228795398" y="212"/>
      <point x="471.58983848622455" y="200" type="curve" smooth="yes"/>
      <point x="468.10649898462" y="187"/>
      <point x="451.6423973694822" y="189"/>
      <point x="416.6423973694822" y="189" type="curve" smooth="yes"/>
      <point x="369.3744481770511" y="188"/>
      <point x="275.6423973694822" y="189"/>
      <point x="238.37444817705108" y="188" type="curve" smooth="yes"/>
      <point x="207.37444817705108" y="188"/>
      <point x="88.10649898461995" y="187"/>
      <point x="70.64239736948218" y="189" type="curve" smooth="yes"/>
      <point x="43.44624494677556" y="192"/>
      <point x="32.910346561913315" y="190"/>
    </contour>
  </outline>
</glyph>
<glyph name="question" format="2">
  <advance width="500.0"/>
  <unicode hex="003F"/>
  <outline>
    <contour>
      <point x="265.06424965364806" y="310" type="curve" smooth="yes"/>
      <point x="287.13604642337253" y="314"/>
      <point x="300.6719448082348" y="316"/>
      <point x="317.47579238552817" y="319" type="curve" smooth="yes"/>
      <point x="388.22708107956385" y="333"/>
      <point x="470.01684554653326" y="377"/>
      <point x="484.43354305455625" y="442" type="curve" smooth="yes"/>
      <point x="508.56820825982413" y="547"/>
      <point x="440.62592191922465" y="592"/>
      <point x="381.429769496518" y="595" type="curve" smooth="yes"/>
      <point x="312.5015662662425" y="599"/>
      <point x="251.26693807060218" y="572"/>
      <point x="235.1233445311532" y="564" type="curve" smooth="yes"/>
      <point x="218.9797509917042" y="556"/>
      <point x="220.94127521877053" y="526"/>
      <point x="204.3335800641838" y="520" type="curve" smooth="yes"/>
      <point x="192.26178329445932" y="516"/>
      <point x="187.79768167932156" y="518"/>
      <point x="185.3335800641838" y="520" type="curve" smooth="yes"/>
      <point x="174.4771736036328" y="528"/>
      <point x="178.17590341441084" y="553"/>
      <point x="217.60668403275778" y="577" type="curve" smooth="yes"/>
      <point x="245.429769496518" y="595"/>
      <point x="305.5926009224338" y="618"/>
      <point x="388.98490576784707" y="612" type="curve" smooth="yes"/>
      <point x="502.1092614208292" y="605"/>
      <point x="529.1899865247349" y="512"/>
      <point x="505.3617462848317" y="438" type="curve" smooth="yes"/>
      <point x="477.46170927520416" y="360"/>
      <point x="422.8347762341506" y="339"/>
      <point x="384.27963996282153" y="322" type="curve" smooth="yes"/>
      <point x="347.99245288392353" y="306"/>
      <point x="302.0450117671812" y="295"/>
      <point x="269.50911338231896" y="293" type="curve"/>
      <point x="263.6142311488343" y="271"/>
      <point x="262.2552473002118" y="251"/>
      <point x="259.23600941374497" y="236" type="curve" smooth="yes"/>
      <point x="251.25009252406892" y="195"/>
      <point x="267.26417563439287" y="154"/>
      <point x="241.99622644196177" y="153" type="curve" smooth="yes"/>
      <point x="227.72827724953066" y="152"/>
      <point x="235.32188929379342" y="199"/>
      <point x="237.75266991214036" y="223" type="curve" smooth="yes"/>
      <point x="239.30780618346944" y="240"/>
      <point x="243.47063760938528" y="263"/>
      <point x="245.2937230731455" y="281" type="curve" smooth="yes"/>
      <point x="247.4565544990613" y="304"/>
      <point x="253.5283512687858" y="308"/>
    </contour>
    <component base="period"/>
  </outline>
</glyph>
<glyph name="at" format="2">
  <advance width="500.0"/>
  <unicode hex="0040"/>
  <outline>
    <contour>
      <point x="348.2308546376021" y="180" type="curve" smooth="yes"/>
      <point x="322.73343202567355" y="208"/>
      <point x="339.74374157795927" y="320"/>
      <point x="375.9502035529516" y="429" type="curve"/>
      <point x="246.93612044262767" y="470"/>
      <point x="207.95913188713274" y="332"/>
      <point x="191.27448518667865" y="266" type="curve" smooth="yes"/>
      <point x="179.34112718026026" y="214"/>
      <point x="178.72827724953066" y="152"/>
      <point x="234.72827724953066" y="152" type="curve" smooth="yes"/>
      <point x="273.72827724953066" y="152"/>
      <point x="330.03985699103833" y="239"/>
      <point x="350.40399561580364" y="315" type="curve"/>
      <point x="342.3270440699363" y="255" type="line"/>
      <point x="303.55136271329087" y="170"/>
      <point x="264.6372425933393" y="133"/>
      <point x="232.63724259333932" y="133" type="curve" smooth="yes"/>
      <point x="198.63724259333932" y="133"/>
      <point x="138.4410901706327" y="136"/>
      <point x="178.02577388071435" y="280" type="curve" smooth="yes"/>
      <point x="201.0694044297909" y="366"/>
      <point x="228.80661001350265" y="421"/>
      <point x="297.96944143941846" y="444" type="curve" smooth="yes"/>
      <point x="347.25662851831646" y="460"/>
      <point x="367.041238209143" y="448"/>
      <point x="386.2373906318496" y="445" type="curve" smooth="yes"/>
      <point x="400.70149224698736" y="443"/>
      <point x="396.754051130245" y="432"/>
      <point x="390.19891485891594" y="415" type="curve" smooth="yes"/>
      <point x="374.67709958437763" y="372"/>
      <point x="372.5860649281863" y="353"/>
      <point x="362.99245288392353" y="306" type="curve" smooth="yes"/>
      <point x="347.89626345158933" y="231"/>
      <point x="352.03470221489545" y="183"/>
      <point x="386.03470221489545" y="183" type="curve" smooth="yes"/>
      <point x="405.03470221489545" y="183"/>
      <point x="425.0539401013623" y="198"/>
      <point x="449.0590948775052" y="254" type="curve" smooth="yes"/>
      <point x="505.23223585570673" y="389"/>
      <point x="545.2336170738114" y="598"/>
      <point x="387.9656678813802" y="597" type="curve" smooth="yes"/>
      <point x="228.69771868894912" y="596"/>
      <point x="135.07971398207664" y="478"/>
      <point x="86.36551984286997" y="285" type="curve" smooth="yes"/>
      <point x="64.32188929379342" y="199"/>
      <point x="46.61800470687248" y="118"/>
      <point x="60.43593539448982" y="80" type="curve" smooth="yes"/>
      <point x="88.0717967697245" y="4"/>
      <point x="198.53589838486224" y="2"/>
      <point x="236.60769515458674" y="6" type="curve" smooth="yes"/>
      <point x="254.14359353944897" y="8"/>
      <point x="298.6269330410536" y="21"/>
      <point x="297.94744111674237" y="11.0" type="curve" smooth="yes"/>
      <point x="296.66025403784437" y="-5"/>
      <point x="274.5884572681199" y="-9.0"/>
      <point x="263.05255888325763" y="-11.0" type="curve" smooth="yes"/>
      <point x="203.90896534380866" y="-19.0"/>
      <point x="78.83716857408417" y="-23.0"/>
      <point x="44.14874831559185" y="64.0" type="curve" smooth="yes"/>
      <point x="23.350055514441355" y="117.0"/>
      <point x="38.230854637602086" y="180.0"/>
      <point x="67.97321499745671" y="291.0" type="curve" smooth="yes"/>
      <point x="110.38098417129858" y="453.0"/>
      <point x="164.72588490959706" y="514"/>
      <point x="221.0515477614287" y="560" type="curve" smooth="yes"/>
      <point x="272.30541384353586" y="602"/>
      <point x="335.0567025375716" y="616"/>
      <point x="394.0567025375716" y="616.0" type="curve" smooth="yes"/>
      <point x="484.0567025375716" y="616"/>
      <point x="508.4630904933088" y="569.0"/>
      <point x="516.9027994458369" y="496.0" type="curve" smooth="yes"/>
      <point x="521.7732890167118" y="447.0"/>
      <point x="514.8732520070843" y="369.0"/>
      <point x="475.6142311488343" y="271.0" type="curve" smooth="yes"/>
      <point x="449.5372796029669" y="211.0"/>
      <point x="428.8385497921888" y="186"/>
      <point x="416.1590578678776" y="176" type="curve" smooth="yes"/>
      <point x="394.94366755870413" y="164"/>
      <point x="368.80007401925513" y="156"/>
    </contour>
  </outline>
</glyph>
<glyph name="A" format="2">
  <advance width="500.0"/>
  <unicode hex="0041"/>
  <anchor x="367.7695154586736" y="600.0" name="top"/>
  <anchor x="2.856406460551021" y="-8" name="cedilla"/>
  <anchor x="388.856406460551" y="-8" name="ogonek"/>
  <anchor x="200.0" y="0.0" name="bottom"/>
  <outline>
    <contour>
      <point x="2.856406460551021" y="-8" type="curve" smooth="yes"/>
      <point x="-8.143593539448979" y="-8"/>
      <point x="-5.392304845413264" y="6"/>
      <point x="6.129510429125013" y="49" type="curve" smooth="yes"/>
      <point x="75.92065611419905" y="302"/>
      <point x="169.8258478999695" y="436"/>
      <point x="238.9938341020282" y="515" type="curve" smooth="yes"/>
      <point x="295.9464299949134" y="582"/>
      <point x="330.44900738298486" y="610"/>
      <point x="376.1810581905537" y="609" type="curve" smooth="yes"/>
      <point x="408.1810581905537" y="609"/>
      <point x="442.5541251495001" y="588"/>
      <point x="455.2284622976685" y="542" type="curve" smooth="yes"/>
      <point x="472.6156123669389" y="480"/>
      <point x="480.42838827841337" y="386"/>
      <point x="447.661635255949" y="204" type="curve" smooth="yes"/>
      <point x="436.3692934009082" y="132"/>
      <point x="419.07695154586736" y="60"/>
      <point x="411.57437415779594" y="32" type="curve" smooth="yes"/>
      <point x="404.33974596215563" y="5"/>
      <point x="403.5884572681199" y="-9"/>
      <point x="388.856406460551" y="-8" type="curve" smooth="yes"/>
      <point x="375.856406460551" y="-8"/>
      <point x="376.39230484541326" y="-6"/>
      <point x="387.84232335022705" y="33" type="curve" smooth="yes"/>
      <point x="403.04363054907657" y="86"/>
      <point x="427.0539401013623" y="198"/>
      <point x="443.69118269470164" y="331" type="curve" smooth="yes"/>
      <point x="459.18483174859193" y="456"/>
      <point x="451" y="591"/>
      <point x="367" y="590" type="curve" smooth="yes"/>
      <point x="313" y="590"/>
      <point x="196.3091874015741" y="449"/>
      <point x="134.6911826947016" y="331" type="curve" smooth="yes"/>
      <point x="91.45139972291842" y="248"/>
      <point x="57.211616751135246" y="165"/>
      <point x="24.842323350227048" y="33" type="curve" smooth="yes"/>
      <point x="16.196152422706632" y="-3"/>
      <point x="14.856406460551021" y="-8"/>
    </contour>
    <contour>
      <point x="448.18860530663017" y="303" type="curve"/>
      <point x="448.09757065043885" y="284" type="line"/>
      <point x="355.09757065043885" y="284"/>
      <point x="160.2937230731455" y="281"/>
      <point x="100.09757065043884" y="284" type="curve"/>
      <point x="114.4565544990613" y="304" type="line"/>
      <point x="199.92065611419906" y="302"/>
      <point x="366.18860530663017" y="303"/>
    </contour>
  </outline>
</glyph>
<glyph name="B" format="2">
  <advance width="500.0"/>
  <unicode hex="0042"/>
  <anchor x="321.7695154586736" y="600.0" name="top"/>
  <anchor x="131.78460969082653" y="-12" name="cedilla"/>
  <anchor x="131.78460969082653" y="-12" name="ogonek"/>
  <anchor x="179.0" y="0.0" name="bottom"/>
  <outline>
    <contour>
      <point x="30.469256391280624" y="54" type="curve" smooth="yes"/>
      <point x="17.976988555494934" y="138"/>
      <point x="130.64893336372972" y="454"/>
      <point x="149.0656308717527" y="519" type="curve" smooth="yes"/>
      <point x="173.3416248926164" y="609.5992430901017"/>
      <point x="235.3934517285763" y="608"/>
      <point x="318.9131089981226" y="608" type="curve" smooth="yes"/>
      <point x="467.9131089981226" y="608"/>
      <point x="515.5489703733573" y="532"/>
      <point x="498.4002220577654" y="468" type="curve" smooth="yes"/>
      <point x="485.2707116286404" y="419"/>
      <point x="444.16043908598226" y="385"/>
      <point x="385.5335060449287" y="364" type="curve" smooth="yes"/>
      <point x="339.9783697735996" y="347"/>
      <point x="280.8347762341506" y="339"/>
      <point x="171.83477623415058" y="339" type="curve" smooth="yes"/>
      <point x="139.83477623415058" y="339"/>
      <point x="109.10272542658171" y="340"/>
      <point x="102.10272542658171" y="340" type="curve"/>
      <point x="107.72965846763529" y="361" type="line"/>
      <point x="332.9065730038751" y="343"/>
      <point x="455.50018504813784" y="390"/>
      <point x="476.25662851831646" y="460" type="curve" smooth="yes"/>
      <point x="500.2284622976685" y="542"/>
      <point x="427.286175957069" y="587"/>
      <point x="308.0900235343624" y="590" type="curve" smooth="yes"/>
      <point x="261.3579727267935" y="591"/>
      <point x="192.89387111165576" y="593"/>
      <point x="171.67332602633942" y="525" type="curve" smooth="yes"/>
      <point x="130.57198181786234" y="394"/>
      <point x="46.316734517650545" y="143"/>
      <point x="52.29234185504083" y="72" type="curve" smooth="yes"/>
      <point x="57.287187078897965" y="16"/>
      <point x="101.87564434701787" y="7"/>
      <point x="157.87564434701787" y="7" type="curve" smooth="yes"/>
      <point x="255.87564434701787" y="7"/>
      <point x="389.2013071988495" y="53"/>
      <point x="427.962905445171" y="179" type="curve" smooth="yes"/>
      <point x="454.27448518667865" y="266"/>
      <point x="368.7296584676353" y="361"/>
      <point x="313.3899125054797" y="356" type="curve"/>
      <point x="355.5335060449287" y="364" type="line"/>
      <point x="426.63862381144395" y="342"/>
      <point x="466.45139972291844" y="248"/>
      <point x="448.49880383003324" y="181" type="curve" smooth="yes"/>
      <point x="405.8948822334847" y="22"/>
      <point x="238.2487113059643" y="-14"/>
      <point x="131.78460969082653" y="-12" type="curve" smooth="yes"/>
      <point x="45.32050807568877" y="-10"/>
      <point x="33.57437415779593" y="32"/>
    </contour>
  </outline>
</glyph>
<glyph name="C" format="2">
  <advance width="500.0"/>
  <unicode hex="0043"/>
  <anchor x="376.7695154586736" y="600.0" name="top"/>
  <anchor x="213.05255888325766" y="-11" name="cedilla"/>
  <anchor x="213.05255888325766" y="-11" name="ogonek"/>
  <anchor x="200.0" y="0" name="bottom"/>
  <outline>
    <contour>
      <point x="525.6296954772629" y="439" type="curve" smooth="yes"/>
      <point x="513.3617462848317" y="438"/>
      <point x="516.7732890167118" y="447"/>
      <point x="519.8117647896455" y="477" type="curve" smooth="yes"/>
      <point x="524.9605131052374" y="541"/>
      <point x="483.286175957069" y="587"/>
      <point x="368.0900235343624" y="590" type="curve" smooth="yes"/>
      <point x="286.62592191922465" y="592"/>
      <point x="162.83615745225524" y="548"/>
      <point x="93.09757065043884" y="284" type="curve" smooth="yes"/>
      <point x="32.201307198849506" y="53"/>
      <point x="137.7512886940357" y="14"/>
      <point x="196.94744111674234" y="11" type="curve" smooth="yes"/>
      <point x="314.33974596215563" y="5"/>
      <point x="375.6846467004541" y="66"/>
      <point x="399.45517328095667" y="95" type="curve" smooth="yes"/>
      <point x="430.3692934009082" y="132"/>
      <point x="431.65648047980613" y="148"/>
      <point x="442.1923788646684" y="150" type="curve" smooth="yes"/>
      <point x="452.72827724953066" y="152"/>
      <point x="451.58468371008166" y="144"/>
      <point x="442.49364905389035" y="125" type="curve" smooth="yes"/>
      <point x="419.3641386247653" y="76"/>
      <point x="332.05255888325763" y="-11"/>
      <point x="213.05255888325766" y="-11" type="curve" smooth="yes"/>
      <point x="76.05255888325766" y="-11"/>
      <point x="17.90003700962757" y="78"/>
      <point x="72.5616722655766" y="282" type="curve" smooth="yes"/>
      <point x="113.82584789996949" y="436"/>
      <point x="195.71695657541596" y="611"/>
      <point x="378.71695657541596" y="611" type="curve" smooth="yes"/>
      <point x="561.7169565754159" y="611"/>
      <point x="542.0797139820767" y="478"/>
      <point x="536.9886793258853" y="459" type="curve" smooth="yes"/>
      <point x="534.5771365940052" y="450"/>
      <point x="535.897644669694" y="440"/>
    </contour>
  </outline>
</glyph>
<glyph name="D" format="2">
  <advance width="500.0"/>
  <unicode hex="0044"/>
  <anchor x="286.7695154586736" y="600.0" name="top"/>
  <anchor x="109.85640646055103" y="-8" name="cedilla"/>
  <anchor x="109.85640646055103" y="-8" name="ogonek"/>
  <anchor x="130.0" y="0" name="bottom"/>
  <outline>
    <contour>
      <point x="33.07179676972449" y="4" type="curve" smooth="yes"/>
      <point x="13.947441116742347" y="11"/>
      <point x="5.306424965364805" y="31"/>
      <point x="19.02439266260971" y="71" type="curve" smooth="yes"/>
      <point x="33.742360359854615" y="111"/>
      <point x="62.8770255651225" y="216"/>
      <point x="87.47579238552814" y="319" type="curve" smooth="yes"/>
      <point x="105.30403262543122" y="393"/>
      <point x="128.68740913666338" y="484"/>
      <point x="139.01307198849503" y="530" type="curve" smooth="yes"/>
      <point x="147.07078564789555" y="575"/>
      <point x="160.28617595706902" y="587"/>
      <point x="176.89387111165576" y="593" type="curve" smooth="yes"/>
      <point x="197.76951545867362" y="600"/>
      <point x="237.18105819055373" y="609"/>
      <point x="297.1810581905537" y="609" type="curve" smooth="yes"/>
      <point x="490.1810581905537" y="609"/>
      <point x="525.7732890167118" y="447"/>
      <point x="489.86809723094143" y="313" type="curve" smooth="yes"/>
      <point x="442.6372425933393" y="133"/>
      <point x="290.5884572681199" y="-9"/>
      <point x="109.85640646055103" y="-8" type="curve" smooth="yes"/>
      <point x="82.85640646055103" y="-8"/>
      <point x="57.66025403784439" y="-5"/>
    </contour>
    <contour>
      <point x="45.8948822334847" y="22" type="curve" smooth="yes"/>
      <point x="54.55513627132908" y="17"/>
      <point x="72.4833395016046" y="13"/>
      <point x="89.21539030917347" y="12" type="curve" smooth="yes"/>
      <point x="300.66025403784437" y="-5"/>
      <point x="430.28341352085977" y="169"/>
      <point x="469.9398940006659" y="317" type="curve" smooth="yes"/>
      <point x="509.06047609560983" y="463"/>
      <point x="446.0900235343624" y="590"/>
      <point x="284.0900235343624" y="590" type="curve" smooth="yes"/>
      <point x="254.62016671690634" y="590"/>
      <point x="217.0182267646379" y="586"/>
      <point x="177.07078564789555" y="575" type="curve" smooth="yes"/>
      <point x="172.80283645546442" y="574"/>
      <point x="166.19514130087768" y="568"/>
      <point x="161.90795422197974" y="552" type="curve" smooth="yes"/>
      <point x="144.88356155937" y="481"/>
      <point x="118.60530281465316" y="368"/>
      <point x="95.078332763972" y="269" type="curve" smooth="yes"/>
      <point x="42.201307198849506" y="53"/>
      <point x="13.253866082107152" y="42"/>
    </contour>
  </outline>
</glyph>
<glyph name="E" format="2">
  <advance width="500.0"/>
  <unicode hex="0045"/>
  <anchor x="360.7695154586736" y="600.0" name="top"/>
  <anchor x="200.80384757729337" y="3" name="cedilla"/>
  <anchor x="348.53589838486226" y="2" name="ogonek"/>
  <anchor x="200.0" y="0.0" name="bottom"/>
  <outline>
    <contour>
      <point x="187.76951545867362" y="600" type="curve" smooth="yes"/>
      <point x="224.44900738298483" y="610"/>
      <point x="309.5015662662425" y="599"/>
      <point x="391.2336170738114" y="598" type="curve" smooth="yes"/>
      <point x="516.9656678813802" y="597"/>
      <point x="522.6977186889492" y="596"/>
      <point x="544.9656678813802" y="597" type="curve" smooth="yes"/>
      <point x="571.2336170738114" y="598"/>
      <point x="573.5015662662424" y="599"/>
      <point x="573.6259219192247" y="592" type="curve" smooth="yes"/>
      <point x="573.2669380706022" y="572"/>
      <point x="558.6066840327578" y="577"/>
      <point x="509.33873484032665" y="576" type="curve" smooth="yes"/>
      <point x="399.80283645546444" y="574"/>
      <point x="216.69771868894912" y="596"/>
      <point x="180.87463322518892" y="578" type="curve"/>
      <point x="165.73103968573994" y="570"/>
      <point x="27.646170927520416" y="36"/>
      <point x="33.430780618346944" y="24" type="curve"/>
      <point x="44.287187078897965" y="16"/>
      <point x="263.2891982546163" y="29.019791637893405"/>
      <point x="374.8948822334847" y="22" type="curve" smooth="yes"/>
      <point x="417.3589838486225" y="20"/>
      <point x="441.84232335022705" y="33"/>
      <point x="430.143593539449" y="8" type="curve" smooth="yes"/>
      <point x="426.2679491924311" y="1"/>
      <point x="412.2679491924311" y="1"/>
      <point x="388.0" y="0" type="curve" smooth="yes"/>
      <point x="364.7320508075689" y="-1"/>
      <point x="364.80384757729337" y="3"/>
      <point x="238.80384757729337" y="3" type="curve" smooth="yes"/>
      <point x="170.80384757729337" y="3"/>
      <point x="100.46410161513776" y="-2"/>
      <point x="32.46410161513776" y="-2" type="curve" smooth="yes"/>
      <point x="6.464101615137757" y="-2"/>
      <point x="8.842323350227048" y="33"/>
      <point x="19.02439266260971" y="71" type="curve" smooth="yes"/>
      <point x="30.278258744716865" y="113"/>
      <point x="62.09241587429597" y="228"/>
      <point x="93.44247138873733" y="345" type="curve" smooth="yes"/>
      <point x="141.4053768339083" y="524"/>
      <point x="140.20922441120166" y="527"/>
      <point x="151.51564937656647" y="558" type="curve" smooth="yes"/>
      <point x="158.02148164128639" y="574.2125979752697"/>
      <point x="168.429769496518" y="595"/>
    </contour>
    <contour>
      <point x="376.10272542658174" y="340" type="curve" smooth="yes"/>
      <point x="374.81553834768374" y="324"/>
      <point x="359.6193859249771" y="327"/>
      <point x="334.6193859249771" y="327" type="curve" smooth="yes"/>
      <point x="224.88733511740824" y="328"/>
      <point x="169.95913188713274" y="332"/>
      <point x="99.69118269470161" y="331" type="curve"/>
      <point x="104.51426815846182" y="349" type="line"/>
      <point x="114.31811573575519" y="352"/>
      <point x="176.51426815846182" y="349"/>
      <point x="225.24631896603069" y="348" type="curve" smooth="yes"/>
      <point x="302.7104205811685" y="346"/>
      <point x="317.9783697735996" y="347"/>
      <point x="340.9783697735996" y="347" type="curve" smooth="yes"/>
      <point x="368.9783697735996" y="347"/>
      <point x="377.8540141206174" y="354"/>
    </contour>
  </outline>
</glyph>
<glyph name="F" format="2">
  <advance width="500.0"/>
  <unicode hex="0046"/>
  <anchor x="360.7695154586736" y="600.0" name="top"/>
  <anchor x="13.392304845413264" y="-6" name="cedilla"/>
  <anchor x="13.392304845413264" y="-6" name="ogonek"/>
  <anchor x="200.0" y="0.0" name="bottom"/>
  <outline>
    <contour>
      <point x="189.5015662662425" y="599" type="curve" smooth="yes"/>
      <point x="211.8413122283981" y="604"/>
      <point x="311.2336170738114" y="598"/>
      <point x="394.5015662662425" y="599" type="curve" smooth="yes"/>
      <point x="521.0374646511048" y="601"/>
      <point x="518.7695154586736" y="600"/>
      <point x="540.7695154586736" y="600" type="curve" smooth="yes"/>
      <point x="567.7695154586736" y="600"/>
      <point x="574.5015662662424" y="599"/>
      <point x="572.6259219192247" y="592" type="curve" smooth="yes"/>
      <point x="570.14258241762" y="579"/>
      <point x="559.9464299949134" y="582"/>
      <point x="531.6784808024822" y="581" type="curve" smooth="yes"/>
      <point x="421.07078564789555" y="575"/>
      <point x="201.35797272679352" y="591"/>
      <point x="178.33873484032668" y="576" type="curve"/>
      <point x="167.3912937235843" y="565"/>
      <point x="71.7372673768957" y="189.35405968778167"/>
      <point x="38.684646700454095" y="66" type="curve" smooth="yes"/>
      <point x="26.8948822334847" y="22"/>
      <point x="35.392304845413264" y="-6"/>
      <point x="13.392304845413264" y="-6" type="curve" smooth="yes"/>
      <point x="-1.607695154586736" y="-6"/>
      <point x="8.234628195640312" y="27"/>
      <point x="18.416697508022978" y="65" type="curve" smooth="yes"/>
      <point x="29.67056359013013" y="107"/>
      <point x="63.09241587429597" y="228"/>
      <point x="94.71042058116845" y="346" type="curve" smooth="yes"/>
      <point x="142.4053768339083" y="524"/>
      <point x="140.94127521877053" y="526"/>
      <point x="152.24770018413534" y="557" type="curve" smooth="yes"/>
      <point x="159.54393642328094" y="575.921958435553"/>
      <point x="167.1618203040869" y="594"/>
    </contour>
    <contour>
      <point x="419.18860530663017" y="303" type="curve" smooth="yes"/>
      <point x="415.1693674201633" y="288"/>
      <point x="398.24116418988785" y="292"/>
      <point x="368.9732149974567" y="291" type="curve" smooth="yes"/>
      <point x="302.36551984286996" y="285"/>
      <point x="161.9732149974567" y="291"/>
      <point x="91.70526580502558" y="290" type="curve"/>
      <point x="96.79630046121692" y="309" type="line"/>
      <point x="107.60014803851028" y="312"/>
      <point x="186.06424965364803" y="310"/>
      <point x="233.7963004612169" y="309" type="curve" smooth="yes"/>
      <point x="332.2604020763547" y="307"/>
      <point x="373.7963004612169" y="309"/>
      <point x="386.06424965364806" y="310" type="curve" smooth="yes"/>
      <point x="414.60014803851027" y="312"/>
      <point x="421.06424965364806" y="310"/>
    </contour>
  </outline>
</glyph>
<glyph name="G" format="2">
  <advance width="500.0"/>
  <unicode hex="0047"/>
  <anchor x="394.7695154586736" y="600.0" name="top"/>
  <anchor x="221.39230484541326" y="-6" name="cedilla"/>
  <anchor x="221.39230484541326" y="-6" name="ogonek"/>
  <anchor x="223.0" y="0.0" name="bottom"/>
  <outline>
    <contour>
      <point x="517.4720188274899" y="472" type="curve" smooth="yes"/>
      <point x="504.47201882748993" y="472"/>
      <point x="521.7066470231302" y="499"/>
      <point x="507.0848687582195" y="534" type="curve" smooth="yes"/>
      <point x="490.5348872630333" y="573"/>
      <point x="459.3579727267935" y="591"/>
      <point x="397.3579727267935" y="591" type="curve" smooth="yes"/>
      <point x="276.62592191922465" y="592"/>
      <point x="138.88356155937" y="481"/>
      <point x="97.08348754011487" y="325" type="curve" smooth="yes"/>
      <point x="43.22569986145921" y="124"/>
      <point x="63.67949192431123" y="10"/>
      <point x="221.67949192431124" y="10" type="curve" smooth="yes"/>
      <point x="382.6794919243112" y="10"/>
      <point x="431.2308546376021" y="180"/>
      <point x="462.8488593444746" y="298" type="curve"/>
      <point x="397.58091015204343" y="297"/>
      <point x="323.1168085369057" y="299"/>
      <point x="295.1168085369057" y="299" type="curve" smooth="yes"/>
      <point x="285.1168085369057" y="299"/>
      <point x="272.65270692176796" y="301"/>
      <point x="276.06424965364806" y="310" type="curve" smooth="yes"/>
      <point x="279.207843193097" y="318"/>
      <point x="285.207843193097" y="318"/>
      <point x="313.6719448082348" y="316" type="curve" smooth="yes"/>
      <point x="339.13604642337253" y="314"/>
      <point x="396.40399561580364" y="315"/>
      <point x="458.13604642337253" y="314" type="curve" smooth="yes"/>
      <point x="486.13604642337253" y="314"/>
      <point x="486.6719448082348" y="316"/>
      <point x="475.41807872612765" y="274" type="curve" smooth="yes"/>
      <point x="426.11542731880104" y="90"/>
      <point x="342.39230484541326" y="-6"/>
      <point x="221.39230484541326" y="-6" type="curve" smooth="yes"/>
      <point x="67.39230484541326" y="-6"/>
      <point x="12.560291047471956" y="73"/>
      <point x="77.67194480823477" y="316" type="curve" smooth="yes"/>
      <point x="128.04639298528585" y="504"/>
      <point x="285.9131089981226" y="608"/>
      <point x="398.9131089981226" y="608" type="curve" smooth="yes"/>
      <point x="528.9131089981227" y="608"/>
      <point x="532.1374276414772" y="523"/>
      <point x="531.5822913701481" y="506" type="curve" smooth="yes"/>
      <point x="531.7592059063879" y="488"/>
      <point x="524.4720188274899" y="472"/>
    </contour>
  </outline>
</glyph>
<glyph name="H" format="2">
  <advance width="500.0"/>
  <unicode hex="0048"/>
  <anchor x="360.7695154586736" y="600.0" name="top"/>
  <anchor x="7.588457268119896" y="-9" name="cedilla"/>
  <anchor x="391.12435565298216" y="-7" name="ogonek"/>
  <anchor x="200.0" y="0.0" name="bottom"/>
  <outline>
    <contour>
      <point x="95.31296095961231" y="296" type="curve"/>
      <point x="99.13604642337252" y="314" type="line"/>
      <point x="193.8680972309414" y="313"/>
      <point x="382.6719448082348" y="316"/>
      <point x="471.13604642337253" y="314" type="curve"/>
      <point x="466.3129609596123" y="296" type="line"/>
      <point x="374.1168085369057" y="299"/>
      <point x="191.31296095961233" y="296"/>
    </contour>
    <contour>
      <point x="170.10926142082923" y="605" type="curve" smooth="yes"/>
      <point x="185.18105819055373" y="609"/>
      <point x="174.41053161005115" y="580"/>
      <point x="167.51564937656647" y="558" type="curve" smooth="yes"/>
      <point x="162.96051310523737" y="541"/>
      <point x="115.53350604492866" y="364"/>
      <point x="92.95397711098987" y="276" type="curve" smooth="yes"/>
      <point x="78.48472071970923" y="222"/>
      <point x="44.9910716658189" y="97"/>
      <point x="33.73720558371175" y="55" type="curve" smooth="yes"/>
      <point x="22.751288694035715" y="14"/>
      <point x="19.85640646055102" y="-8"/>
      <point x="7.588457268119896" y="-9" type="curve" smooth="yes"/>
      <point x="-1.411542731880104" y="-9"/>
      <point x="-0.12435565298213902" y="7"/>
      <point x="12.861561236693888" y="48" type="curve" smooth="yes"/>
      <point x="25.84747812636992" y="89"/>
      <point x="55.71419413920668" y="193"/>
      <point x="85.60014803851028" y="312" type="curve" smooth="yes"/>
      <point x="127.81176478964552" y="477"/>
      <point x="140.13742764147716" y="523"/>
      <point x="150.85539533872208" y="563" type="curve" smooth="yes"/>
      <point x="159.429769496518" y="595"/>
      <point x="160.573363035967" y="603"/>
    </contour>
    <contour>
      <point x="555.6451598056915" y="607" type="curve" smooth="yes"/>
      <point x="566.6451598056915" y="607"/>
      <point x="560.6977186889492" y="596"/>
      <point x="550.855395338722" y="563" type="curve" smooth="yes"/>
      <point x="541.5489703733573" y="532"/>
      <point x="532.4386978306991" y="498"/>
      <point x="491.7104205811685" y="346" type="curve" smooth="yes"/>
      <point x="462.50395860617607" y="237"/>
      <point x="424.38337651123214" y="91"/>
      <point x="413.39745962155615" y="50" type="curve" smooth="yes"/>
      <point x="402.4115427318801" y="9"/>
      <point x="398.39230484541326" y="-6"/>
      <point x="391.12435565298216" y="-7" type="curve" smooth="yes"/>
      <point x="374.856406460551" y="-8"/>
      <point x="384.6794919243112" y="10"/>
      <point x="398.0051547761429" y="56" type="curve" smooth="yes"/>
      <point x="399.6128499307296" y="62"/>
      <point x="443.48472071970923" y="222"/>
      <point x="456.95397711098985" y="276" type="curve" smooth="yes"/>
      <point x="481.01684554653326" y="377"/>
      <point x="528.9605131052374" y="541"/>
      <point x="533.5156493765664" y="558" type="curve" smooth="yes"/>
      <point x="538.4105316100512" y="580"/>
      <point x="546.6451598056915" y="607"/>
    </contour>
  </outline>
</glyph>
<glyph name="I" format="2">
  <advance width="500.0"/>
  <unicode hex="0049"/>
  <anchor x="360.7695154586736" y="600.0" name="top"/>
  <anchor x="200.0" y="0.0" name="cedilla"/>
  <anchor x="200.0" y="0.0" name="ogonek"/>
  <anchor x="200.0" y="0.0" name="bottom"/>
  <outline>
    <contour>
      <point x="365.286175957069" y="587" type="line"/>
      <point x="332.8643236729032" y="466"/>
      <point x="337.41945994423224" y="483"/>
      <point x="291.60014803851027" y="312" type="curve" smooth="yes"/>
      <point x="270.1642126440205" y="232"/>
      <point x="236.59876682040564" y="103"/>
      <point x="212.4833395016046" y="13" type="curve"/>
      <point x="193.4833395016046" y="13" type="line"/>
      <point x="197.77052658050258" y="29"/>
      <point x="257.5231964926429" y="252"/>
      <point x="268.9732149974567" y="291" type="curve" smooth="yes"/>
      <point x="262.8103835715409" y="268"/>
      <point x="332.20922441120166" y="527"/>
      <point x="347.286175957069" y="587" type="curve"/>
    </contour>
    <contour>
      <point x="184.0900235343624" y="590" type="curve" smooth="yes"/>
      <point x="186.76951545867362" y="600"/>
      <point x="196.76951545867362" y="600"/>
      <point x="206.76951545867362" y="600" type="curve" smooth="yes"/>
      <point x="279.03746465110476" y="601"/>
      <point x="322.7695154586736" y="600"/>
      <point x="345.7695154586736" y="600" type="curve" smooth="yes"/>
      <point x="399.7695154586736" y="600"/>
      <point x="442.03746465110476" y="601"/>
      <point x="515.7695154586736" y="600" type="curve" smooth="yes"/>
      <point x="519.7695154586736" y="600"/>
      <point x="534.5015662662424" y="599"/>
      <point x="532.8938711116557" y="593" type="curve" smooth="yes"/>
      <point x="529.14258241762" y="579"/>
      <point x="512.6784808024822" y="581"/>
      <point x="500.6784808024823" y="581" type="curve" smooth="yes"/>
      <point x="432.6784808024823" y="581"/>
      <point x="380.9464299949134" y="582"/>
      <point x="343.6784808024823" y="581" type="curve" smooth="yes"/>
      <point x="303.6784808024823" y="581"/>
      <point x="239.67848080248228" y="581"/>
      <point x="201.94642999491342" y="582" type="curve" smooth="yes"/>
      <point x="189.21437918734452" y="583"/>
      <point x="181.67848080248228" y="581"/>
    </contour>
    <contour>
      <point x="28.67949192431123" y="10" type="curve" smooth="yes"/>
      <point x="30.823085463760208" y="18"/>
      <point x="38.82308546376021" y="18"/>
      <point x="44.82308546376021" y="18" type="curve" smooth="yes"/>
      <point x="101.09103465619134" y="19"/>
      <point x="153.09103465619134" y="19"/>
      <point x="193.35898384862247" y="20" type="curve" smooth="yes"/>
      <point x="230.35898384862247" y="20"/>
      <point x="282.0910346561913" y="19"/>
      <point x="360.0910346561913" y="19" type="curve" smooth="yes"/>
      <point x="366.0910346561913" y="19"/>
      <point x="378.8230854637602" y="18"/>
      <point x="376.94744111674237" y="11" type="curve" smooth="yes"/>
      <point x="375.0717967697245" y="4"/>
      <point x="371.0" y="0"/>
      <point x="364.0" y="0" type="curve" smooth="yes"/>
      <point x="280.0" y="0"/>
      <point x="239.0" y="0"/>
      <point x="184.73205080756887" y="-1" type="curve" smooth="yes"/>
      <point x="161.73205080756887" y="-1"/>
      <point x="118.0" y="0"/>
      <point x="36.0" y="0" type="curve" smooth="yes"/>
      <point x="30.0" y="0"/>
      <point x="26.535898384862243" y="2"/>
    </contour>
  </outline>
</glyph>
<glyph name="J" format="2">
  <advance width="500.0"/>
  <unicode hex="004A"/>
  <anchor x="427.7695154586736" y="600.0" name="top"/>
  <anchor x="190.05255888325766" y="-11" name="cedilla"/>
  <anchor x="190.05255888325766" y="-11" name="ogonek"/>
  <anchor x="195.0" y="0.0" name="bottom"/>
  <outline>
    <contour>
      <point x="303.89387111165576" y="593" type="curve" smooth="yes"/>
      <point x="306.2336170738114" y="598"/>
      <point x="317.03746465110476" y="601"/>
      <point x="347.03746465110476" y="601" type="curve" smooth="yes"/>
      <point x="356.03746465110476" y="601"/>
      <point x="399.5015662662425" y="599"/>
      <point x="411.7695154586736" y="600" type="curve" smooth="yes"/>
      <point x="472.03746465110476" y="601"/>
      <point x="507.8413122283981" y="604"/>
      <point x="546.0374646511048" y="601" type="curve" smooth="yes"/>
      <point x="546.0374646511048" y="601"/>
      <point x="559.429769496518" y="595"/>
      <point x="556.286175957069" y="587" type="curve" smooth="yes"/>
      <point x="523.2951042912501" y="490"/>
      <point x="514.7014922469873" y="443"/>
      <point x="467.0590948775052" y="254" type="curve" smooth="yes"/>
      <point x="424.04363054907657" y="86"/>
      <point x="306.05255888325763" y="-11"/>
      <point x="190.05255888325766" y="-11" type="curve" smooth="yes"/>
      <point x="82.05255888325766" y="-11"/>
      <point x="36.77052658050256" y="29"/>
      <point x="19.91927489609441" y="93" type="curve" smooth="yes"/>
      <point x="15.742360359854619" y="111"/>
      <point x="19.225699861459212" y="124"/>
      <point x="27.761598246321462" y="126" type="curve" smooth="yes"/>
      <point x="39.56544582361483" y="129"/>
      <point x="33.20646197499237" y="109"/>
      <point x="46.16798620205869" y="79" type="curve" smooth="yes"/>
      <point x="60.59361204426277" y="47"/>
      <point x="92.14359353944897" y="8"/>
      <point x="195.14359353944897" y="8" type="curve" smooth="yes"/>
      <point x="301.143593539449" y="8"/>
      <point x="404.0103095522857" y="112"/>
      <point x="435.26933041053576" y="210" type="curve" smooth="yes"/>
      <point x="459.09757065043885" y="284"/>
      <point x="468.1552843098394" y="329"/>
      <point x="476.8014552373598" y="365" type="curve" smooth="yes"/>
      <point x="501.32842528804093" y="464"/>
      <point x="499.91688255616083" y="455"/>
      <point x="537.4823283797757" y="584" type="curve"/>
      <point x="520.286175957069" y="587"/>
      <point x="393.75027757220676" y="585"/>
      <point x="341.48232837977565" y="584" type="curve" smooth="yes"/>
      <point x="308.48232837977565" y="584"/>
      <point x="301.75027757220676" y="585"/>
    </contour>
  </outline>
</glyph>
<glyph name="K" format="2">
  <advance width="500.0"/>
  <unicode hex="004B"/>
  <anchor x="360.7695154586736" y="600.0" name="top"/>
  <anchor x="12.124355652982139" y="-7" name="cedilla"/>
  <anchor x="401.9282032302755" y="-4" name="ogonek"/>
  <anchor x="183.0" y="0.0" name="bottom"/>
  <outline>
    <contour>
      <point x="179.64515980569146" y="607" type="curve" smooth="yes"/>
      <point x="194.71695657541596" y="611"/>
      <point x="187.8413122283981" y="604"/>
      <point x="176.1233445311532" y="564" type="curve" smooth="yes"/>
      <point x="128.4476261648802" y="401"/>
      <point x="88.4321618364516" y="233"/>
      <point x="38.27310396857399" y="57" type="curve" smooth="yes"/>
      <point x="20.928203230275507" y="-4"/>
      <point x="23.588457268119896" y="-9"/>
      <point x="12.124355652982139" y="-7" type="curve" smooth="yes"/>
      <point x="2.660254037844389" y="-5"/>
      <point x="7.358983848622458" y="20"/>
      <point x="19.541053161005117" y="58" type="curve" smooth="yes"/>
      <point x="37.421852284165844" y="121"/>
      <point x="68.7719077986072" y="238"/>
      <point x="97.44247138873733" y="345" type="curve" smooth="yes"/>
      <point x="120.21815274538275" y="430"/>
      <point x="143.26178329445932" y="516"/>
      <point x="162.87463322518892" y="578" type="curve" smooth="yes"/>
      <point x="168.69771868894912" y="596"/>
      <point x="173.10926142082923" y="605"/>
    </contour>
    <contour>
      <point x="555.573363035967" y="603" type="curve" smooth="yes"/>
      <point x="558.429769496518" y="595"/>
      <point x="552.429769496518" y="595"/>
      <point x="521.1951413008777" y="568" type="curve" smooth="yes"/>
      <point x="388.18483174859193" y="456"/>
      <point x="324.32327051189804" y="408"/>
      <point x="268.33735362222205" y="367" type="curve" smooth="yes"/>
      <point x="239.97836977359958" y="347"/>
      <point x="216.49503027199498" y="334"/>
      <point x="81.7719077986072" y="238" type="curve"/>
      <point x="86.39884083966078" y="259" type="line"/>
      <point x="134.0450117671812" y="295"/>
      <point x="226.6578616979108" y="357"/>
      <point x="297.5912197043292" y="409" type="curve" smooth="yes"/>
      <point x="434.38613894744145" y="509"/>
      <point x="509.14258241762" y="579"/>
      <point x="531.429769496518" y="595" type="curve" smooth="yes"/>
      <point x="547.9131089981227" y="608"/>
      <point x="553.1810581905537" y="609"/>
    </contour>
    <contour>
      <point x="418.80384757729337" y="3" type="curve" smooth="yes"/>
      <point x="414.19615242270663" y="-3"/>
      <point x="406.9282032302755" y="-4"/>
      <point x="401.9282032302755" y="-4" type="curve" smooth="yes"/>
      <point x="394.9282032302755" y="-4"/>
      <point x="387.7320508075689" y="-1"/>
      <point x="371.16283142591584" y="23" type="curve" smooth="yes"/>
      <point x="360.4500185048138" y="39"/>
      <point x="339.31157974150767" y="87"/>
      <point x="316.9244296722373" y="149" type="curve" smooth="yes"/>
      <point x="308.35521029058424" y="173"/>
      <point x="289.1642126440205" y="232"/>
      <point x="245.19376008277305" y="359" type="curve"/>
      <point x="261.4091503919465" y="371" type="line"/>
      <point x="292.0257738807144" y="280"/>
      <point x="322.7141941392067" y="193"/>
      <point x="352.7423603598546" y="111" type="curve" smooth="yes"/>
      <point x="365.43593539448983" y="80"/>
      <point x="389.8230854637602" y="18"/>
      <point x="407.75128869403574" y="14" type="curve" smooth="yes"/>
      <point x="420.94744111674237" y="11"/>
      <point x="421.87564434701784" y="7"/>
    </contour>
  </outline>
</glyph>
<glyph name="L" format="2">
  <advance width="500.0"/>
  <unicode hex="004C"/>
  <anchor x="310.7695154586736" y="600.0" name="top"/>
  <anchor x="199.73205080756887" y="-1" name="cedilla"/>
  <anchor x="263.7320508075689" y="-1" name="ogonek"/>
  <anchor x="200.0" y="0.0" name="bottom"/>
  <outline>
    <contour>
      <point x="162.5015662662425" y="599" type="curve" smooth="yes"/>
      <point x="180.37721061326036" y="606"/>
      <point x="171.87463322518892" y="578"/>
      <point x="166.51564937656647" y="558" type="curve" smooth="yes"/>
      <point x="154.85024056257922" y="507"/>
      <point x="136.70149224698736" y="443"/>
      <point x="118.48094716167101" y="375" type="curve" smooth="yes"/>
      <point x="88.7385868018164" y="264"/>
      <point x="66.35521029058422" y="173"/>
      <point x="21.287187078897965" y="16" type="curve"/>
      <point x="41.09103465619133" y="19"/>
      <point x="128.09103465619134" y="19"/>
      <point x="204.09103465619134" y="19" type="curve" smooth="yes"/>
      <point x="258.8230854637602" y="18"/>
      <point x="303.6269330410536" y="21"/>
      <point x="375.8230854637602" y="18" type="curve" smooth="yes"/>
      <point x="403.8230854637602" y="18"/>
      <point x="416.5025773880714" y="28"/>
      <point x="414.6794919243112" y="10" type="curve" smooth="yes"/>
      <point x="413.53589838486226" y="2"/>
      <point x="406.0" y="0"/>
      <point x="381.46410161513774" y="-2" type="curve" smooth="yes"/>
      <point x="370.19615242270663" y="-3"/>
      <point x="362.19615242270663" y="-3"/>
      <point x="340.46410161513774" y="-2" type="curve" smooth="yes"/>
      <point x="328.46410161513774" y="-2"/>
      <point x="322.7320508075689" y="-1"/>
      <point x="199.73205080756887" y="-1" type="curve" smooth="yes"/>
      <point x="117.73205080756887" y="-1"/>
      <point x="23.928203230275507" y="-4"/>
      <point x="10.928203230275507" y="-4" type="curve" smooth="yes"/>
      <point x="-0.071796769724493" y="-4"/>
      <point x="1.483339501604597" y="13"/>
      <point x="6.306424965364805" y="31" type="curve" smooth="yes"/>
      <point x="11.665408813987256" y="51"/>
      <point x="58.948822334846994" y="220"/>
      <point x="90.29887784928835" y="337" type="curve" smooth="yes"/>
      <point x="108.51942293460469" y="405"/>
      <point x="127.47201882748992" y="472"/>
      <point x="148.24770018413534" y="557" type="curve" smooth="yes"/>
      <point x="156.28617595706902" y="587"/>
      <point x="157.96566788138026" y="597"/>
    </contour>
  </outline>
</glyph>
<glyph name="M" format="2">
  <advance width="500.0"/>
  <unicode hex="004D"/>
  <anchor x="360.7695154586736" y="600.0" name="top"/>
  <anchor x="12.392304845413264" y="-6" name="cedilla"/>
  <anchor x="387.39230484541326" y="-6" name="ogonek"/>
  <anchor x="200.0" y="0.0" name="bottom"/>
  <outline>
    <contour>
      <point x="544.8413122283981" y="604" type="curve" smooth="yes"/>
      <point x="564.8413122283981" y="604"/>
      <point x="560.0900235343624" y="590"/>
      <point x="552.0515477614288" y="560" type="curve" smooth="yes"/>
      <point x="546.6925639128062" y="540"/>
      <point x="544.5489703733573" y="532"/>
      <point x="532.1750322972081" y="485.9678955078125" type="curve" smooth="yes"/>
      <point x="523.4527809410231" y="457"/>
      <point x="511.80807929979" y="413.5413818359375"/>
      <point x="493.7104205811685" y="346" type="curve" smooth="yes"/>
      <point x="484.1315803924932" y="310.25128173828125"/>
      <point x="474.40604658427816" y="275.31976318359375"/>
      <point x="465.00425450064984" y="241.5169677734375" type="curve" smooth="yes"/>
      <point x="445.819311905722" y="171"/>
      <point x="425.38337651123214" y="91"/>
      <point x="413.39745962155615" y="50" type="curve" smooth="yes"/>
      <point x="399.53589838486226" y="2"/>
      <point x="402.39230484541326" y="-6"/>
      <point x="387.39230484541326" y="-6" type="curve" smooth="yes"/>
      <point x="377.39230484541326" y="-6"/>
      <point x="379.60769515458674" y="6"/>
      <point x="395.5410531610051" y="58" type="curve" smooth="yes"/>
      <point x="398.22054508531636" y="68"/>
      <point x="429.1590578678776" y="176"/>
      <point x="447.9872981077807" y="250" type="curve" smooth="yes"/>
      <point x="461.18860530663017" y="303"/>
      <point x="539.4630904933088" y="569"/>
      <point x="538.0182267646379" y="586" type="curve"/>
      <point x="524.9271921084465" y="567"/>
      <point x="470.24254540799245" y="501"/>
      <point x="445.93612044262767" y="470" type="curve" smooth="yes"/>
      <point x="397.8591688967603" y="410"/>
      <point x="368.2129979692399" y="374"/>
      <point x="353.1219633130486" y="355" type="curve" smooth="yes"/>
      <point x="322.6719448082348" y="316"/>
      <point x="296.77706257475006" y="294"/>
      <point x="278.77706257475006" y="294" type="curve" smooth="yes"/>
      <point x="260.77706257475006" y="294"/>
      <point x="245.60014803851027" y="312"/>
      <point x="235.58606492818632" y="353" type="curve" smooth="yes"/>
      <point x="228.5527439313955" y="379"/>
      <point x="217.48610193781388" y="431"/>
      <point x="211.5771365940052" y="450" type="curve" smooth="yes"/>
      <point x="195.85024056257922" y="507"/>
      <point x="184.51564937656647" y="558"/>
      <point x="174.28617595706902" y="587" type="curve"/>
      <point x="164.58744614629094" y="562"/>
      <point x="106.71042058116845" y="346"/>
      <point x="89.95397711098987" y="276" type="curve" smooth="yes"/>
      <point x="76.48472071970923" y="222"/>
      <point x="47.01030955228574" y="112"/>
      <point x="34.27310396857399" y="57" type="curve" smooth="yes"/>
      <point x="23.67949192431123" y="10"/>
      <point x="22.392304845413264" y="-6"/>
      <point x="12.392304845413264" y="-6" type="curve" smooth="yes"/>
      <point x="-3.607695154586736" y="-6"/>
      <point x="1.339745962155611" y="5"/>
      <point x="13.397459621556138" y="50" type="curve" smooth="yes"/>
      <point x="20.90003700962757" y="78"/>
      <point x="43.94366755870412" y="164"/>
      <point x="64.42429081656778" y="241.5169677734375" type="curve" smooth="yes"/>
      <point x="73.13735456767658" y="275.31976318359375"/>
      <point x="82.33219884607915" y="311"/>
      <point x="91.71042058116845" y="346" type="curve" smooth="yes"/>
      <point x="109.9309656664848" y="414"/>
      <point x="120.81848920873512" y="456.77264404296875"/>
      <point x="128.2543943546539" y="485.96795654296875" type="curve" smooth="yes"/>
      <point x="141.35050161107017" y="533.4814453125"/>
      <point x="143.03230987496187" y="545"/>
      <point x="149.1233445311532" y="564" type="curve" smooth="yes"/>
      <point x="157.0900235343624" y="590"/>
      <point x="160.64515980569146" y="607"/>
      <point x="179.64515980569146" y="607" type="curve" smooth="yes"/>
      <point x="196.64515980569146" y="607"/>
      <point x="198.75027757220678" y="585"/>
      <point x="204.85539533872208" y="563" type="curve" smooth="yes"/>
      <point x="211.8887163355129" y="537"/>
      <point x="213.67332602633942" y="525"/>
      <point x="234.04123820914296" y="448" type="curve" smooth="yes"/>
      <point x="249.0360834330001" y="392"/>
      <point x="258.9398940006659" y="317"/>
      <point x="283.6719448082348" y="316" type="curve"/>
      <point x="306.6719448082348" y="316"/>
      <point x="355.96428666327563" y="388"/>
      <point x="412.7207301334542" y="458" type="curve" smooth="yes"/>
      <point x="472.5489703733573" y="532"/>
      <point x="480.69256391280624" y="540"/>
      <point x="499.8553953387221" y="563" type="curve" smooth="yes"/>
      <point x="516.2143791873445" y="583"/>
      <point x="526.8413122283981" y="604"/>
    </contour>
  </outline>
</glyph>
<glyph name="N" format="2">
  <advance width="500.0"/>
  <unicode hex="004E"/>
  <anchor x="360.7695154586736" y="600.0" name="top"/>
  <anchor x="5.856406460551021" y="-8" name="cedilla"/>
  <anchor x="392.66025403784437" y="-5" name="ogonek"/>
  <anchor x="200.0" y="0.0" name="bottom"/>
  <outline>
    <contour>
      <point x="550.6451598056915" y="607" type="curve" smooth="yes"/>
      <point x="553.6451598056915" y="607"/>
      <point x="563.4490073829849" y="610"/>
      <point x="555.14258241762" y="579" type="curve" smooth="yes"/>
      <point x="522.0604760956098" y="463"/>
      <point x="518.2373906318496" y="445"/>
      <point x="479.4565544990613" y="304" type="curve" smooth="yes"/>
      <point x="468.4706376093853" y="263"/>
      <point x="447.1590578678776" y="176"/>
      <point x="409.16283142591584" y="23" type="curve" smooth="yes"/>
      <point x="405.4115427318801" y="9"/>
      <point x="403.66025403784437" y="-5"/>
      <point x="392.66025403784437" y="-5" type="curve" smooth="yes"/>
      <point x="381.66025403784437" y="-5"/>
      <point x="383.0717967697245" y="4"/>
      <point x="396.273103968574" y="57" type="curve" smooth="yes"/>
      <point x="428.3744481770511" y="188"/>
      <point x="370.65270692176796" y="301"/>
      <point x="322.1078802027246" y="396" type="curve" smooth="yes"/>
      <point x="297.96944143941846" y="444"/>
      <point x="203.87463322518892" y="578"/>
      <point x="175.75027757220678" y="585" type="curve"/>
      <point x="110.06940442979091" y="366"/>
      <point x="68.89110867544647" y="175"/>
      <point x="30.985916889676034" y="41" type="curve" smooth="yes"/>
      <point x="19.464101615137757" y="-2"/>
      <point x="20.85640646055102" y="-8"/>
      <point x="5.856406460551021" y="-8" type="curve" smooth="yes"/>
      <point x="-4.143593539448979" y="-8"/>
      <point x="-2.535898384862243" y="-2"/>
      <point x="8.378221735089298" y="35" type="curve" smooth="yes"/>
      <point x="49.69495625273984" y="178"/>
      <point x="111.27071162864041" y="419"/>
      <point x="147.17590341441084" y="553" type="curve" smooth="yes"/>
      <point x="158.69771868894912" y="596"/>
      <point x="161.76951545867362" y="600"/>
      <point x="169.573363035967" y="603" type="curve" smooth="yes"/>
      <point x="179.37721061326036" y="606"/>
      <point x="201.69771868894912" y="596"/>
      <point x="213.0182267646379" y="586" type="curve" smooth="yes"/>
      <point x="300.7784437928547" y="503"/>
      <point x="445.30780618346944" y="240"/>
      <point x="421.0487853252194" y="142" type="curve"/>
      <point x="435.0731779878291" y="213"/>
      <point x="455.36551984286996" y="285"/>
      <point x="461.5283512687858" y="308" type="curve" smooth="yes"/>
      <point x="509.56305348368124" y="491"/>
      <point x="505.2040696350588" y="471"/>
      <point x="533.3387348403267" y="576" type="curve" smooth="yes"/>
      <point x="541.3772106132603" y="606"/>
      <point x="542.6451598056915" y="607"/>
    </contour>
  </outline>
</glyph>
<glyph name="O" format="2">
  <advance width="500.0"/>
  <unicode hex="004F"/>
  <anchor x="360.7695154586736" y="600.0" name="top"/>
  <anchor x="196.5166604983954" y="-13" name="cedilla"/>
  <anchor x="196.5166604983954" y="-13" name="ogonek"/>
  <anchor x="200.0" y="0" name="bottom"/>
  <anchor x="495" y="535" name="horn"/>
  <outline>
    <contour>
      <point x="364.2528549602782" y="613" type="curve" smooth="yes"/>
      <point x="454.2528549602782" y="613"/>
      <point x="489.6784808024823" y="581"/>
      <point x="503.4579357171659" y="513" type="curve" smooth="yes"/>
      <point x="512.8643236729032" y="466"/>
      <point x="511.1796769724491" y="400"/>
      <point x="484.65270692176796" y="301.0" type="curve" smooth="yes"/>
      <point x="459.4654828332424" y="207"/>
      <point x="433.9769885554949" y="138"/>
      <point x="398.11542731880104" y="90" type="curve" smooth="yes"/>
      <point x="341.75128869403574" y="14"/>
      <point x="288.5166604983954" y="-13"/>
      <point x="196.5166604983954" y="-13" type="curve" smooth="yes"/>
      <point x="119.5166604983954" y="-13"/>
      <point x="91.4115427318801" y="9"/>
      <point x="64.54105316100512" y="58" type="curve" smooth="yes"/>
      <point x="37.67056359013013" y="107"/>
      <point x="46.910346561913315" y="190"/>
      <point x="76.65270692176793" y="301.0" type="curve" smooth="yes"/>
      <point x="108.00276243620928" y="418"/>
      <point x="154.83100267611238" y="492"/>
      <point x="203.300259067393" y="546" type="curve" smooth="yes"/>
      <point x="243.35797272679352" y="591"/>
      <point x="291.2528549602782" y="613"/>
    </contour>
    <contour>
      <point x="359.6977186889491" y="596" type="curve" smooth="yes"/>
      <point x="287.6977186889491" y="596"/>
      <point x="242.99898887817105" y="571"/>
      <point x="205.13742764147716" y="523" type="curve" smooth="yes"/>
      <point x="167.00791721235214" y="474"/>
      <point x="124.78737212703581" y="406"/>
      <point x="96.38475772933681" y="300" type="curve" smooth="yes"/>
      <point x="64.76675302246433" y="182"/>
      <point x="62.421852284165844" y="121"/>
      <point x="83.63208781719645" y="77" type="curve" smooth="yes"/>
      <point x="101.25386608210715" y="42"/>
      <point x="123.67949192431124" y="10"/>
      <point x="202.67949192431124" y="10" type="curve" smooth="yes"/>
      <point x="289.6794919243112" y="10"/>
      <point x="331.11027254265815" y="34"/>
      <point x="379.0628684355434" y="101" type="curve" smooth="yes"/>
      <point x="417.99622644196177" y="153"/>
      <point x="438.3936860635179" y="203"/>
      <point x="464.65270692176796" y="301" type="curve" smooth="yes"/>
      <point x="492.2514737421736" y="404"/>
      <point x="493.2758664047833" y="475"/>
      <point x="481.79768167932156" y="518" type="curve" smooth="yes"/>
      <point x="468.2669380706022" y="572"/>
      <point x="437.6977186889491" y="596"/>
    </contour>
  </outline>
</glyph>
<glyph name="P" format="2">
  <advance width="500.0"/>
  <unicode hex="0050"/>
  <anchor x="310.7695154586736" y="600.0" name="top"/>
  <anchor x="9.856406460551021" y="-8" name="cedilla"/>
  <anchor x="9.856406460551021" y="-8" name="ogonek"/>
  <anchor x="160.0" y="0.0" name="bottom"/>
  <outline>
    <contour>
      <point x="154.31949695385984" y="561" type="curve" smooth="yes"/>
      <point x="161.14258241762005" y="579"/>
      <point x="185.9131089981226" y="608"/>
      <point x="312.52080415270933" y="614" type="curve" smooth="yes"/>
      <point x="355.0567025375716" y="616"/>
      <point x="388.71695657541596" y="611"/>
      <point x="425.03746465110476" y="601" type="curve" smooth="yes"/>
      <point x="520.3387348403267" y="576"/>
      <point x="542.7258849095971" y="514"/>
      <point x="520.9502035529516" y="429" type="curve" smooth="yes"/>
      <point x="497.8347762341506" y="339"/>
      <point x="442.4898754958521" y="278"/>
      <point x="370.5231964926429" y="252" type="curve" smooth="yes"/>
      <point x="333.23600941374497" y="236"/>
      <point x="267.7526699121404" y="223"/>
      <point x="171.62831425915823" y="230" type="curve" smooth="yes"/>
      <point x="136.16421264402047" y="232"/>
      <point x="81.7719077986072" y="238"/>
      <point x="78.7719077986072" y="238" type="curve"/>
      <point x="84.59499326236741" y="256" type="line"/>
      <point x="93.32704406993629" y="255"/>
      <point x="97.05909487750516" y="254"/>
      <point x="107.79114568507404" y="253" type="curve" smooth="yes"/>
      <point x="298.82446668186486" y="227"/>
      <point x="373.4706376093853" y="263"/>
      <point x="419.3129609596123" y="296" type="curve" smooth="yes"/>
      <point x="473.7629794644261" y="335"/>
      <point x="491.768134240569" y="391"/>
      <point x="502.2181527453828" y="430" type="curve" smooth="yes"/>
      <point x="526.4053768339083" y="524"/>
      <point x="487.587446146291" y="562"/>
      <point x="415.48232837977565" y="584" type="curve" smooth="yes"/>
      <point x="380.429769496518" y="595"/>
      <point x="336.2336170738114" y="598"/>
      <point x="289.429769496518" y="595" type="curve" smooth="yes"/>
      <point x="257.16182030408686" y="594"/>
      <point x="190.48232837977565" y="584"/>
      <point x="174.65924291601544" y="566" type="curve"/>
      <point x="162.6400050295486" y="551"/>
      <point x="91.91550133805619" y="246"/>
      <point x="27.162831425915826" y="23" type="curve" smooth="yes"/>
      <point x="18.928203230275507" y="-4"/>
      <point x="22.85640646055102" y="-8"/>
      <point x="9.856406460551021" y="-8" type="curve" smooth="yes"/>
      <point x="-3.411542731880104" y="-9"/>
      <point x="1.267949192431125" y="1"/>
      <point x="11.646170927520416" y="36" type="curve" smooth="yes"/>
      <point x="27.383376511232164" y="91"/>
      <point x="86.67194480823477" y="316"/>
      <point x="120.89764466969399" y="440" type="curve" smooth="yes"/>
      <point x="131.5186426439792" y="479.6381040671186"/>
      <point x="138.86947844904606" y="522"/>
    </contour>
  </outline>
</glyph>
<glyph name="Q" format="2">
  <advance width="500.0"/>
  <unicode hex="0051"/>
  <anchor x="360.7695154586736" y="600.0" name="top"/>
  <anchor x="177.73205080756887" y="-1" name="cedilla"/>
  <anchor x="363.1051177665153" y="-22" name="ogonek"/>
  <anchor x="220.0" y="0.0" name="bottom"/>
  <outline>
    <contour>
      <point x="190.01923788646684" y="15" type="curve" smooth="yes"/>
      <point x="327.01923788646684" y="15"/>
      <point x="435.6423973694822" y="189"/>
      <point x="466.72450369149243" y="305" type="curve" smooth="yes"/>
      <point x="499.4143051680894" y="427"/>
      <point x="526.6977186889492" y="596"/>
      <point x="360.6977186889491" y="596" type="curve" smooth="yes"/>
      <point x="207.69771868894912" y="596"/>
      <point x="133.36174628483172" y="438"/>
      <point x="99.60014803851028" y="312" type="curve" smooth="yes"/>
      <point x="62.08726109815311" y="172"/>
      <point x="60.01923788646684" y="15"/>
    </contour>
    <contour>
      <point x="390.8859538993036" y="119" type="curve" smooth="yes"/>
      <point x="344.80900235343626" y="59"/>
      <point x="288.7320508075689" y="-1"/>
      <point x="177.73205080756887" y="-1" type="curve" smooth="yes"/>
      <point x="57.732050807568875" y="-1"/>
      <point x="40.316734517650545" y="143"/>
      <point x="85.52835126878578" y="308" type="curve" smooth="yes"/>
      <point x="121.70149224698736" y="443"/>
      <point x="197.9849057678471" y="612"/>
      <point x="362.98490576784707" y="612" type="curve" smooth="yes"/>
      <point x="440.98490576784707" y="612"/>
      <point x="466.48232837977565" y="584"/>
      <point x="487.56820825982413" y="547" type="curve" smooth="yes"/>
      <point x="513.7066470231302" y="499"/>
      <point x="508.5386608210715" y="420"/>
      <point x="476.65270692176796" y="301" type="curve" smooth="yes"/>
      <point x="458.7001110288827" y="234"/>
      <point x="424.4795659435664" y="166"/>
    </contour>
    <contour>
      <point x="249.65270692176793" y="301" type="curve" smooth="yes"/>
      <point x="258.2604020763547" y="307"/>
      <point x="255.58091015204343" y="297"/>
      <point x="269.078332763972" y="269" type="curve" smooth="yes"/>
      <point x="277.2552473002118" y="251"/>
      <point x="303.03470221489545" y="183"/>
      <point x="316.9244296722373" y="149" type="curve" smooth="yes"/>
      <point x="329.8859538993036" y="119"/>
      <point x="358.25386608210715" y="42"/>
      <point x="379.6410161513775" y="-20" type="curve" smooth="yes"/>
      <point x="387.9422863405995" y="-45"/>
      <point x="386.2102355330306" y="-44"/>
      <point x="380.9422863405995" y="-45" type="curve" smooth="yes"/>
      <point x="372.4063879557372" y="-47"/>
      <point x="371.74613391789285" y="-42"/>
      <point x="363.1051177665153" y="-22" type="curve" smooth="yes"/>
      <point x="345.43078061834694" y="24"/>
      <point x="316.84747812636994" y="89"/>
      <point x="301.17314097820156" y="135" type="curve" smooth="yes"/>
      <point x="293.99622644196177" y="153"/>
      <point x="271.26933041053576" y="210"/>
      <point x="254.32704406993628" y="255" type="curve" smooth="yes"/>
      <point x="245.48987549585212" y="278"/>
      <point x="238.77706257475006" y="294"/>
    </contour>
  </outline>
</glyph>
<glyph name="R" format="2">
  <advance width="500.0"/>
  <unicode hex="0052"/>
  <anchor x="330.7695154586736" y="600.0" name="top"/>
  <anchor x="-9.411542731880104" y="-9" name="cedilla"/>
  <anchor x="410.0" y="0" name="ogonek"/>
  <anchor x="190.0" y="0.0" name="bottom"/>
  <outline>
    <contour>
      <point x="158.7118017992731" y="555" type="curve" smooth="yes"/>
      <point x="178.9131089981226" y="608"/>
      <point x="216.64515980569146" y="607"/>
      <point x="352.6451598056915" y="607" type="curve" smooth="yes"/>
      <point x="483.6451598056915" y="607"/>
      <point x="504.8169195657884" y="533"/>
      <point x="482.84508578643636" y="451" type="curve" smooth="yes"/>
      <point x="469.4476261648802" y="401"/>
      <point x="440.2655568524975" y="363"/>
      <point x="395.95913188713274" y="332" type="curve" smooth="yes"/>
      <point x="355.4565544990613" y="304"/>
      <point x="310.0450117671812" y="295"/>
      <point x="220.0450117671812" y="295" type="curve" smooth="yes"/>
      <point x="188.0450117671812" y="295"/>
      <point x="101.0450117671812" y="295"/>
      <point x="95.0450117671812" y="295" type="curve"/>
      <point x="98.8680972309414" y="313" type="line"/>
      <point x="106.8680972309414" y="313"/>
      <point x="188.8680972309414" y="313"/>
      <point x="279.86809723094143" y="313" type="curve" smooth="yes"/>
      <point x="369.86809723094143" y="313"/>
      <point x="447.480947161671" y="375"/>
      <point x="464.5771365940052" y="450" type="curve" smooth="yes"/>
      <point x="485.76436068253076" y="544"/>
      <point x="447.16182030408686" y="594"/>
      <point x="329.62592191922465" y="592" type="curve" smooth="yes"/>
      <point x="240.35797272679352" y="591"/>
      <point x="191.35797272679352" y="591"/>
      <point x="178.78359856899758" y="559" type="curve"/>
      <point x="156.04639298528585" y="504"/>
      <point x="95.32508526918727" y="203.15351030202788"/>
      <point x="15.091034656191333" y="19" type="curve" smooth="yes"/>
      <point x="2.588457268119896" y="-9"/>
      <point x="2.588457268119896" y="-9"/>
      <point x="-9.411542731880104" y="-9" type="curve" smooth="yes"/>
      <point x="-20.411542731880104" y="-9"/>
      <point x="-2.373066958946424" y="21"/>
      <point x="13.005154776142874" y="56" type="curve" smooth="yes"/>
      <point x="34.742360359854615" y="111"/>
      <point x="91.8680972309414" y="313"/>
      <point x="125.09379709240062" y="437" type="curve" smooth="yes"/>
      <point x="137.41945994423227" y="483"/>
      <point x="143.45793571716595" y="513"/>
    </contour>
    <contour>
      <point x="286.92065611419906" y="302" type="line"/>
      <point x="366.18860530663017" y="303"/>
      <point x="391.23600941374497" y="236"/>
      <point x="389.76675302246434" y="182" type="curve" smooth="yes"/>
      <point x="389.3359724041174" y="158"/>
      <point x="378.4692563912806" y="54"/>
      <point x="410.9666790032092" y="26" type="curve" smooth="yes"/>
      <point x="432.143593539449" y="8"/>
      <point x="441.4833395016046" y="13"/>
      <point x="426.46410161513774" y="-2" type="curve" smooth="yes"/>
      <point x="422.39230484541326" y="-6"/>
      <point x="415.66025403784437" y="-5"/>
      <point x="399.87564434701784" y="7" type="curve" smooth="yes"/>
      <point x="355.98591688967605" y="41"/>
      <point x="375.9769885554949" y="138"/>
      <point x="373.3026514073266" y="184" type="curve" smooth="yes"/>
      <point x="367.3129609596123" y="296"/>
      <point x="310.0450117671812" y="295"/>
      <point x="120.0450117671812" y="295" type="curve"/>
    </contour>
  </outline>
</glyph>
<glyph name="S" format="2">
  <advance width="500.0"/>
  <unicode hex="0053"/>
  <anchor x="373.7695154586736" y="600.0" name="top"/>
  <anchor x="182.5884572681199" y="-9" name="cedilla"/>
  <anchor x="182.5884572681199" y="-9" name="ogonek"/>
  <anchor x="220.0" y="0.0" name="bottom"/>
  <outline>
    <contour>
      <point x="357.98490576784707" y="612" type="curve" smooth="yes"/>
      <point x="435.98490576784707" y="612"/>
      <point x="475.429769496518" y="595"/>
      <point x="506.443852606842" y="554" type="curve" smooth="yes"/>
      <point x="523.2810211809261" y="531"/>
      <point x="518.6015292566149" y="521"/>
      <point x="512.7976816793216" y="518" type="curve" smooth="yes"/>
      <point x="504.7258849095971" y="514"/>
      <point x="506.3335800641838" y="520"/>
      <point x="492.88871633551287" y="537" type="curve" smooth="yes"/>
      <point x="471.1233445311532" y="564"/>
      <point x="449.429769496518" y="595"/>
      <point x="356.429769496518" y="595" type="curve" smooth="yes"/>
      <point x="270.429769496518" y="595"/>
      <point x="178.38613894744145" y="509"/>
      <point x="159.897644669694" y="440" type="curve" smooth="yes"/>
      <point x="136.58606492818632" y="353"/>
      <point x="188.26040207635467" y="307"/>
      <point x="287.72450369149243" y="305" type="curve" smooth="yes"/>
      <point x="358.4565544990613" y="304"/>
      <point x="384.2604020763547" y="307"/>
      <point x="420.0257738807144" y="280" type="curve" smooth="yes"/>
      <point x="441.7385868018164" y="264"/>
      <point x="462.1642126440205" y="232"/>
      <point x="450.6423973694822" y="189" type="curve" smooth="yes"/>
      <point x="434.5654458236148" y="129"/>
      <point x="407.5077321642143" y="84"/>
      <point x="368.66540881398726" y="51" type="curve" smooth="yes"/>
      <point x="324.4833395016046" y="13"/>
      <point x="259.5884572681199" y="-9"/>
      <point x="182.5884572681199" y="-9" type="curve" smooth="yes"/>
      <point x="115.5884572681199" y="-9"/>
      <point x="62.4833395016046" y="13"/>
      <point x="33.325662851831645" y="46" type="curve" smooth="yes"/>
      <point x="16.416697508022978" y="65"/>
      <point x="16.91927489609441" y="93"/>
      <point x="30.455173280956657" y="95" type="curve" smooth="yes"/>
      <point x="42.9910716658189" y="97"/>
      <point x="33.703884586920935" y="81"/>
      <point x="48.61284993072961" y="62" type="curve" smooth="yes"/>
      <point x="89.94744111674234" y="11"/>
      <point x="148.4115427318801" y="9"/>
      <point x="183.4115427318801" y="9" type="curve" smooth="yes"/>
      <point x="257.4115427318801" y="9"/>
      <point x="318.3064249653648" y="31"/>
      <point x="354.07695154586736" y="60" type="curve" smooth="yes"/>
      <point x="386.5795289339388" y="88"/>
      <point x="411.4218522841658" y="121"/>
      <point x="424.13981998141077" y="161" type="curve" smooth="yes"/>
      <point x="439.4654828332424" y="207"/>
      <point x="443.89626345158933" y="231"/>
      <point x="413.934739224523" y="261" type="curve" smooth="yes"/>
      <point x="395.7578246882832" y="279"/>
      <point x="355.1693674201633" y="288"/>
      <point x="295.9014182277322" y="287" type="curve" smooth="yes"/>
      <point x="164.36551984286996" y="285"/>
      <point x="117.17452219630621" y="344"/>
      <point x="141.62969547726286" y="439" type="curve" smooth="yes"/>
      <point x="164.7451227960639" y="529"/>
      <point x="270.98490576784707" y="612"/>
    </contour>
  </outline>
</glyph>
<glyph name="T" format="2">
  <advance width="500.0"/>
  <unicode hex="0054"/>
  <anchor x="360.7695154586736" y="600.0" name="top"/>
  <anchor x="197.85640646055103" y="-8" name="cedilla"/>
  <anchor x="197.85640646055103" y="-8" name="ogonek"/>
  <anchor x="200.0" y="0" name="bottom"/>
  <outline>
    <contour>
      <point x="365.0182267646379" y="586" type="line"/>
      <point x="349.4053768339083" y="524"/>
      <point x="347.6015292566149" y="521"/>
      <point x="299.9065730038751" y="343" type="curve" smooth="yes"/>
      <point x="265.0731779878291" y="213"/>
      <point x="221.8615612366939" y="48"/>
      <point x="217.57437415779594" y="32" type="curve" smooth="yes"/>
      <point x="208.19615242270663" y="-3"/>
      <point x="209.85640646055103" y="-8"/>
      <point x="197.85640646055103" y="-8" type="curve" smooth="yes"/>
      <point x="185.85640646055103" y="-8"/>
      <point x="188.19615242270663" y="-3"/>
      <point x="197.84232335022705" y="33" type="curve" smooth="yes"/>
      <point x="199.45001850481378" y="39"/>
      <point x="259.2026884169542" y="262"/>
      <point x="270.65270692176796" y="301" type="curve" smooth="yes"/>
      <point x="264.4898754958521" y="278"/>
      <point x="329.52973248689045" y="517"/>
      <point x="347.0182267646379" y="586" type="curve"/>
    </contour>
    <contour>
      <point x="130.0900235343624" y="590" type="curve" smooth="yes"/>
      <point x="132.5015662662425" y="599"/>
      <point x="145.76951545867362" y="600"/>
      <point x="172.76951545867362" y="600" type="curve" smooth="yes"/>
      <point x="246.76951545867362" y="600"/>
      <point x="253.5015662662425" y="599"/>
      <point x="286.7695154586736" y="600" type="curve" smooth="yes"/>
      <point x="338.7695154586736" y="600"/>
      <point x="419.03746465110476" y="601"/>
      <point x="456.7695154586736" y="600" type="curve" smooth="yes"/>
      <point x="502.5015662662425" y="599"/>
      <point x="529.7695154586736" y="600"/>
      <point x="545.7695154586736" y="600" type="curve" smooth="yes"/>
      <point x="575.7695154586736" y="600"/>
      <point x="588.5015662662424" y="599"/>
      <point x="585.8220743419313" y="589" type="curve" smooth="yes"/>
      <point x="583.14258241762" y="579"/>
      <point x="568.6784808024822" y="581"/>
      <point x="541.4105316100512" y="580" type="curve" smooth="yes"/>
      <point x="549.6784808024822" y="581"/>
      <point x="489.4105316100512" y="580"/>
      <point x="414.6784808024823" y="581" type="curve" smooth="yes"/>
      <point x="412.6784808024823" y="581"/>
      <point x="374.9464299949134" y="582"/>
      <point x="338.6784808024823" y="581" type="curve" smooth="yes"/>
      <point x="251.14258241762005" y="579"/>
      <point x="192.41053161005115" y="580"/>
      <point x="167.94642999491342" y="582" type="curve" smooth="yes"/>
      <point x="137.94642999491342" y="582"/>
      <point x="127.41053161005115" y="580"/>
    </contour>
  </outline>
</glyph>
<glyph name="U" format="2">
  <advance width="500.0"/>
  <unicode hex="0055"/>
  <anchor x="360.7695154586736" y="600.0" name="top"/>
  <anchor x="195.71281292110203" y="-16" name="cedilla"/>
  <anchor x="195.71281292110203" y="-16" name="ogonek"/>
  <anchor x="200.0" y="0" name="bottom"/>
  <anchor x="532" y="527" name="horn"/>
  <outline>
    <contour>
      <point x="164.5682082598241" y="547" type="curve" smooth="yes"/>
      <point x="140.32842528804093" y="464"/>
      <point x="129.8591688967603" y="410"/>
      <point x="96.70526580502558" y="290" type="curve" smooth="yes"/>
      <point x="73.46548283324239" y="207"/>
      <point x="63.35005551444135" y="117"/>
      <point x="83.70388458692094" y="81" type="curve" smooth="yes"/>
      <point x="107.45001850481378" y="39"/>
      <point x="124.53589838486224" y="2"/>
      <point x="200.53589838486224" y="2" type="curve" smooth="yes"/>
      <point x="292.53589838486226" y="2"/>
      <point x="345.0051547761429" y="56"/>
      <point x="379.52697005068114" y="99" type="curve" smooth="yes"/>
      <point x="420.1923788646684" y="150"/>
      <point x="437.68087314241586" y="219"/>
      <point x="459.50911338231896" y="293" type="curve" smooth="yes"/>
      <point x="493.0027624362093" y="418"/>
      <point x="513.027155098819" y="489"/>
      <point x="530.587446146291" y="562" type="curve" smooth="yes"/>
      <point x="538.9656678813802" y="597"/>
      <point x="541.9131089981227" y="608"/>
      <point x="554.6451598056915" y="607" type="curve" smooth="yes"/>
      <point x="565.3772106132603" y="606"/>
      <point x="555.286175957069" y="587"/>
      <point x="549.3194969538598" y="561" type="curve" smooth="yes"/>
      <point x="537.1899865247349" y="512"/>
      <point x="508.2514737421736" y="404"/>
      <point x="480.65270692176796" y="301.0" type="curve" smooth="yes"/>
      <point x="457.0731779878291" y="213"/>
      <point x="435.58468371008166" y="144.0"/>
      <point x="399.7231224733878" y="96.0" type="curve" smooth="yes"/>
      <point x="342.6269330410536" y="21.0"/>
      <point x="287.71281292110206" y="-16"/>
      <point x="195.71281292110203" y="-16" type="curve" smooth="yes"/>
      <point x="118.71281292110203" y="-16"/>
      <point x="92.75128869403571" y="14.0"/>
      <point x="65.88079912316073" y="63.0" type="curve" smooth="yes"/>
      <point x="39.01030955228574" y="112.0"/>
      <point x="48.910346561913315" y="190.0"/>
      <point x="80.65270692176793" y="301.0" type="curve" smooth="yes"/>
      <point x="114.80661001350265" y="421.0"/>
      <point x="139.13742764147716" y="523"/>
      <point x="151.92719210844658" y="567" type="curve" smooth="yes"/>
      <point x="159.35797272679352" y="591"/>
      <point x="159.10926142082923" y="605"/>
      <point x="171.10926142082923" y="605" type="curve" smooth="yes"/>
      <point x="182.10926142082923" y="605"/>
      <point x="175.21437918734452" y="583"/>
    </contour>
  </outline>
</glyph>
<glyph name="V" format="2">
  <advance width="500.0"/>
  <unicode hex="0056"/>
  <anchor x="360.7695154586736" y="600.0" name="top"/>
  <anchor x="200.0" y="0.0" name="cedilla"/>
  <anchor x="200.0" y="0.0" name="ogonek"/>
  <anchor x="200.0" y="0.0" name="bottom"/>
  <outline>
    <contour>
      <point x="167.573363035967" y="603" type="curve" smooth="yes"/>
      <point x="177.37721061326036" y="606"/>
      <point x="180.8413122283981" y="604"/>
      <point x="182.26693807060218" y="572" type="curve" smooth="yes"/>
      <point x="185.41945994423227" y="483"/>
      <point x="178.59637448047204" y="465"/>
      <point x="180.1027254265817" y="340" type="curve" smooth="yes"/>
      <point x="180.82962145800772" y="283"/>
      <point x="187.03470221489545" y="183"/>
      <point x="192.22569986145922" y="124" type="curve" smooth="yes"/>
      <point x="195.11542731880104" y="90"/>
      <point x="195.4833395016046" y="13"/>
      <point x="203.4833395016046" y="13" type="curve"/>
      <point x="218.4833395016046" y="13"/>
      <point x="357.7052658050256" y="290"/>
      <point x="399.7296584676353" y="361" type="curve" smooth="yes"/>
      <point x="460.06047609560983" y="463"/>
      <point x="465.6156123669389" y="480"/>
      <point x="530.2669380706022" y="572" type="curve" smooth="yes"/>
      <point x="551.3054138435359" y="602"/>
      <point x="554.6451598056915" y="607"/>
      <point x="562.573363035967" y="603" type="curve" smooth="yes"/>
      <point x="571.5015662662424" y="599"/>
      <point x="552.5348872630333" y="573"/>
      <point x="534.5682082598241" y="547" type="curve" smooth="yes"/>
      <point x="511.1899865247348" y="512"/>
      <point x="498.9027994458369" y="496"/>
      <point x="484.73996801992104" y="473" type="curve" smooth="yes"/>
      <point x="449.46686405134705" y="416"/>
      <point x="397.81553834768374" y="324"/>
      <point x="387.99245288392353" y="306" type="curve" smooth="yes"/>
      <point x="335.00138121810465" y="209"/>
      <point x="287.8141571295791" y="115"/>
      <point x="248.52181527453828" y="43" type="curve" smooth="yes"/>
      <point x="232.7512886940357" y="14"/>
      <point x="217.5884572681199" y="-9"/>
      <point x="197.5884572681199" y="-9" type="curve" smooth="yes"/>
      <point x="178.5884572681199" y="-9"/>
      <point x="178.94744111674234" y="11"/>
      <point x="175.52181527453828" y="43" type="curve" smooth="yes"/>
      <point x="175.12951042912502" y="49"/>
      <point x="163.1834505304873" y="247"/>
      <point x="162.3847577293368" y="300" type="curve" smooth="yes"/>
      <point x="161.99760766006642" y="362"/>
      <point x="160.0360834330001" y="392"/>
      <point x="163.2758664047833" y="475" type="curve" smooth="yes"/>
      <point x="165.45793571716595" y="513"/>
      <point x="164.5682082598241" y="547"/>
      <point x="164.24770018413534" y="557" type="curve" smooth="yes"/>
      <point x="162.75027757220678" y="585"/>
      <point x="152.23361707381136" y="598"/>
    </contour>
  </outline>
</glyph>
<glyph name="W" format="2">
  <advance width="500.0"/>
  <unicode hex="0057"/>
  <anchor x="360.7695154586736" y="600.0" name="top"/>
  <anchor x="103.5884572681199" y="-9" name="cedilla"/>
  <anchor x="292.5884572681199" y="-9" name="ogonek"/>
  <anchor x="200.0" y="0.0" name="bottom"/>
  <outline>
    <contour>
      <point x="163.8413122283981" y="604" type="curve" smooth="yes"/>
      <point x="180.64515980569146" y="607"/>
      <point x="176.60668403275778" y="577"/>
      <point x="163.51049460042358" y="502" type="curve" smooth="yes"/>
      <point x="145.7155753573113" y="402"/>
      <point x="143.01684554653326" y="377"/>
      <point x="129.02577388071435" y="280" type="curve" smooth="yes"/>
      <point x="103.13466520526788" y="105"/>
      <point x="72.4833395016046" y="13"/>
      <point x="103.4833395016046" y="13" type="curve"/>
      <point x="140.4833395016046" y="13"/>
      <point x="228.5949932623674" y="256"/>
      <point x="259.86809723094143" y="313" type="curve" smooth="yes"/>
      <point x="274.10272542658174" y="340"/>
      <point x="284.05016654332405" y="351"/>
      <point x="294.05016654332405" y="351" type="curve" smooth="yes"/>
      <point x="302.05016654332405" y="351"/>
      <point x="305.63862381144395" y="342"/>
      <point x="306.13604642337253" y="314" type="curve" smooth="yes"/>
      <point x="307.37960295319397" y="244"/>
      <point x="272.4833395016046" y="13"/>
      <point x="301.4833395016046" y="13" type="curve"/>
      <point x="329.4833395016046" y="13"/>
      <point x="420.23600941374497" y="236"/>
      <point x="444.92065611419906" y="302" type="curve" smooth="yes"/>
      <point x="511.7592059063879" y="488"/>
      <point x="490.6822543605205" y="428"/>
      <point x="528.6400050295485" y="551" type="curve" smooth="yes"/>
      <point x="542.6977186889492" y="596"/>
      <point x="555.4490073829849" y="610"/>
      <point x="566.0374646511048" y="601" type="curve" smooth="yes"/>
      <point x="575.8938711116557" y="593"/>
      <point x="559.6784808024822" y="581"/>
      <point x="552.7835985689976" y="559" type="curve" smooth="yes"/>
      <point x="534.7784437928547" y="503"/>
      <point x="480.0309286568572" y="336"/>
      <point x="457.82962145800775" y="283" type="curve" smooth="yes"/>
      <point x="445.3270440699363" y="255"/>
      <point x="390.0103095522857" y="112"/>
      <point x="360.80900235343626" y="59" type="curve" smooth="yes"/>
      <point x="342.69872981077805" y="25"/>
      <point x="331.856406460551" y="-8"/>
      <point x="292.5884572681199" y="-9" type="curve" smooth="yes"/>
      <point x="269.05255888325763" y="-11"/>
      <point x="266.6269330410536" y="21"/>
      <point x="266.0051547761429" y="56" type="curve" smooth="yes"/>
      <point x="264.5654458236148" y="129"/>
      <point x="297.0116907703904" y="321"/>
      <point x="286.0116907703904" y="321" type="curve"/>
      <point x="273.0116907703904" y="321"/>
      <point x="204.76159824632146" y="126"/>
      <point x="163.20130719884952" y="53" type="curve" smooth="yes"/>
      <point x="143.09103465619134" y="19"/>
      <point x="124.5884572681199" y="-9"/>
      <point x="103.5884572681199" y="-9" type="curve" smooth="yes"/>
      <point x="69.5884572681199" y="-9"/>
      <point x="68.23462819564031" y="27"/>
      <point x="73.61284993072961" y="62" type="curve" smooth="yes"/>
      <point x="87.80007401925513" y="156"/>
      <point x="94.91034656191331" y="190"/>
      <point x="100.3603650667271" y="229" type="curve" smooth="yes"/>
      <point x="112.33219884607915" y="311"/>
      <point x="133.2373906318496" y="445"/>
      <point x="151.24770018413534" y="557" type="curve" smooth="yes"/>
      <point x="155.21437918734452" y="583"/>
      <point x="144.03746465110473" y="601"/>
    </contour>
  </outline>
</glyph>
<glyph name="X" format="2">
  <advance width="500.0"/>
  <unicode hex="0058"/>
  <anchor x="360.7695154586736" y="600.0" name="top"/>
  <anchor x="19.0" y="0" name="cedilla"/>
  <anchor x="398.0" y="0" name="ogonek"/>
  <anchor x="200.0" y="0.0" name="bottom"/>
  <outline>
    <contour>
      <point x="563.573363035967" y="603" type="curve" smooth="yes"/>
      <point x="571.429769496518" y="595"/>
      <point x="553.7502775722068" y="585"/>
      <point x="521.1041066446863" y="549" type="curve" smooth="yes"/>
      <point x="496.869478449046" y="522"/>
      <point x="265.3462819564031" y="270"/>
      <point x="281.4373166125945" y="289" type="curve" smooth="yes"/>
      <point x="252.86294245479854" y="257"/>
      <point x="130.81415712957912" y="115"/>
      <point x="63.52181527453828" y="43" type="curve" smooth="yes"/>
      <point x="30.14359353944898" y="8"/>
      <point x="14.856406460551021" y="-8"/>
      <point x="9.464101615137757" y="-2" type="curve" smooth="yes"/>
      <point x="-10.516660498395403" y="13"/>
      <point x="30.71796769724491" y="40"/>
      <point x="67.1679862020587" y="79" type="curve" smooth="yes"/>
      <point x="84.99107166581891" y="97"/>
      <point x="241.88218034126538" y="272"/>
      <point x="321.92581089034195" y="358" type="curve" smooth="yes"/>
      <point x="455.7784437928547" y="503"/>
      <point x="499.443852606842" y="554"/>
      <point x="525.14258241762" y="579" type="curve" smooth="yes"/>
      <point x="553.6451598056915" y="607"/>
      <point x="554.9849057678471" y="612"/>
    </contour>
    <contour>
      <point x="159.69771868894912" y="596" type="curve" smooth="yes"/>
      <point x="174.9131089981226" y="608"/>
      <point x="176" y="587"/>
      <point x="182" y="573" type="curve" smooth="yes"/>
      <point x="196" y="540"/>
      <point x="205" y="502"/>
      <point x="263" y="358" type="curve" smooth="yes"/>
      <point x="298" y="273"/>
      <point x="379" y="99"/>
      <point x="385" y="80" type="curve" smooth="yes"/>
      <point x="400" y="41"/>
      <point x="425.5551362713291" y="17"/>
      <point x="403.53589838486226" y="2" type="curve" smooth="yes"/>
      <point x="390.12435565298216" y="-7"/>
      <point x="385.75128869403574" y="14"/>
      <point x="372.39745962155615" y="50" type="curve" smooth="yes"/>
      <point x="345.9577506690281" y="123"/>
      <point x="291.18345053048733" y="247"/>
      <point x="275.6334690353011" y="286" type="curve" smooth="yes"/>
      <point x="268.72450369149243" y="305"/>
      <point x="182.13742764147716" y="523"/>
      <point x="168.51564937656647" y="558" type="curve" smooth="yes"/>
      <point x="162.5348872630333" y="573"/>
      <point x="147.0182267646379" y="586"/>
    </contour>
  </outline>
</glyph>
<glyph name="Y" format="2">
  <advance width="500.0"/>
  <unicode hex="0059"/>
  <anchor x="360.7695154586736" y="600.0" name="top"/>
  <anchor x="197.85640646055103" y="-8" name="cedilla"/>
  <anchor x="197.85640646055103" y="-8" name="ogonek"/>
  <anchor x="200.0" y="0" name="bottom"/>
  <outline>
    <contour>
      <point x="280" y="322" type="curve"/>
      <point x="272" y="338"/>
      <point x="242" y="396"/>
      <point x="228" y="427" type="curve" smooth="yes"/>
      <point x="221" y="442"/>
      <point x="179" y="528"/>
      <point x="170" y="552" type="curve" smooth="yes"/>
      <point x="163" y="574"/>
      <point x="147" y="594"/>
      <point x="159.03746465110473" y="601" type="curve" smooth="yes"/>
      <point x="168" y="606"/>
      <point x="175" y="582"/>
      <point x="181" y="566" type="curve" smooth="yes"/>
      <point x="195" y="529"/>
      <point x="202" y="515"/>
      <point x="225" y="465" type="curve" smooth="yes"/>
      <point x="256" y="398"/>
      <point x="281" y="355"/>
      <point x="290" y="338" type="curve"/>
      <point x="334" y="383"/>
      <point x="376" y="416"/>
      <point x="420" y="460" type="curve" smooth="yes"/>
      <point x="474" y="513"/>
      <point x="516.6592429160155" y="566"/>
      <point x="530.4105316100512" y="580" type="curve" smooth="yes"/>
      <point x="546.6977186889492" y="596"/>
      <point x="556.1810581905537" y="609"/>
      <point x="564.3054138435359" y="602" type="curve" smooth="yes"/>
      <point x="572.429769496518" y="595"/>
      <point x="545.9989888781711" y="571"/>
      <point x="522.5682082598241" y="547" type="curve" smooth="yes"/>
      <point x="499.1374276414772" y="523"/>
      <point x="463" y="482"/>
      <point x="393" y="413" type="curve" smooth="yes"/>
      <point x="365" y="385"/>
      <point x="311" y="338"/>
      <point x="293" y="320" type="curve"/>
      <point x="267.7526699121404" y="223" type="line" smooth="yes"/>
      <point x="242" y="123"/>
      <point x="224.54105316100512" y="58"/>
      <point x="220.25386608210715" y="42" type="curve" smooth="yes"/>
      <point x="208.19615242270663" y="-3"/>
      <point x="211.85640646055103" y="-8"/>
      <point x="196.85640646055103" y="-8" type="curve" smooth="yes"/>
      <point x="181.85640646055103" y="-8"/>
      <point x="190.19615242270663" y="-3"/>
      <point x="202.52181527453828" y="43" type="curve" smooth="yes"/>
      <point x="203.32566285183165" y="46"/>
      <point x="228" y="141"/>
      <point x="239.4988038300332" y="181" type="curve" smooth="yes"/>
      <point x="253" y="226"/>
      <point x="268" y="277"/>
    </contour>
  </outline>
</glyph>
<glyph name="Z" format="2">
  <advance width="500.0"/>
  <unicode hex="005A"/>
  <anchor x="360.7695154586736" y="600.0" name="top"/>
  <anchor x="200.53589838486224" y="2" name="cedilla"/>
  <anchor x="298.53589838486226" y="2" name="ogonek"/>
  <anchor x="208.0" y="0.0" name="bottom"/>
  <outline>
    <contour>
      <point x="544.3054138435359" y="602" type="curve" smooth="yes"/>
      <point x="583.8413122283981" y="604"/>
      <point x="558.4630904933088" y="569"/>
      <point x="527.8361574522553" y="548" type="curve" smooth="yes"/>
      <point x="514.6925639128062" y="540"/>
      <point x="410.2181527453828" y="430"/>
      <point x="351.0694044297909" y="366" type="curve" smooth="yes"/>
      <point x="303.13604642337253" y="314"/>
      <point x="288.8488593444746" y="298"/>
      <point x="269.221926303421" y="277" type="curve" smooth="yes"/>
      <point x="197.58983848622455" y="200"/>
      <point x="106.31157974150767" y="87"/>
      <point x="23.287187078897965" y="16" type="curve"/>
      <point x="35.8948822334847" y="22"/>
      <point x="189.8948822334847" y="22"/>
      <point x="218.8948822334847" y="22" type="curve" smooth="yes"/>
      <point x="313.16283142591584" y="23"/>
      <point x="360.6269330410536" y="21"/>
      <point x="384.0910346561913" y="19" type="curve" smooth="yes"/>
      <point x="413.5551362713291" y="17"/>
      <point x="432.3064249653648" y="31"/>
      <point x="431.28718707889794" y="16" type="curve" smooth="yes"/>
      <point x="430.143593539449" y="8"/>
      <point x="417.7320508075689" y="-1"/>
      <point x="390.0" y="0" type="curve" smooth="yes"/>
      <point x="355.53589838486226" y="2"/>
      <point x="319.2679491924311" y="1"/>
      <point x="298.53589838486226" y="2" type="curve" smooth="yes"/>
      <point x="235.80384757729337" y="3"/>
      <point x="201.26794919243113" y="1"/>
      <point x="106.73205080756887" y="-1" type="curve" smooth="yes"/>
      <point x="58.732050807568875" y="-1"/>
      <point x="33.46410161513776" y="-2"/>
      <point x="17.464101615137757" y="-2" type="curve" smooth="yes"/>
      <point x="0.46410161513775705" y="-2"/>
      <point x="2.339745962155611" y="5"/>
      <point x="6.823085463760208" y="18" type="curve" smooth="yes"/>
      <point x="11.306424965364805" y="31"/>
      <point x="26.378221735089298" y="35"/>
      <point x="65.82824023990308" y="74" type="curve" smooth="yes"/>
      <point x="83.65132570366329" y="92"/>
      <point x="247.68602791855875" y="275"/>
      <point x="326.7296584676353" y="361" type="curve" smooth="yes"/>
      <point x="490.42461472037513" y="539"/>
      <point x="534.5348872630333" y="573"/>
      <point x="545.4823283797757" y="584" type="curve"/>
      <point x="522.6784808024822" y="581"/>
      <point x="460.6784808024823" y="581"/>
      <point x="437.6784808024823" y="581" type="curve" smooth="yes"/>
      <point x="344.6784808024823" y="581" type="line" smooth="yes"/>
      <point x="328.6784808024823" y="581"/>
      <point x="310.6784808024823" y="581"/>
      <point x="296.6784808024823" y="581" type="curve" smooth="yes"/>
      <point x="245.67848080248228" y="581"/>
      <point x="198.67848080248228" y="581"/>
      <point x="171.21437918734452" y="583" type="curve" smooth="yes"/>
      <point x="151.48232837977565" y="584"/>
      <point x="149.94642999491342" y="582"/>
      <point x="153.1618203040869" y="594" type="curve" smooth="yes"/>
      <point x="154.76951545867362" y="600"/>
      <point x="158.76951545867362" y="600"/>
      <point x="175.76951545867362" y="600" type="curve" smooth="yes"/>
      <point x="259.7695154586736" y="600"/>
      <point x="263.7695154586736" y="600"/>
      <point x="289.7695154586736" y="600" type="curve" smooth="yes"/>
      <point x="310.7695154586736" y="600"/>
      <point x="335.7695154586736" y="600"/>
      <point x="360.7695154586736" y="600" type="curve" smooth="yes"/>
      <point x="398.7695154586736" y="600"/>
      <point x="437.03746465110476" y="601"/>
      <point x="466.7695154586736" y="600" type="curve" smooth="yes"/>
      <point x="501.7695154586736" y="600"/>
      <point x="528.0374646511048" y="601"/>
    </contour>
  </outline>
</glyph>
<glyph name="bracketleft" format="2">
  <advance width="500.0"/>
  <unicode hex="005B"/>
  <outline>
    <contour>
      <point x="235.09517831050528" y="646" type="curve"/>
      <point x="261.31056861967875" y="658" type="line"/>
      <point x="238.80283645546442" y="574"/>
      <point x="225.60152925661492" y="521"/>
      <point x="168.33219884607917" y="311" type="curve" smooth="yes"/>
      <point x="111.40261439769901" y="106"/>
      <point x="93.84232335022705" y="33"/>
      <point x="63.02816622064793" y="-82" type="curve"/>
      <point x="42.97560733739029" y="-71" type="line"/>
      <point x="44.04740410711477" y="-67"/>
      <point x="48.87048957087499" y="-49"/>
      <point x="50.2102355330306" y="-44" type="curve" smooth="yes"/>
      <point x="51.817930687617334" y="-38"/>
      <point x="81.43593539448982" y="80"/>
      <point x="140.9732149974567" y="291" type="curve" smooth="yes"/>
      <point x="207.01307198849503" y="530"/>
      <point x="220.69771868894912" y="596"/>
    </contour>
    <contour>
      <point x="42.97560733739029" y="-71" type="curve" smooth="yes"/>
      <point x="44.65509926170151" y="-61"/>
      <point x="46.09996299037243" y="-78"/>
      <point x="66.63586137523467" y="-76" type="curve" smooth="yes"/>
      <point x="101.17175976009692" y="-74"/>
      <point x="157.9038105676658" y="-75"/>
      <point x="180.9038105676658" y="-75" type="curve" smooth="yes"/>
      <point x="234.9038105676658" y="-75"/>
      <point x="237.9038105676658" y="-75"/>
      <point x="282.63586137523464" y="-76" type="curve" smooth="yes"/>
      <point x="309.63586137523464" y="-76"/>
      <point x="322.1717597600969" y="-74"/>
      <point x="318.68842025849233" y="-87" type="curve" smooth="yes"/>
      <point x="314.8653347947321" y="-105"/>
      <point x="297.47302994931886" y="-99"/>
      <point x="265.2050807568877" y="-100" type="curve" smooth="yes"/>
      <point x="216.20508075688772" y="-100"/>
      <point x="178.20508075688772" y="-100"/>
      <point x="178.20508075688772" y="-100" type="curve" smooth="yes"/>
      <point x="137.47302994931886" y="-99"/>
      <point x="78.66918237202549" y="-102"/>
      <point x="65.20508075688772" y="-100" type="curve" smooth="yes"/>
      <point x="47.47302994931886" y="-99"/>
      <point x="39.15252187363008" y="-89"/>
    </contour>
    <contour>
      <point x="235.09517831050528" y="646" type="curve" smooth="yes"/>
      <point x="241.1862129666966" y="665"/>
      <point x="254.5977556985767" y="674"/>
      <point x="272.8657048910078" y="675" type="curve" smooth="yes"/>
      <point x="287.40160327587006" y="677"/>
      <point x="345.3298065061456" y="673"/>
      <point x="385.8657048910078" y="675" type="curve" smooth="yes"/>
      <point x="385.8657048910078" y="675"/>
      <point x="423.13365408343896" y="676"/>
      <point x="471.13365408343896" y="676" type="curve" smooth="yes"/>
      <point x="502.8657048910078" y="675"/>
      <point x="521.2054508531635" y="680"/>
      <point x="517.1862129666965" y="665" type="curve" smooth="yes"/>
      <point x="512.8990258877986" y="649"/>
      <point x="502.9708226575231" y="653"/>
      <point x="475.702873465092" y="652" type="curve" smooth="yes"/>
      <point x="421.43492427266085" y="651"/>
      <point x="429.16697508022975" y="650"/>
      <point x="375.16697508022975" y="650" type="curve" smooth="yes"/>
      <point x="352.16697508022975" y="650"/>
      <point x="296.16697508022975" y="650"/>
      <point x="261.702873465092" y="652" type="curve" smooth="yes"/>
      <point x="241.97082265752312" y="653"/>
      <point x="231.41568638619404" y="636"/>
    </contour>
  </outline>
</glyph>
<glyph name="asciicircum" format="2">
  <advance width="500.0"/>
  <unicode hex="005E"/>
  <outline>
    <contour>
      <point x="100.6578616979108" y="357" type="curve" smooth="yes"/>
      <point x="90.33735362222203" y="367"/>
      <point x="98.48094716167101" y="375"/>
      <point x="123.64377858758684" y="398" type="curve" smooth="yes"/>
      <point x="167.09379709240062" y="437"/>
      <point x="197.06047609560983" y="463"/>
      <point x="205.73996801992104" y="473" type="curve" smooth="yes"/>
      <point x="232.97459621556135" y="500"/>
      <point x="304.2669380706022" y="572"/>
      <point x="333.89387111165576" y="593" type="curve" smooth="yes"/>
      <point x="347.8413122283981" y="604"/>
      <point x="360.9131089981226" y="608"/>
      <point x="370.1092614208292" y="605" type="curve" smooth="yes"/>
      <point x="376.8413122283981" y="604"/>
      <point x="381.7695154586736" y="600"/>
      <point x="387.16182030408686" y="594" type="curve" smooth="yes"/>
      <point x="405.5348872630333" y="573"/>
      <point x="428.97459621556135" y="500"/>
      <point x="444.2040696350588" y="471" type="curve" smooth="yes"/>
      <point x="451.18483174859193" y="456"/>
      <point x="458.897644669694" y="440"/>
      <point x="483.37582939515573" y="397" type="curve" smooth="yes"/>
      <point x="496.2129979692399" y="374"/>
      <point x="499.5335060449287" y="364"/>
      <point x="487.3899125054797" y="356" type="curve" smooth="yes"/>
      <point x="474.2463189660307" y="348"/>
      <point x="466.4091503919465" y="371"/>
      <point x="454.3040326254312" y="393" type="curve" smooth="yes"/>
      <point x="445.5912197043292" y="409"/>
      <point x="425.25662851831646" y="460"/>
      <point x="414.6874091366634" y="484" type="curve" smooth="yes"/>
      <point x="401.7258849095971" y="514"/>
      <point x="379.21437918734455" y="583"/>
      <point x="356.21437918734455" y="583" type="curve"/>
      <point x="336.21437918734455" y="583"/>
      <point x="273.7258849095971" y="514"/>
      <point x="244.22330752152564" y="486" type="curve" smooth="yes"/>
      <point x="217.25662851831646" y="460"/>
      <point x="169.93096566648478" y="414"/>
      <point x="154.17967697244907" y="400" type="curve" smooth="yes"/>
      <point x="129.01684554653326" y="377"/>
      <point x="108.97836977359958" y="347"/>
    </contour>
  </outline>
</glyph>
<glyph name="underscore" format="2">
  <advance width="500.0"/>
  <unicode hex="005F"/>
  <outline>
    <contour>
      <point x="-6.59361204426277" y="-47.0" type="curve" smooth="yes"/>
      <point x="-2.8423233502270477" y="-33"/>
      <point x="3.2820323027550913" y="-40"/>
      <point x="35.549981495186216" y="-39" type="curve" smooth="yes"/>
      <point x="88.08587988004845" y="-37"/>
      <point x="151.54998149518622" y="-39"/>
      <point x="174.54998149518622" y="-39" type="curve" smooth="yes"/>
      <point x="228.28203230275508" y="-40"/>
      <point x="291.0858798800485" y="-37"/>
      <point x="344.5499814951862" y="-39" type="curve" smooth="yes"/>
      <point x="371.2820323027551" y="-40"/>
      <point x="384.3538290724796" y="-36"/>
      <point x="380.60254037844385" y="-50.0" type="curve" smooth="yes"/>
      <point x="377.6550992617015" y="-61"/>
      <point x="361.726896031426" y="-57"/>
      <point x="329.45894683899485" y="-58" type="curve" smooth="yes"/>
      <point x="281.19099764656374" y="-59"/>
      <point x="211.19099764656374" y="-59"/>
      <point x="172.19099764656374" y="-59" type="curve" smooth="yes"/>
      <point x="132.19099764656374" y="-59"/>
      <point x="58.458946838994876" y="-58"/>
      <point x="36.458946838994876" y="-58" type="curve" smooth="yes"/>
      <point x="8.458946838994876" y="-58"/>
      <point x="-10.61284993072961" y="-62"/>
    </contour>
  </outline>
</glyph>
<glyph name="grave" format="2">
  <advance width="500"/>
  <unicode hex="0060"/>
  <anchor x="360.7695154586736" y="600" name="top"/>
  <outline>
    <contour>
      <point x="409.02200032267615" y="433" type="curve" smooth="yes"/>
      <point x="401.4143051680894" y="427"/>
      <point x="395.6822543605205" y="428"/>
      <point x="379.041238209143" y="448" type="curve" smooth="yes"/>
      <point x="355.07971398207667" y="478"/>
      <point x="330.65408813987256" y="510"/>
      <point x="296.97975099170424" y="556" type="curve" smooth="yes"/>
      <point x="290.39129372358434" y="565"/>
      <point x="270.9464299949134" y="582"/>
      <point x="287.429769496518" y="595" type="curve" smooth="yes"/>
      <point x="298.8413122283981" y="604"/>
      <point x="296.5015662662425" y="599"/>
      <point x="309.9464299949134" y="582" type="curve" smooth="yes"/>
      <point x="344.156665527944" y="538"/>
      <point x="366.0463929852858" y="504"/>
      <point x="390.59637448047204" y="465" type="curve" smooth="yes"/>
      <point x="401.5053398242807" y="446"/>
      <point x="417.897644669694" y="440"/>
    </contour>
  </outline>
</glyph>
<glyph name="a" format="2">
  <advance width="500.0"/>
  <unicode hex="0061"/>
  <anchor x="290.1796769724491" y="400.0" name="top"/>
  <anchor x="136.85640646055103" y="-8" name="cedilla"/>
  <anchor x="375.0717967697245" y="4" name="ogonek"/>
  <anchor x="201.0" y="0.0" name="bottom"/>
  <outline>
    <contour>
      <point x="335.948822334847" y="220" type="curve" smooth="yes"/>
      <point x="347.41292394998476" y="218"/>
      <point x="371.55651748943376" y="226"/>
      <point x="384.50395860617607" y="237" type="curve"/>
      <point x="380.2167715272781" y="221" type="line"/>
      <point x="366.1975336408113" y="206"/>
      <point x="339.0539401013623" y="198"/>
      <point x="314.1257368710868" y="202" type="curve" smooth="yes"/>
      <point x="196.948822334847" y="220"/>
      <point x="87.00138121810464" y="209"/>
      <point x="58.06286843554339" y="101" type="curve" smooth="yes"/>
      <point x="33.67949192431123" y="10"/>
      <point x="131.4115427318801" y="9"/>
      <point x="165.94744111674234" y="11" type="curve" smooth="yes"/>
      <point x="215.7512886940357" y="14"/>
      <point x="277.52181527453826" y="43"/>
      <point x="349.689801476597" y="122" type="curve"/>
      <point x="347.0628684355434" y="101" type="line"/>
      <point x="313.8807991231607" y="63"/>
      <point x="281.3782217350893" y="35"/>
      <point x="231.67949192431124" y="10" type="curve" smooth="yes"/>
      <point x="165.83716857408416" y="-23"/>
      <point x="3.569219381653056" y="-24"/>
      <point x="37.06286843554339" y="101" type="curve" smooth="yes"/>
      <point x="71.3603650667271" y="229"/>
      <point x="216.1116537607628" y="243"/>
    </contour>
    <contour>
      <point x="398.5757553759006" y="241" type="curve" smooth="yes"/>
      <point x="385.7141941392067" y="193"/>
      <point x="315.6269330410536" y="21"/>
      <point x="401.6269330410536" y="21" type="curve" smooth="yes"/>
      <point x="409.6269330410536" y="21"/>
      <point x="415.01923788646684" y="15"/>
      <point x="412.60769515458674" y="6" type="curve" smooth="yes"/>
      <point x="408.39230484541326" y="-6"/>
      <point x="365.7320508075689" y="-1"/>
      <point x="353.3589838486225" y="20" type="curve" smooth="yes"/>
      <point x="319.16798620205867" y="79"/>
      <point x="359.4795659435664" y="166"/>
      <point x="375.55651748943376" y="226" type="curve" smooth="yes"/>
      <point x="420.3040326254312" y="393"/>
      <point x="313.0360834330001" y="392"/>
      <point x="276.0360834330001" y="392" type="curve" smooth="yes"/>
      <point x="241.0360834330001" y="392"/>
      <point x="212.42838827841337" y="386"/>
      <point x="175.33735362222203" y="367" type="curve" smooth="yes"/>
      <point x="163.99760766006642" y="362"/>
      <point x="145.85401412061742" y="354"/>
      <point x="143.99760766006642" y="362" type="curve" smooth="yes"/>
      <point x="141.67709958437763" y="372"/>
      <point x="149.01684554653326" y="377"/>
      <point x="181.50018504813784" y="390" type="curve" smooth="yes"/>
      <point x="200.3758293951557" y="397"/>
      <point x="235.8591688967603" y="410"/>
      <point x="287.8591688967603" y="410" type="curve" smooth="yes"/>
      <point x="317.8591688967603" y="410"/>
      <point x="443.05532131946694" y="407"/>
    </contour>
  </outline>
</glyph>
<glyph name="b" format="2">
  <advance width="500.0"/>
  <unicode hex="0062"/>
  <anchor x="370.7695154586736" y="600.0" name="top"/>
  <anchor x="125.85640646055103" y="-8" name="cedilla"/>
  <anchor x="125.85640646055103" y="-8" name="ogonek"/>
  <anchor x="200.0" y="0.0" name="bottom"/>
  <outline>
    <contour>
      <point x="81.01923788646684" y="15" type="curve" smooth="yes"/>
      <point x="78.82308546376021" y="18"/>
      <point x="60.325662851831645" y="46"/>
      <point x="65.70388458692094" y="81" type="curve" smooth="yes"/>
      <point x="68.52697005068114" y="99"/>
      <point x="84.28341352085974" y="169"/>
      <point x="130.65270692176793" y="301" type="curve" smooth="yes"/>
      <point x="177.02200032267612" y="433"/>
      <point x="192.20922441120166" y="527"/>
      <point x="201.31949695385984" y="561" type="curve" smooth="yes"/>
      <point x="205.94642999491342" y="582"/>
      <point x="214.37721061326036" y="606"/>
      <point x="225.30541384353586" y="602" type="curve" smooth="yes"/>
      <point x="238.23361707381136" y="598"/>
      <point x="228.1618203040869" y="594"/>
      <point x="219.31949695385984" y="561" type="curve" smooth="yes"/>
      <point x="211.01307198849503" y="530"/>
      <point x="198.2373906318496" y="445"/>
      <point x="163.90657300387508" y="343" type="curve" smooth="yes"/>
      <point x="117.73343202567352" y="208"/>
      <point x="83.45517328095666" y="95"/>
      <point x="85.0961894323342" y="75" type="curve" smooth="yes"/>
      <point x="89.18206931238267" y="38"/>
      <point x="101.28778048286554" y="13"/>
      <point x="132.4833395016046" y="13" type="curve" smooth="yes"/>
      <point x="207.4833395016046" y="13"/>
      <point x="367.3641386247653" y="76"/>
      <point x="407.0206191045715" y="224" type="curve" smooth="yes"/>
      <point x="446.1412011995154" y="370"/>
      <point x="360.96428666327563" y="388"/>
      <point x="298.96428666327563" y="388" type="curve" smooth="yes"/>
      <point x="197.9642866632756" y="388"/>
      <point x="169.1027254265817" y="340"/>
      <point x="139.43731661259446" y="289" type="curve"/>
      <point x="156.83477623415058" y="339" type="line"/>
      <point x="170.94504877680876" y="373"/>
      <point x="221.1271180891914" y="411"/>
      <point x="294.1271180891914" y="411" type="curve" smooth="yes"/>
      <point x="321.1271180891914" y="411"/>
      <point x="481.2707116286404" y="419"/>
      <point x="431.1642126440205" y="232" type="curve" smooth="yes"/>
      <point x="374.3589838486225" y="20"/>
      <point x="159.85640646055103" y="-8"/>
      <point x="125.85640646055103" y="-8" type="curve" smooth="yes"/>
      <point x="106.85640646055103" y="-8"/>
      <point x="90.53589838486224" y="2"/>
    </contour>
  </outline>
</glyph>
<glyph name="c" format="2">
  <advance width="500.0"/>
  <unicode hex="0063"/>
  <anchor x="307.1796769724491" y="400.0" name="top"/>
  <anchor x="208.32050807568876" y="-10" name="cedilla"/>
  <anchor x="208.32050807568876" y="-10" name="ogonek"/>
  <anchor x="200.0" y="0" name="bottom"/>
  <outline>
    <contour>
      <point x="373.11542731880104" y="90" type="curve" smooth="yes"/>
      <point x="396.8141571295791" y="115"/>
      <point x="399.0487853252194" y="142"/>
      <point x="414.17314097820156" y="135" type="curve" smooth="yes"/>
      <point x="424.8333950160459" y="130"/>
      <point x="421.4218522841658" y="121"/>
      <point x="401.7231224733878" y="96" type="curve" smooth="yes"/>
      <point x="339.28718707889794" y="16"/>
      <point x="268.3205080756888" y="-10"/>
      <point x="208.32050807568876" y="-10" type="curve" smooth="yes"/>
      <point x="118.32050807568876" y="-10"/>
      <point x="25.201307198849506" y="53"/>
      <point x="64.58983848622454" y="200" type="curve" smooth="yes"/>
      <point x="105.58606492818632" y="353"/>
      <point x="230.8591688967603" y="410"/>
      <point x="320.8591688967603" y="410" type="curve" smooth="yes"/>
      <point x="392.8591688967603" y="410"/>
      <point x="430.23223585570673" y="389"/>
      <point x="462.81553834768374" y="324" type="curve" smooth="yes"/>
      <point x="469.7963004612169" y="309"/>
      <point x="465.65270692176796" y="301"/>
      <point x="456.3129609596123" y="296" type="curve" smooth="yes"/>
      <point x="444.7052658050256" y="290"/>
      <point x="445.86809723094143" y="313"/>
      <point x="426.8347762341506" y="339" type="curve" smooth="yes"/>
      <point x="403.87325200708426" y="369"/>
      <point x="383.0360834330001" y="392"/>
      <point x="317.0360834330001" y="392" type="curve" smooth="yes"/>
      <point x="236.0360834330001" y="392"/>
      <point x="123.97836977359958" y="347"/>
      <point x="84.58983848622454" y="200" type="curve" smooth="yes"/>
      <point x="48.14874831559185" y="64"/>
      <point x="138.14359353944897" y="8"/>
      <point x="214.14359353944897" y="8" type="curve" smooth="yes"/>
      <point x="275.143593539449" y="8"/>
      <point x="316.0384757729337" y="30"/>
    </contour>
  </outline>
</glyph>
<glyph name="d" format="2">
  <advance width="500.0"/>
  <unicode hex="0064"/>
  <anchor x="350.7695154586736" y="600.0" name="top"/>
  <anchor x="188.12435565298213" y="-7" name="cedilla"/>
  <anchor x="382.19615242270663" y="-3" name="ogonek"/>
  <anchor x="177.0" y="0.0" name="bottom"/>
  <outline>
    <contour>
      <point x="498.37721061326033" y="606" type="curve" smooth="yes"/>
      <point x="507.37721061326033" y="606"/>
      <point x="506.9656678813802" y="597"/>
      <point x="498.65924291601544" y="566" type="curve" smooth="yes"/>
      <point x="490.0848687582195" y="534"/>
      <point x="472.2040696350588" y="471"/>
      <point x="439.9065730038751" y="343" type="curve" smooth="yes"/>
      <point x="413.50395860617607" y="237"/>
      <point x="382.7808361327883" y="141"/>
      <point x="363.273103968574" y="57" type="curve" smooth="yes"/>
      <point x="355.16283142591584" y="23"/>
      <point x="367.43078061834694" y="24"/>
      <point x="372.6269330410536" y="21" type="curve" smooth="yes"/>
      <point x="383.01923788646684" y="15"/>
      <point x="425.2346281956403" y="27"/>
      <point x="419.33974596215563" y="5" type="curve" smooth="yes"/>
      <point x="416.9282032302755" y="-4"/>
      <point x="398.19615242270663" y="-3"/>
      <point x="382.19615242270663" y="-3" type="curve" smooth="yes"/>
      <point x="332.46410161513774" y="-2"/>
      <point x="335.1820693123827" y="38"/>
      <point x="352.1872240885255" y="94" type="curve" smooth="yes"/>
      <point x="368.9244296722373" y="149"/>
      <point x="398.6667900320919" y="260"/>
      <point x="415.0116907703904" y="321" type="curve" smooth="yes"/>
      <point x="448.1655938621251" y="441"/>
      <point x="470.20922441120166" y="527"/>
      <point x="478.3194969538598" y="561" type="curve" smooth="yes"/>
      <point x="484.8220743419313" y="589"/>
      <point x="486.37721061326033" y="606"/>
    </contour>
    <contour>
      <point x="359.20646197499235" y="109" type="curve"/>
      <point x="353.2397829717832" y="83" type="line"/>
      <point x="303.11027254265815" y="34"/>
      <point x="232.12435565298213" y="-7"/>
      <point x="188.12435565298213" y="-7" type="curve" smooth="yes"/>
      <point x="89.12435565298213" y="-7"/>
      <point x="24.201307198849506" y="53"/>
      <point x="63.58983848622454" y="200" type="curve" smooth="yes"/>
      <point x="107.26555685249754" y="363"/>
      <point x="209.8591688967603" y="410"/>
      <point x="319.8591688967603" y="410" type="curve" smooth="yes"/>
      <point x="401.8591688967603" y="410"/>
      <point x="411.67709958437763" y="372"/>
      <point x="413.18860530663017" y="303" type="curve"/>
      <point x="406.82962145800775" y="283" type="line"/>
      <point x="392.8540141206174" y="354"/>
      <point x="394.0360834330001" y="392"/>
      <point x="297.768134240569" y="391" type="curve" smooth="yes"/>
      <point x="226.50018504813784" y="390"/>
      <point x="124.31811573575519" y="352"/>
      <point x="83.58983848622454" y="200" type="curve" smooth="yes"/>
      <point x="44.73720558371175" y="55"/>
      <point x="115.14359353944897" y="8"/>
      <point x="189.14359353944897" y="8" type="curve" smooth="yes"/>
      <point x="235.14359353944897" y="8"/>
      <point x="312.22054508531636" y="68"/>
    </contour>
  </outline>
</glyph>
<glyph name="e" format="2">
  <advance width="500.0"/>
  <unicode hex="0065"/>
  <anchor x="317.1796769724491" y="400.0" name="top"/>
  <anchor x="166.98076211353316" y="-15" name="cedilla"/>
  <anchor x="303.0" y="0" name="ogonek"/>
  <anchor x="200.0" y="0" name="bottom"/>
  <outline>
    <contour>
      <point x="403.9821433316378" y="194" type="curve" smooth="yes"/>
      <point x="352.44624494677555" y="192"/>
      <point x="269.9821433316378" y="194"/>
      <point x="230.44624494677555" y="192" type="curve" smooth="yes"/>
      <point x="187.91034656191331" y="190"/>
      <point x="92.64239736948218" y="189"/>
      <point x="75.64239736948218" y="189" type="curve"/>
      <point x="81.00138121810464" y="209" type="line"/>
      <point x="128.73343202567352" y="208"/>
      <point x="234.5372796029669" y="211"/>
      <point x="256.5372796029669" y="211" type="curve" smooth="yes"/>
      <point x="304.98751532910387" y="211"/>
      <point x="375.26933041053576" y="210"/>
      <point x="425.6090763726914" y="215" type="curve"/>
      <point x="460.4424713887373" y="345"/>
      <point x="399.768134240569" y="391"/>
      <point x="310.768134240569" y="391" type="curve" smooth="yes"/>
      <point x="252.76813424056897" y="391"/>
      <point x="116.54758915525264" y="323"/>
      <point x="83.58983848622454" y="200" type="curve" smooth="yes"/>
      <point x="42.05771365940052" y="45"/>
      <point x="98.80384757729337" y="3"/>
      <point x="186.80384757729337" y="3" type="curve" smooth="yes"/>
      <point x="243.80384757729337" y="3"/>
      <point x="310.0910346561913" y="19"/>
      <point x="331.5025773880714" y="28" type="curve" smooth="yes"/>
      <point x="357.4500185048138" y="39"/>
      <point x="367.5936120442628" y="47"/>
      <point x="383.7372055837117" y="55" type="curve" smooth="yes"/>
      <point x="394.07695154586736" y="60"/>
      <point x="404.7897644669694" y="44"/>
      <point x="387.11027254265815" y="34" type="curve" smooth="yes"/>
      <point x="347.94744111674237" y="11"/>
      <point x="284.98076211353316" y="-15"/>
      <point x="166.98076211353316" y="-15" type="curve" smooth="yes"/>
      <point x="78.98076211353316" y="-15"/>
      <point x="20.91412011995154" y="37"/>
      <point x="64.58983848622454" y="200" type="curve" smooth="yes"/>
      <point x="101.29887784928835" y="337"/>
      <point x="240.8591688967603" y="410"/>
      <point x="320.8591688967603" y="410" type="curve" smooth="yes"/>
      <point x="417.8591688967603" y="410"/>
      <point x="480.51426815846185" y="349"/>
      <point x="447.2885682970026" y="225" type="curve" smooth="yes"/>
      <point x="438.77273862900597" y="193.21849101043406"/>
      <point x="433.2500925240689" y="195"/>
    </contour>
  </outline>
</glyph>
<glyph name="f" format="2">
  <advance width="500.0"/>
  <unicode hex="0066"/>
  <anchor x="410.7695154586736" y="600.0" name="top"/>
  <anchor x="106.5884572681199" y="-9" name="cedilla"/>
  <anchor x="106.5884572681199" y="-9" name="ogonek"/>
  <anchor x="200.0" y="0.0" name="bottom"/>
  <outline>
    <contour>
      <point x="532.9938341020281" y="515" type="curve" smooth="yes"/>
      <point x="521.1181897550103" y="508"/>
      <point x="515.9412752187706" y="526"/>
      <point x="501.300259067393" y="546" type="curve" smooth="yes"/>
      <point x="468.0900235343624" y="590"/>
      <point x="407.89387111165576" y="593"/>
      <point x="371.0182267646379" y="586" type="curve" smooth="yes"/>
      <point x="302.5348872630333" y="573"/>
      <point x="258.47717360363276" y="528"/>
      <point x="206.15528430983937" y="329" type="curve" smooth="yes"/>
      <point x="172.0539401013623" y="198"/>
      <point x="140.70388458692094" y="81"/>
      <point x="134.0051547761429" y="56" type="curve" smooth="yes"/>
      <point x="121.4115427318801" y="9"/>
      <point x="120.5884572681199" y="-9"/>
      <point x="106.5884572681199" y="-9" type="curve" smooth="yes"/>
      <point x="96.5884572681199" y="-9"/>
      <point x="103.55513627132908" y="17"/>
      <point x="114.27310396857399" y="57" type="curve" smooth="yes"/>
      <point x="152.85778767865565" y="201"/>
      <point x="198.8014552373598" y="365"/>
      <point x="212.05532131946694" y="407" type="curve" smooth="yes"/>
      <point x="224.2373906318496" y="445"/>
      <point x="264.71695657541596" y="611"/>
      <point x="400.9131089981226" y="608" type="curve" smooth="yes"/>
      <point x="445.6451598056915" y="607"/>
      <point x="490.6451598056915" y="607"/>
      <point x="530.9605131052374" y="541" type="curve" smooth="yes"/>
      <point x="539.4771736036328" y="528"/>
      <point x="542.3335800641838" y="520"/>
    </contour>
    <contour>
      <point x="445.72450369149243" y="305" type="curve" smooth="yes"/>
      <point x="441.0450117671812" y="295"/>
      <point x="432.58091015204343" y="297"/>
      <point x="402.58091015204343" y="297" type="curve" smooth="yes"/>
      <point x="351.1168085369057" y="299"/>
      <point x="285.8488593444746" y="298"/>
      <point x="273.8488593444746" y="298" type="curve" smooth="yes"/>
      <point x="239.84885934447456" y="298"/>
      <point x="161.77706257475006" y="294"/>
      <point x="133.50911338231896" y="293" type="curve" smooth="yes"/>
      <point x="109.24116418988783" y="292"/>
      <point x="93.90141822773221" y="287"/>
      <point x="97.18860530663018" y="303" type="curve" smooth="yes"/>
      <point x="99.13604642337252" y="314"/>
      <point x="115.33219884607915" y="311"/>
      <point x="147.60014803851027" y="312" type="curve" smooth="yes"/>
      <point x="195.60014803851027" y="312"/>
      <point x="260.6719448082348" y="316"/>
      <point x="297.6719448082348" y="316" type="curve" smooth="yes"/>
      <point x="329.6719448082348" y="316"/>
      <point x="395.6719448082348" y="316"/>
      <point x="410.40399561580364" y="315" type="curve" smooth="yes"/>
      <point x="443.13604642337253" y="314"/>
      <point x="449.13604642337253" y="314"/>
    </contour>
  </outline>
</glyph>
<glyph name="g" format="2">
  <advance width="500.0"/>
  <unicode hex="0067"/>
  <anchor x="307.1796769724491" y="400.0" name="top"/>
  <anchor x="165.32943640986986" y="-107" name="cedilla"/>
  <anchor x="165.32943640986986" y="-107" name="ogonek"/>
  <anchor x="200.0" y="0.0" name="bottom"/>
  <outline>
    <contour>
      <point x="2.0666419935816194" y="-52" type="curve" smooth="yes"/>
      <point x="15.549981495186216" y="-39"/>
      <point x="17.262794416288244" y="-55"/>
      <point x="38.04740410711477" y="-67" type="curve" smooth="yes"/>
      <point x="57.09996299037243" y="-78"/>
      <point x="104.15252187363008" y="-89"/>
      <point x="159.4204710660612" y="-88" type="curve" smooth="yes"/>
      <point x="270.95636945092343" y="-86"/>
      <point x="342.92304845413264" y="-60"/>
      <point x="388.0577136594005" y="45" type="curve" smooth="yes"/>
      <point x="407.38337651123214" y="91"/>
      <point x="405.1013442084771" y="131"/>
      <point x="416.2500925240689" y="195" type="curve" smooth="yes"/>
      <point x="431.5616722655766" y="282"/>
      <point x="451.37067461901285" y="341"/>
      <point x="475.33735362222205" y="367" type="curve" smooth="yes"/>
      <point x="492.42838827841337" y="386"/>
      <point x="495.1078802027246" y="396"/>
      <point x="504.69633747084447" y="387" type="curve" smooth="yes"/>
      <point x="513.5527439313955" y="379"/>
      <point x="484.19376008277305" y="359"/>
      <point x="465.13604642337253" y="314" type="curve" smooth="yes"/>
      <point x="445.8103835715409" y="268"/>
      <point x="440.0206191045715" y="224"/>
      <point x="435.7859909089312" y="197" type="curve" smooth="yes"/>
      <point x="428.9244296722373" y="149"/>
      <point x="425.67056359013014" y="107"/>
      <point x="419.5077321642143" y="84" type="curve" smooth="yes"/>
      <point x="401.8948822334847" y="22"/>
      <point x="362.1332839871632" y="-104"/>
      <point x="165.32943640986986" y="-107" type="curve" smooth="yes"/>
      <point x="99.06148721743875" y="-108"/>
      <point x="46.205080756887725" y="-100"/>
      <point x="14.8320137979413" y="-79" type="curve" smooth="yes"/>
      <point x="2.9756073373902865" y="-71"/>
      <point x="-7.61284993072961" y="-62"/>
    </contour>
    <contour>
      <point x="478.9976076600664" y="362" type="curve"/>
      <point x="463.63862381144395" y="342" type="line"/>
      <point x="434.74889635410216" y="376"/>
      <point x="385.91172778001794" y="399"/>
      <point x="355.91172778001794" y="399" type="curve" smooth="yes"/>
      <point x="245.91172778001794" y="399"/>
      <point x="111.82962145800772" y="283"/>
      <point x="95.21677152727811" y="221" type="curve" smooth="yes"/>
      <point x="59.04363054907655" y="86"/>
      <point x="164.36413862476533" y="76"/>
      <point x="197.90003700962757" y="78" type="curve" smooth="yes"/>
      <point x="241.43593539448983" y="80"/>
      <point x="320.61800470687245" y="118"/>
      <point x="432.1116537607628" y="243" type="curve"/>
      <point x="426.6090763726914" y="215" type="line"/>
      <point x="325.79491924311225" y="100"/>
      <point x="243.80900235343626" y="59"/>
      <point x="196.80900235343626" y="59" type="curve" smooth="yes"/>
      <point x="162.80900235343626" y="59"/>
      <point x="34.54105316100512" y="58"/>
      <point x="77.14497475755363" y="217" type="curve" smooth="yes"/>
      <point x="104.74374157795927" y="320"/>
      <point x="266.46686405134705" y="416"/>
      <point x="356.73481324377815" y="417" type="curve" smooth="yes"/>
      <point x="389.73481324377815" y="417"/>
      <point x="461.42838827841337" y="386"/>
    </contour>
  </outline>
</glyph>
<glyph name="h" format="2">
  <advance width="500.0"/>
  <unicode hex="0068"/>
  <anchor x="380.7695154586736" y="600.0" name="top"/>
  <anchor x="61.85640646055102" y="-8" name="cedilla"/>
  <anchor x="340.5884572681199" y="-9" name="ogonek"/>
  <anchor x="200.0" y="0.0" name="bottom"/>
  <outline>
    <contour>
      <point x="235.03746465110473" y="601" type="curve" smooth="yes"/>
      <point x="247.8413122283981" y="604"/>
      <point x="245.0182267646379" y="586"/>
      <point x="235.51564937656647" y="558" type="curve" smooth="yes"/>
      <point x="211.49125671395674" y="487"/>
      <point x="187.23223585570673" y="389"/>
      <point x="157.48987549585212" y="278" type="curve" smooth="yes"/>
      <point x="143.0206191045715" y="224"/>
      <point x="93.7564434701786" y="70"/>
      <point x="87.66540881398726" y="51" type="curve" smooth="yes"/>
      <point x="78.62693304105358" y="21"/>
      <point x="76.85640646055103" y="-8"/>
      <point x="61.85640646055102" y="-8" type="curve" smooth="yes"/>
      <point x="49.85640646055102" y="-8"/>
      <point x="56.287187078897965" y="16"/>
      <point x="66.86156123669389" y="48" type="curve" smooth="yes"/>
      <point x="80.84747812636992" y="89"/>
      <point x="128.3603650667271" y="229"/>
      <point x="157.71042058116845" y="346" type="curve" smooth="yes"/>
      <point x="196.70664702313022" y="499"/>
      <point x="218.5682082598241" y="547"/>
      <point x="223.87463322518892" y="578" type="curve" smooth="yes"/>
      <point x="227.1618203040869" y="594"/>
      <point x="224.23361707381136" y="598"/>
    </contour>
    <contour>
      <point x="356.3256628518316" y="46" type="curve" smooth="yes"/>
      <point x="352.8230854637602" y="18"/>
      <point x="350.5884572681199" y="-9"/>
      <point x="340.5884572681199" y="-9" type="curve" smooth="yes"/>
      <point x="323.5884572681199" y="-9"/>
      <point x="328.60769515458674" y="6"/>
      <point x="333.11027254265815" y="34" type="curve" smooth="yes"/>
      <point x="343.25902085825004" y="98"/>
      <point x="351.0487853252194" y="142"/>
      <point x="377.41292394998476" y="218" type="curve" smooth="yes"/>
      <point x="438.23223585570673" y="389"/>
      <point x="342.768134240569" y="391"/>
      <point x="309.0360834330001" y="392" type="curve" smooth="yes"/>
      <point x="296.3040326254312" y="393"/>
      <point x="194.9642866632756" y="388"/>
      <point x="145.71934891534954" y="249" type="curve"/>
      <point x="159.99245288392353" y="306" type="line"/>
      <point x="201.25147374217357" y="404"/>
      <point x="293.8591688967603" y="410"/>
      <point x="321.8591688967603" y="410" type="curve" smooth="yes"/>
      <point x="369.8591688967603" y="410"/>
      <point x="455.3040326254312" y="393"/>
      <point x="400.7001110288827" y="234" type="curve" smooth="yes"/>
      <point x="374.87187078897966" y="160"/>
      <point x="364.93851278256125" y="108"/>
    </contour>
  </outline>
</glyph>
